<?xml version="1.0" encoding="utf-8"?>
<!-- Generator: Adobe Illustrator 22.0.1, SVG Export Plug-In . SVG Version: 6.00 Build 0)  -->
<svg version="1.1" id="레이어_1" xmlns="http://www.w3.org/2000/svg" xmlns:xlink="http://www.w3.org/1999/xlink" x="0px"
	 y="0px" viewBox="0 0 751.5 165.2" style="enable-background:new 0 0 751.5 165.2;" xml:space="preserve">
<style type="text/css">
	.st0{fill:#FFFFFF;}
</style>
<g>
	<path class="st0" d="M414.4,62.8c-6.3-0.9-12.5,0-17.8,2.8c-8.3,4.3-12.7,13.7-12.6,20.8c0.1,10,6.1,19.7,16.7,26.6
		c0.5,0.3,1,0.7,1.6,1c1.1,0.7,2.2,1.4,3.3,2.2c2.4,1.6,5.4,4.3,6,7.9c0.6,3.2-0.7,7-3.2,9.7c-4.5,4.8-13.4,4.4-18.9,1.1
		c-3.2-1.9-5.1-4.6-6.5-9.2c-2.1-6.6-4.8-10.8-8.3-12.7c-2.4-1.3-5.4-1.4-7.9-0.3c-2.4,1.2-4,3.5-4.2,6.3c-0.1,0.6-0.1,1.2-0.1,1.9
		c-5.3,12.9-12.6,20.8-19.9,17.4c-1.3-0.6-2.6-1.6-3.1-3.1c-1.7-4.3-0.4-8.7,1.1-12.9c0.8-2.4,1.7-4.8,2.5-7.2
		c1.8-5.2,3.6-10.4,5.4-15.6c1.4-4,2.8-8,4.2-11.9c0.7-1.9,1.3-3.9,2.1-5.8c0.4-1.2,0.9-2.7,1.1-4.5c0-0.2,0.1-0.3,0.1-0.5
		c0.2-0.9,0.3-1.7,0.3-2.6c0-0.8,0-1.5-0.2-2.3c-0.1-0.7-0.3-1.4-0.6-2c-0.2-0.6-0.6-1.2-0.9-1.7c-0.4-0.5-0.8-1-1.3-1.4
		s-1-0.8-1.5-1.1c-0.6-0.3-1.2-0.6-1.8-0.8c-0.7-0.2-1.3-0.4-2-0.5c-1.1-0.2-2.8,0-3.9,0.3c-1.8,0.5-3.3,1.3-4.7,2.6
		c-3.1,2.8-4.7,6.4-6,10.2c-0.7,1.9-1.3,3.8-2,5.7c-0.9,2.6-1.8,5.3-2.8,7.9c-1.1,3-2.1,6-3.2,9.1c-1.1,3-2.1,6-3.2,9
		c-0.9,2.6-1.8,5.3-2.8,7.9c-0.6,1.9-1.3,3.7-1.9,5.6c-0.2,0.7-0.5,1.4-0.7,2.1l-0.5,1.6c-0.4,1.1-1.1,2.2-1.8,3.2
		c-0.6,0.9-1.2,1.7-1.9,2.5c-1.1,1.1-2.3,2.1-3.7,2.8c-0.8,0.4-1.6,0.7-2.4,0.8c-1.9,0.4-4.3,0.3-6.1-1c-5.4-3.9-3.8-12.6-2.8-17.9
		c0.5-2.8,1.4-5.5,2.3-8.2c1.2-3.4,2.6-6.8,4.3-10c1.7-3.2,3.6-6.4,5.9-9.2c1.9-2.3,4.3-4.2,7-5.7c2.1-1.1,4.4-1.6,6.9-1.4
		c1.2,0.1,2.3-0.6,2.7-1.7c0.5-1.5,1.3-3.7,2.3-6.2c0.8-2,1.3-3.4,1.8-4.4c0.5-1.2,0-2.5-1.1-3.2c-3.3-1.9-9.1-3.8-18.7-0.9
		c-14.5,4.4-31.3,24.7-35.5,48.4c-1.6,6.6-7,24.4-19,25.5c-14.8,1.4-4.1-22.5-4.1-22.5s27.7-79.7,29.4-84.4
		c1.8-4.8,3.3-15.7-6.5-17.3c-9.8-1.6-14,10.7-14,10.7L228,121c-5.3,12.8-12.6,20.7-19.9,17.3c-1.3-0.6-2.6-1.6-3.1-3.1
		c-1.7-4.3-0.4-8.7,1.1-12.9c0.8-2.4,1.7-4.8,2.5-7.2c1.8-5.2,3.6-10.4,5.4-15.6c1.4-4,2.8-8,4.2-11.9c0.7-1.9,1.3-3.9,2.1-5.8
		c0.4-1.2,0.9-2.7,1.1-4.5c0-0.2,0.1-0.3,0.1-0.5c0.2-0.9,0.3-1.7,0.3-2.6c0-0.8,0-1.5-0.2-2.3c-0.1-0.7-0.3-1.4-0.6-2
		c-0.2-0.6-0.6-1.2-0.9-1.7c-0.4-0.5-0.8-1-1.3-1.4s-1-0.8-1.5-1.1c-0.6-0.3-1.2-0.6-1.8-0.8c-0.7-0.2-1.3-0.4-2-0.5
		c-1.1-0.2-2.8,0-3.9,0.3c-1.8,0.5-3.3,1.3-4.7,2.6c-3.1,2.8-4.7,6.4-6,10.2c-0.7,1.9-1.3,3.8-2,5.7c-0.9,2.6-1.8,5.3-2.8,7.9
		c-1.1,3-2.1,6-3.2,9.1c-1.1,3-2.1,6-3.2,9c-0.9,2.6-1.8,5.3-2.8,7.9c-0.6,1.9-1.3,3.7-1.9,5.6c-0.2,0.7-0.5,1.4-0.7,2.1l-0.5,1.6
		c-0.4,1.1-1.1,2.2-1.8,3.2c-0.6,0.9-1.2,1.7-1.9,2.5c-1.1,1.1-2.3,2.1-3.7,2.8c-0.8,0.4-1.6,0.7-2.4,0.8c-1.9,0.4-4.3,0.3-6.1-1
		c-5.4-3.9-3.8-12.6-2.8-17.9c0.5-2.8,1.4-5.5,2.3-8.2c1.2-3.4,2.6-6.8,4.3-10s3.6-6.4,5.9-9.2c1.9-2.3,4.3-4.2,7-5.7
		c2.1-1.1,4.4-1.6,6.9-1.4c1.2,0.1,2.3-0.6,2.7-1.7c0.5-1.5,1.3-3.7,2.3-6.2c0.8-2,1.3-3.4,1.8-4.4c0.5-1.2,0-2.5-1.1-3.2
		c-3.3-1.9-9.1-3.8-18.7-0.9c-14.1,4.2-30.2,23.4-35.1,46.1c-5.5,21-16.6,27.7-24.6,28.9c-11.1,1.6-21.3-2.2-29.1-7.7l-1.3-0.9
		c-2.4-1.7-6-4-10.7-6.9L101,53l8.9-25.5c1.4-3.7,4.4-6.4,8.2-7.1c1.6-0.3,3.3-0.3,4.7,0.2c0.5,0.1,1,0.3,1.4,0.5
		c2.5,1.2,5.7,5.3,5.4,10.4c0,1-0.2,2-0.5,3.1c-1.5,5.2-4.9,9.4-9,12.7c-3.7,3.1-8.3,6-12.7,8.2c-0.6,0.3-1,0.8-1.3,1.4L100,73.7
		c-0.7,2,1.1,3.9,3.1,3.3c4.7-1.5,9.2-3.4,9.2-3.4c13.2-5.3,25.9-14.3,32.5-27.3c3.3-6.6,4.8-14.4,3.2-21.7
		c-0.2-1.1-0.5-2.2-0.8-3.2c-4-13.8-17.4-22-31.5-20.9c-3.9,0.3-7.9,1.4-11.3,3.4c-4,2.4-7.6,5.8-10.6,10.1
		c-2.6,3.7-4.8,8.1-6.5,12.8L75.4,61c-6.5,2.2-13.3,3.9-20,2.8c-6.6-1.1-12.6-4.9-16.9-10c-0.8-0.9-1.5-1.9-2.5-2.6
		c-1-0.7-2.3-1-3.4-0.4c-1.1,0.6-1.6,2-1.9,3.2c-1.1,5.4-0.4,11.2,2.1,16.1c0.8,1.6,1.8,3.2,3,4.6s2.5,2.7,3.9,3.8
		c6.1,4.8,13.9,6.3,21.5,5.7c2.1-0.2,4.2-0.5,6.3-0.9l-15.1,43.3c-0.8,2.3-2.2,4.4-4.1,6.2c-3.8,3.8-8.8,5.9-13.8,6
		c-0.7,0-1.4,0-2.3-0.1c-3.3-0.4-7.5-1.8-8.7-5.1c-0.5-1.3-0.3-2.8,0.5-4c0.9-1.4,3-3.2,7.9-3.4c0,0,5-0.2,11.5,1.8
		c1,0.3,2.2-0.1,2.8-1c0.7-1,1.6-2.4,2.2-4c0.8-2,2.3-6.3,3.2-9c0.5-1.3-0.2-2.7-1.5-3.2c-4.5-1.6-8.6-2.6-13.1-3.1
		c-6.5-0.7-12.3-0.3-17.4,1.2c-4.1,1.2-7.8,3.3-10.7,6.1c-5,4.7-7.7,11.2-7.3,17.8c0,0.1,0,0.1,0,0.2c0.2,2.7,0.8,5.3,1.9,7.8
		c1.7,3.8,4.5,7.3,8,10.1s7.8,4.8,12.3,5.8c3.1,0.7,6,1.1,8.8,1.3c3,0.2,5.9,0,8.6-0.5c4.7-0.9,9.3-2.8,13.6-5.6
		c1.9-1.3,3.7-2.7,5.5-4.4c0.2-0.2,1.4-1.4,2.5-2.5c0.9-0.9,1.4-1.5,1.7-1.8c0,0,0,0,0.1,0c3.7,2.9,6,4.9,7,5.7
		c0.1,0.1,0.3,0.3,0.6,0.5c5.6,5.1,11.9,9.5,19,12.3c11.1,4.3,25.7,5,36.4-0.4c7-3.5,12.3-9.3,16.4-15.9
		c5.2,10.2,14.6,12.5,23.1,10.6c1.7-0.4,3.4-0.9,5-1.6c4.6-1.9,8.5-5,10.9-8.4c0,0,4.1,5.8,11.9,8.8c2.8,1.1,6,1.8,9.7,1.8
		c8.2,0,16.7-5.2,22.3-9.5c0.3,0.4,0.6,0.7,0.9,1c6.5,6.9,17.3,9.6,26.2,8.1c8.5-1.4,17.8-6.7,23.7-12.5c5,11.7,14.9,14.3,23.9,12.3
		c1.7-0.4,3.4-0.9,5-1.6c4.6-1.9,8.5-5,10.9-8.4c0,0,4.1,5.8,11.9,8.8c2.8,1.1,6,1.8,9.7,1.8c13.7,0,28-14.3,28.8-15.1l0,0l0,0
		c3.6,5.8,8.8,10.5,15.2,13.3c4.8,2.1,10.1,3.2,15.4,3.2c0.6,0,1.1,0,1.7,0c9.1-0.4,17.9-4,24.6-10.1c7.3-6.6,10.4-17.1,7.9-26.5
		c-2.5-9.3-10.1-14.5-17.5-19.4c-0.6-0.4-1.1-0.8-1.7-1.1c-2.2-1.5-3.8-2.8-5.1-4.2c-2.7-2.8-4.1-6.5-3.7-9.4c0.3-2,1.3-3.5,3.2-4.6
		l0,0c0.8-0.5,1.7-0.8,2.8-1c2.4-0.4,4.9,0.3,7,1.8c1.1,0.8,1.9,1.8,2.8,2.8s1.8,2.1,3,3c2.5,1.9,5.6,2.7,8.3,2
		c4.6-1.1,6.2-6.1,5.4-10.4C435,70.3,423.9,64.2,414.4,62.8z"/>
	<path class="st0" d="M542.3,82.7c0.4-0.8,0.8-1.8,1.1-2.9c0.8-2.5,1.2-5.7,0.5-8.5c-0.5-1.8-1.4-3.5-3-4.7
		c-0.9-0.7-2.1-1.3-3.5-1.7c-0.8-0.2-1.5-0.3-2.2-0.4c-8.1-0.6-12.6,9.3-12.6,9.3l-22.8,49.9c-0.3-8.4-0.4-21.4-0.7-27.1
		c-0.5-9.3-0.9-18.1-9.6-19.1c-8.1-0.9-11.9,9.1-12.2,10.1l-14.5,36.1c-0.1-3.3-0.1-6.7-0.2-9.9c-0.2-11.7-0.4-26-0.5-29.3
		c0-0.3,0-0.5,0-0.6c0,0,0-0.1,0-0.2c0-2.2,0-3.6,0-4.2c0-4.1-1.5-12.2-7-14.3c-1.1-0.4-2.4-0.6-3.9-0.5c-0.3,0-0.5,0.1-0.8,0.1
		c-9.4,1.5-9.2,14.7-9.2,14.7l0.8,56c0,1.6,0.1,3.1,0.2,4.5c0.6,5.5,2.3,10.1,5.1,13c2.8,2.9,7.4,4.1,11.4,3.4
		c7-1.3,11-9.1,13.3-15.1c1.2-3.1,2.4-6.3,3.6-9.4c1.1-2.9,2.2-5.8,3.4-8.8c1-2.7,2.1-5.5,3.1-8.2c0.8-2,1.5-4,2.3-6l1.6,30
		c0.2,8.5,3.9,17.8,14.1,17.8c7.1,0,11.5-6.4,14.2-12.2c1-2.3,17.2-37.4,25.1-55.2C540.9,85.6,542,83.4,542.3,82.7z"/>
	<path class="st0" d="M712.3,110c0.3-1.1,0.7-2.2,1-3.3l8.3-23.8c11.7,0.3,20.8-1.3,27.4-13.3c1.4-2.5,1.5-6.2-2.4-5.4
		c-0.6,0.1-1.1,0.2-1.7,0.3c-4.4,0.7-8.9,1.2-13.4,1.5c-0.9,0-1.6,0.1-2.3,0.1c0-0.1,0.1-0.2,0.1-0.3c0,0.1-0.1,0.2-0.1,0.3
		c-0.5,0-1.1,0.1-1.7,0.1l0,0c0-0.1,0.1-0.2,0.1-0.3c2.3-6.7,4-11.4,4.4-12.4c1.8-4.8,3.3-15.7-6.5-17.3c-0.5-0.1-1.1-0.1-1.6-0.1
		c-2.1,0.1-3.9,0.7-5.5,1.5c-4.8,3-7,9.3-7,9.3l-6.6,18.9l0,0l0,0c-4.8-0.2-12-0.7-17.1-1.5c-2.2-0.3-5,0.4-4,3.7
		c2.3,7.5,8.8,12,15.7,13.6l-9.8,28c-0.2,0.5-0.3,1-0.5,1.5l-1,2.7c-4,9.2-14.4,16.6-22.1,20c-6.7,3-18.6,4.8-25.9,3
		c-4.3-1-8.4-3.3-11-7c-2.8-3.9-2.9-8.8-2.2-13.5c0.7-5.2,2.5-10.2,4.7-15c4-8.4,9.3-15.1,14.1-18.2c0,0,0,0,0.1,0
		c3-2,7.9-3.4,11.3-2.6c3.9,0.9,7.1,4.5,6.6,8.5c-0.6,4.7-4.6,6.4-8.7,7.9c-3.6,1.3-7.5,1.8-11.4,2.1c-0.9,0.1-1.8,0.1-2.6,0.2
		c-1,0.1-1.9-0.1-2.6,0.7c-0.7,0.7-1.2,1.6-1.6,2.4c-1.3,2.8-3.1,7.8-3.9,12.5c-0.2,1.5,0.9,2.9,2.5,2.8c4.3-0.1,7.5,0,13.5-0.9
		c4.7-0.7,9.4-2.1,13.1-3.7c5.1-2.3,9.6-5.2,13.2-10.1c10.4-13.9,4.6-36.5-12.8-39.8c-5.1-1-10.4-0.8-15.4,0.7
		c-2.1,0.6-4.2,1.4-6.3,2.4c-1.5,0.7-2.9,1.4-4.3,2.3c-13.7,8.3-23.7,23.2-28.4,38.2c-0.2,0.6-0.4,1.2-0.5,1.8
		c-1.4,5-2.1,9.9-2.2,14.7v0.1l0,0c0,1,0,2.5,0.2,4.2c-3.5,2.7-7.3,4.9-10.6,6.4c-6.7,3-18.6,4.8-25.9,3c-4.3-1-8.4-3.3-11-7
		c-2.8-3.9-2.9-8.8-2.2-13.5c0.7-5.2,2.5-10.2,4.7-15c4-8.4,9.3-15.1,14.1-18.2c0,0,0,0,0.1,0c3-2,7.9-3.4,11.3-2.6
		c3.9,0.9,7.1,4.5,6.6,8.5c-0.6,4.7-4.6,6.4-8.7,7.9c-3.6,1.3-7.5,1.8-11.4,2.1c-0.9,0.1-1.8,0.1-2.6,0.2c-1,0.1-1.9-0.1-2.6,0.7
		c-0.7,0.7-1.2,1.6-1.6,2.4c-1.3,2.8-3.1,7.8-3.9,12.5c-0.2,1.5,0.9,2.9,2.5,2.8c4.3-0.1,7.5,0,13.5-0.9c4.7-0.7,9.4-2.1,13.1-3.7
		c5.1-2.3,9.6-5.2,13.2-10.1c10.4-13.9,4.6-36.5-12.8-39.8c-5.1-1-10.4-0.8-15.4,0.7c-2.1,0.6-4.2,1.4-6.3,2.4
		c-1.5,0.7-2.9,1.4-4.3,2.3c-13.7,8.3-23.7,23.2-28.4,38.2c-0.2,0.6-0.4,1.2-0.5,1.8c-1.4,5-2.1,9.9-2.2,14.7v0.1l0,0
		c0,3.4,0.4,11.2,4.3,18.2l0,0c0.3,0.5,0.6,1,0.9,1.5c0.1,0.1,0.1,0.2,0.2,0.3c0.3,0.4,0.6,0.8,0.8,1.2c0.4,0.5,0.8,1,1.2,1.5
		c7.4,8.6,18.9,12.3,31.7,11.8c8.7-0.3,20.2-3.3,28.5-8c3-1.7,6.4-3.9,9.2-6.4c0.3,0.4,0.5,0.7,0.8,1.1c0.4,0.5,0.8,1,1.2,1.5
		c7.4,8.6,18.9,12.3,31.7,11.8c8.7-0.3,20.2-3.3,28.5-8c3.7-2.1,7.9-4.9,10.9-8c0.3-0.3,0.6-0.6,0.9-0.9c0,0,1.3-1.3,2.8-2.9
		c0.3,1,0.8,2,1.3,2.9c3.1,6.6,8.6,12,15.8,14.9c7.5,3,15.9,2.8,23.1-0.2c6.6-2.8,12.4-7.7,16-13.9c1.7-2.9,2.9-6,3.6-9.3
		c0.6-3.2,0.8-6.9-0.6-9.9c-0.6-1.2-1.9-2.6-2.8-1.3c-2.3,3.1-5,5.9-7.7,8.6c-5.8,5.6-16.4,11.6-23.8,5.3c-0.7-0.6-1.3-1.3-1.8-2
		c-2.4-3.8-2.1-9.4-0.8-13.5C710.4,116.2,711.4,113.1,712.3,110z"/>
</g>
</svg>
