<?xml version="1.0" encoding="utf-8"?>
<!-- Generator: Adobe Illustrator 22.0.1, SVG Export Plug-In . SVG Version: 6.00 Build 0)  -->
<svg version="1.1" xmlns="http://www.w3.org/2000/svg" xmlns:xlink="http://www.w3.org/1999/xlink" x="0px" y="0px"
	 viewBox="0 0 416 297.3" style="enable-background:new 0 0 416 297.3;" xml:space="preserve">
<style type="text/css">
	.st0{fill:#5871A9;}
	.st1{fill:#3E4F84;}
	.st2{fill:#FEFBF3;}
	.st3{fill:#B2B1B2;}
	.st4{display:none;}
	.st5{display:inline;}
	.st6{fill:#66733D;}
	.st7{fill:#708042;}
	.st8{fill:#84934E;}
	.st9{fill:#584730;}
	.st10{fill:#745A41;}
	.st11{fill:#655138;}
	.st12{fill:#7F6149;}
	.st13{fill:#C4C2C3;}
	.st14{fill:#C8A499;}
	.st15{fill:#292929;}
	.st16{fill:#E2E0E1;}
	.st17{fill:none;}
</style>
<g id="레이어_1">
	<g>
		<path class="st0" d="M333,64.9H83c-4.7,0-8.6-3.8-8.6-8.6V8.6C74.4,3.8,78.3,0,83,0h250c4.7,0,8.6,3.8,8.6,8.6v47.8
			C341.6,61,337.7,64.9,333,64.9z"/>
		<path class="st1" d="M301.1,297.3H114.9c-4.5,0-8.2-3.5-8.5-8l-16-224.5h235.3l-16,224.5C309.3,293.9,305.6,297.3,301.1,297.3z"/>
		<g>
			<path class="st2" d="M212.2,261.9c-0.7-0.1-1.3,0-1.9,0.3c-0.9,0.5-1.4,1.5-1.4,2.2c0,1.1,0.7,2.1,1.8,2.9c0.1,0,0.1,0.1,0.2,0.1
				c0.1,0.1,0.2,0.2,0.4,0.2c0.3,0.2,0.6,0.5,0.6,0.8c0.1,0.3-0.1,0.8-0.3,1c-0.5,0.5-1.4,0.5-2,0.1c-0.3-0.2-0.5-0.5-0.7-1
				c-0.2-0.7-0.5-1.2-0.9-1.4c-0.3-0.1-0.6-0.2-0.8,0c-0.3,0.1-0.4,0.4-0.5,0.7c0,0.1,0,0.1,0,0.2c-0.6,1.4-1.4,2.2-2.1,1.9
				c-0.1-0.1-0.3-0.2-0.3-0.3c-0.2-0.5,0-0.9,0.1-1.4c0.1-0.3,0.2-0.5,0.3-0.8c0.2-0.6,0.4-1.1,0.6-1.7c0.1-0.4,0.3-0.9,0.5-1.3
				c0.1-0.2,0.1-0.4,0.2-0.6c0-0.1,0.1-0.3,0.1-0.5c0,0,0,0,0-0.1c0-0.1,0-0.2,0-0.3c0-0.1,0-0.2,0-0.2c0-0.1,0-0.1-0.1-0.2
				c0-0.1-0.1-0.1-0.1-0.2c0-0.1-0.1-0.1-0.1-0.2c-0.1,0-0.1-0.1-0.2-0.1c-0.1,0-0.1-0.1-0.2-0.1c-0.1,0-0.1,0-0.2-0.1
				c-0.1,0-0.3,0-0.4,0c-0.2,0.1-0.4,0.1-0.5,0.3c-0.3,0.3-0.5,0.7-0.6,1.1c-0.1,0.2-0.1,0.4-0.2,0.6c-0.1,0.3-0.2,0.6-0.3,0.9
				c-0.1,0.3-0.2,0.7-0.3,1c-0.1,0.3-0.2,0.7-0.3,1c-0.1,0.3-0.2,0.6-0.3,0.8c-0.1,0.2-0.1,0.4-0.2,0.6c0,0.1-0.1,0.2-0.1,0.2
				l-0.1,0.2c0,0.1-0.1,0.2-0.2,0.3c-0.1,0.1-0.1,0.2-0.2,0.3c-0.1,0.1-0.2,0.2-0.4,0.3c-0.1,0-0.2,0.1-0.3,0.1
				c-0.2,0-0.5,0-0.7-0.1c-0.6-0.4-0.4-1.4-0.3-1.9c0.1-0.5,0.3-0.9,0.4-1.3c0,0,0,0,0,0c0.2-0.6,0.5-1.1,0.9-1.6
				c0.2-0.2,0.5-0.5,0.8-0.6c0.2-0.1,0.5-0.2,0.7-0.1c0.1,0,0.2-0.1,0.3-0.2c0.1-0.2,0.1-0.4,0.2-0.7c0-0.1,0.1-0.2,0.1-0.3
				c0.1-0.3,0-0.6-0.3-0.7c-0.4-0.1-0.9-0.2-1.7,0c-1.6,0.5-3.4,2.7-3.8,5.2c-0.2,0.7-0.8,2.6-2.1,2.7c-1.6,0.1-0.4-2.4-0.4-2.4
				s3-8.6,3.2-9.1c0.2-0.5,0.4-1.7-0.7-1.9c-1.1-0.2-1.5,1.2-1.5,1.2l-3.6,10.3c-0.6,1.4-1.4,2.2-2.1,1.9c-0.1-0.1-0.3-0.2-0.3-0.3
				c-0.2-0.5,0-0.9,0.1-1.4c0.1-0.3,0.2-0.5,0.3-0.8c0.2-0.6,0.4-1.1,0.6-1.7c0.1-0.4,0.3-0.9,0.5-1.3c0.1-0.2,0.1-0.4,0.2-0.6
				c0-0.1,0.1-0.3,0.1-0.5c0,0,0,0,0-0.1c0-0.1,0-0.2,0-0.3c0-0.1,0-0.2,0-0.2c0-0.1,0-0.1-0.1-0.2c0-0.1-0.1-0.1-0.1-0.2
				c0-0.1-0.1-0.1-0.1-0.2c-0.1,0-0.1-0.1-0.2-0.1c-0.1,0-0.1-0.1-0.2-0.1c-0.1,0-0.1,0-0.2-0.1c-0.1,0-0.3,0-0.4,0
				c-0.2,0.1-0.4,0.1-0.5,0.3c-0.3,0.3-0.5,0.7-0.6,1.1c-0.1,0.2-0.1,0.4-0.2,0.6c-0.1,0.3-0.2,0.6-0.3,0.9c-0.1,0.3-0.2,0.7-0.3,1
				c-0.1,0.3-0.2,0.7-0.3,1c-0.1,0.3-0.2,0.6-0.3,0.8c-0.1,0.2-0.1,0.4-0.2,0.6c0,0.1-0.1,0.2-0.1,0.2l-0.1,0.2
				c0,0.1-0.1,0.2-0.2,0.3c-0.1,0.1-0.1,0.2-0.2,0.3c-0.1,0.1-0.2,0.2-0.4,0.3c-0.1,0-0.2,0.1-0.3,0.1c-0.2,0-0.5,0-0.7-0.1
				c-0.6-0.4-0.4-1.4-0.3-1.9c0.1-0.5,0.3-0.9,0.4-1.3c0,0,0,0,0,0c0.2-0.6,0.5-1.1,0.9-1.6c0.2-0.2,0.5-0.5,0.8-0.6
				c0.2-0.1,0.5-0.2,0.7-0.1c0.1,0,0.2-0.1,0.3-0.2c0.1-0.2,0.1-0.4,0.2-0.7c0-0.1,0.1-0.2,0.1-0.3c0.1-0.3,0-0.6-0.3-0.7
				c-0.4-0.1-0.9-0.2-1.7,0c-1.5,0.5-3.3,2.5-3.8,5c-0.6,2.3-1.8,3-2.7,3.1c-1.2,0.2-2.3-0.2-3.1-0.8l-0.1-0.1
				c-0.2-0.1-0.5-0.3-0.8-0.5c-0.2-0.1-0.3-0.4-0.2-0.6l2.6-7.4l1-2.8c0.1-0.4,0.5-0.7,0.9-0.8c0.2,0,0.4,0,0.5,0
				c0.1,0,0.1,0,0.1,0.1c0.3,0.1,0.6,0.6,0.6,1.1c0,0.1,0,0.2-0.1,0.3c-0.2,0.6-0.5,1-1,1.4c-0.4,0.3-0.8,0.6-1.3,0.8
				c-0.1,0.1-0.2,0.2-0.3,0.3l-0.4,1.2c-0.2,0.4,0.3,0.9,0.7,0.7c0.3-0.1,0.4-0.2,0.4-0.2c1.4-0.6,2.8-1.5,3.5-2.9
				c0.4-0.7,0.5-1.6,0.3-2.3c0-0.1-0.1-0.2-0.1-0.4c-0.4-1.5-1.9-2.4-3.4-2.2c-0.4,0-0.8,0.1-1.2,0.4c-0.4,0.3-0.8,0.6-1.1,1.1
				c-0.3,0.4-0.5,0.9-0.7,1.4l-1.2,3.4c-0.1,0.2-0.2,0.3-0.3,0.3c-0.6,0.2-1.3,0.3-1.9,0.2c-0.7-0.1-1.4-0.5-1.8-1.1
				c-0.1-0.1-0.2-0.2-0.3-0.3c-0.1-0.1-0.2-0.1-0.4,0c-0.1,0.1-0.2,0.2-0.2,0.3c-0.1,0.6,0,1.2,0.2,1.7c0.1,0.2,0.2,0.3,0.3,0.5
				c0.1,0.2,0.3,0.3,0.4,0.4c0.7,0.5,1.5,0.7,2.3,0.6c0.2,0,0.5-0.1,0.7-0.1l-1.6,4.7c-0.1,0.2-0.2,0.5-0.4,0.7
				c-0.4,0.4-1,0.6-1.5,0.6c-0.1,0-0.2,0-0.2,0c-0.4,0-0.8-0.2-0.9-0.6c0-0.1,0-0.3,0.1-0.4c0.1-0.2,0.3-0.3,0.9-0.4
				c0,0,0.5,0,1.2,0.2c0.1,0,0.2,0,0.3-0.1c0.1-0.1,0.2-0.3,0.2-0.4c0.1-0.2,0.2-0.5,0.3-0.7c0.1-0.3-0.1-0.6-0.3-0.7
				c-0.4-0.1-0.7-0.2-1.1-0.2c-0.7-0.1-1.3,0-1.9,0.1c-0.4,0.1-0.8,0.4-1.2,0.7c-0.5,0.5-0.8,1.2-0.8,1.9c0,0,0,0,0,0
				c0,0.3,0.1,0.6,0.2,0.8c0.2,0.4,0.5,0.8,0.9,1.1c0.4,0.3,0.8,0.5,1.3,0.6c0.3,0.1,0.6,0.1,0.9,0.1c0.3,0,0.6,0,0.9-0.1
				c0.5-0.1,1-0.3,1.5-0.6c0.2-0.1,0.4-0.3,0.6-0.5c0,0,0.2-0.2,0.3-0.3c0.1-0.1,0.2-0.2,0.2-0.2c0,0,0,0,0,0
				c0.4,0.3,0.7,0.5,0.8,0.6c0,0,0,0,0.1,0.1c0.6,0.5,1.3,1,2.1,1.3c1.2,0.5,2.8,0.5,3.9,0c0.5-0.3,1-0.7,1.4-1.1
				c0.2-0.3,0.6-0.2,0.8,0c0.6,0.6,1.4,0.7,2.1,0.6c0.2,0,0.4-0.1,0.5-0.2c0.3-0.1,0.6-0.3,0.8-0.5c0.2-0.2,0.5-0.2,0.7,0
				c0.2,0.2,0.5,0.4,0.9,0.6c0.3,0.1,0.6,0.2,1,0.2c0.9,0,1.8-0.6,2.4-1c0,0,0.1,0.1,0.1,0.1c0.7,0.7,1.9,1,2.8,0.9
				c0.7-0.1,1.5-0.5,2.1-0.9c0.2-0.2,0.6-0.2,0.8,0.1c0.6,0.8,1.5,1,2.3,0.8c0.2,0,0.4-0.1,0.5-0.2c0.3-0.1,0.6-0.3,0.8-0.5
				c0.2-0.2,0.5-0.2,0.7,0c0.2,0.2,0.5,0.4,0.9,0.6c0.3,0.1,0.6,0.2,1,0.2c1.5,0,3-1.5,3.1-1.6l0,0l0,0c0.4,0.6,0.9,1.1,1.6,1.4
				c0.5,0.2,1.1,0.3,1.7,0.3c0.1,0,0.1,0,0.2,0c1,0,1.9-0.4,2.7-1.1c0.8-0.7,1.1-1.8,0.8-2.9c-0.3-1-1.1-1.6-1.9-2.1
				c-0.1,0-0.1-0.1-0.2-0.1c-0.2-0.2-0.4-0.3-0.5-0.5c-0.3-0.3-0.4-0.7-0.4-1c0-0.2,0.1-0.4,0.3-0.5v0c0.1-0.1,0.2-0.1,0.3-0.1
				c0.3,0,0.5,0,0.7,0.2c0.1,0.1,0.2,0.2,0.3,0.3c0.1,0.1,0.2,0.2,0.3,0.3c0.3,0.2,0.6,0.3,0.9,0.2c0.5-0.1,0.7-0.7,0.6-1.1
				C214.4,262.7,213.2,262,212.2,261.9z"/>
			<path class="st2" d="M226,264c0-0.1,0.1-0.2,0.1-0.3c0.1-0.3,0.1-0.6,0.1-0.9c0-0.2-0.1-0.4-0.3-0.5c-0.1-0.1-0.2-0.1-0.4-0.2
				c-0.1,0-0.2,0-0.2,0c-0.9-0.1-1.4,1-1.4,1l-1.5,3.2c-0.2,0.5-1,0.4-1-0.2c0-0.2,0-0.4,0-0.6c-0.1-1-0.1-1.9-1-2.1
				c-0.9-0.1-1.3,1-1.3,1.1l-1.6,3.9c0-0.4,0-0.7,0-1.1c0-1.3,0-2.8-0.1-3.2c0,0,0-0.1,0-0.1c0,0,0,0,0,0c0-0.2,0-0.4,0-0.5
				c0-0.4-0.2-1.3-0.8-1.5c-0.1,0-0.3-0.1-0.4-0.1c0,0-0.1,0-0.1,0c-1,0.2-1,1.6-1,1.6l0.1,6c0,0.2,0,0.3,0,0.5
				c0.1,0.6,0.3,1.1,0.6,1.4c0.3,0.3,0.8,0.4,1.2,0.4c0.8-0.1,1.2-1,1.4-1.6c0.1-0.3,0.3-0.7,0.4-1c0.1-0.3,0.2-0.6,0.4-0.9
				c0.1-0.3,0.2-0.6,0.3-0.9c0.1-0.2,0.2-0.4,0.3-0.7l0.2,3.2c0,0.9,0.4,1.9,1.5,1.9c0.8,0,1.2-0.7,1.5-1.3c0.1-0.2,1.8-4,2.7-6
				C225.8,264.3,225.9,264.1,226,264z"/>
			<path class="st2" d="M244.3,267c0-0.1,0.1-0.2,0.1-0.4l0.8-2.2c0.1-0.2,0.3-0.4,0.5-0.4c1.1,0,1.9-0.3,2.6-1.4
				c0.2-0.3,0.2-0.7-0.3-0.6c-0.2,0-0.3,0-0.5,0.1c-0.1,0-0.2,0.1-0.3,0.1c-0.7,0-0.9,0-1.1,0c0,0,0,0,0,0c0,0,0,0,0,0
				c-0.1,0-0.1,0-0.2,0c0,0,0,0,0,0c0,0,0,0,0,0c0.3-0.7,0.4-1.2,0.5-1.3c0.2-0.5,0.4-1.7-0.7-1.9c-0.1,0-0.1,0-0.2,0
				c-0.2,0-0.4,0.1-0.6,0.2c-0.5,0.3-0.8,1-0.8,1l-0.7,2l0,0l0,0c-0.5,0-1.3-0.1-1.8-0.2c-0.2,0-0.5,0-0.4,0.4
				c0.2,0.6,0.7,1.1,1.2,1.3c0.3,0.1,0.4,0.4,0.3,0.7l-0.9,2.5c0,0.1,0,0.1-0.1,0.2l-0.1,0.3c-0.4,1-1.5,1.8-2.4,2.2
				c-0.7,0.3-2,0.5-2.8,0.3c-0.5-0.1-0.9-0.4-1.2-0.8c-0.3-0.4-0.3-1-0.2-1.5c0.1-0.6,0.3-1.1,0.5-1.6c0.4-0.9,1-1.6,1.5-2
				c0,0,0,0,0,0c0.3-0.2,0.8-0.4,1.2-0.3c0.4,0.1,0.8,0.5,0.7,0.9c-0.1,0.5-0.5,0.7-0.9,0.9c-0.4,0.1-0.8,0.2-1.2,0.2
				c-0.1,0-0.2,0-0.3,0c-0.1,0-0.2,0-0.3,0.1c-0.1,0.1-0.1,0.2-0.2,0.3c-0.1,0.2-0.2,0.6-0.3,1c-0.1,0.3,0.2,0.7,0.5,0.7
				c0.3,0,0.6,0,1.1-0.1c0.5-0.1,1-0.2,1.4-0.4c0.6-0.2,1-0.6,1.4-1.1c1.1-1.5,0.5-3.9-1.4-4.3c-0.5-0.1-1.1-0.1-1.7,0.1
				c-0.2,0.1-0.5,0.2-0.7,0.3c-0.2,0.1-0.3,0.2-0.5,0.2c-1.5,0.9-2.6,2.5-3.1,4.1c0,0.1,0,0.1-0.1,0.2c-0.1,0.5-0.2,1.1-0.2,1.6
				c0,0,0,0,0,0c0,0,0,0,0,0c0,0.1,0,0.3,0,0.4c-0.4,0.3-0.8,0.5-1.1,0.7c-0.7,0.3-2,0.5-2.8,0.3c-0.5-0.1-0.9-0.4-1.2-0.8
				c-0.3-0.4-0.3-1-0.2-1.5c0.1-0.6,0.3-1.1,0.5-1.6c0.4-0.9,1-1.6,1.5-2c0,0,0,0,0,0c0.3-0.2,0.8-0.4,1.2-0.3
				c0.4,0.1,0.8,0.5,0.7,0.9c-0.1,0.5-0.5,0.7-0.9,0.9c-0.4,0.1-0.8,0.2-1.2,0.2c-0.1,0-0.2,0-0.3,0c-0.1,0-0.2,0-0.3,0.1
				c-0.1,0.1-0.1,0.2-0.2,0.3c-0.1,0.2-0.2,0.6-0.3,1c-0.1,0.3,0.2,0.7,0.5,0.7c0.3,0,0.6,0,1.1-0.1c0.5-0.1,1-0.2,1.4-0.4
				c0.6-0.2,1-0.6,1.4-1.1c1.1-1.5,0.5-3.9-1.4-4.3c-0.5-0.1-1.1-0.1-1.7,0.1c-0.2,0.1-0.5,0.2-0.7,0.3c-0.2,0.1-0.3,0.2-0.5,0.2
				c-1.5,0.9-2.6,2.5-3.1,4.1c0,0.1,0,0.1-0.1,0.2c-0.1,0.5-0.2,1.1-0.2,1.6c0,0,0,0,0,0c0,0,0,0,0,0c0,0.4,0,1.2,0.5,2c0,0,0,0,0,0
				c0,0.1,0.1,0.1,0.1,0.2c0,0,0,0,0,0c0,0,0.1,0.1,0.1,0.1c0,0.1,0.1,0.1,0.1,0.2c0.8,0.9,2,1.3,3.4,1.3c0.9,0,2.2-0.4,3.1-0.9
				c0.3-0.2,0.7-0.4,1-0.7c0,0,0.1,0.1,0.1,0.1c0,0.1,0.1,0.1,0.1,0.2c0.8,0.9,2,1.3,3.4,1.3c0.9,0,2.2-0.4,3.1-0.9
				c0.4-0.2,0.9-0.5,1.2-0.9c0,0,0.1-0.1,0.1-0.1c0,0,0.1-0.1,0.3-0.3c0,0.1,0.1,0.2,0.1,0.3c0.3,0.7,0.9,1.3,1.7,1.6
				c0.8,0.3,1.7,0.3,2.5,0c0.7-0.3,1.3-0.8,1.7-1.5c0.2-0.3,0.3-0.6,0.4-1c0.1-0.3,0.1-0.7-0.1-1.1c-0.1-0.1-0.2-0.3-0.3-0.1
				c-0.2,0.3-0.5,0.6-0.8,0.9c-0.6,0.6-1.8,1.3-2.6,0.6c-0.1-0.1-0.1-0.1-0.2-0.2c-0.3-0.4-0.2-1-0.1-1.5
				C244.1,267.6,244.2,267.3,244.3,267z"/>
		</g>
		<g>
			<g>
				<circle class="st2" cx="208" cy="162.4" r="77.5"/>
				<path class="st1" d="M146.3,138.9c0.7-0.2,1.4-0.4,2-0.8c4.5-3.1,9.1-9.2,13.6-13.1c5.3-4.5,8.9-9.2,15.2-6.5c2.3,1,4,2.8,6.2,4
					c4.6,2.7,10.8,3.9,15,0.7c6.4-4.8,12-15.1,22.2-13c0.1,0,0.3,0.1,0.4,0.1c7.7,2.8,10.5,10,16,14.9c0.1,0.1,0.2,0.2,0.3,0.3
					c4.6,2.9,6.9-1.5,10.3-3.1c3.8-1.8,8.5,0.2,11.5,3.3c3,3,4.9,6.9,7.7,10.1c0.7,0.8,1.5,1.5,2.3,2.1c0.8,0.6,2,0.4,2.7-0.3
					c0.9-0.9,0.5-2.2,0.1-3.2c-0.3-0.7-0.6-1.4-0.9-2c-0.6-1.3-1.3-2.7-2-4c-0.7-1.3-1.5-2.6-2.3-3.8c-0.8-1.2-1.6-2.5-2.5-3.7
					c-0.9-1.2-1.8-2.4-2.7-3.5c-0.9-1.1-1.9-2.2-2.9-3.3c-1-1.1-2.1-2.1-3.1-3.1c-1.1-1-2.2-2-3.3-2.9c-1.1-0.9-2.3-1.8-3.5-2.7
					c-1.2-0.9-2.4-1.7-3.7-2.5c-1.3-0.8-2.6-1.5-3.9-2.2c-1.3-0.7-2.7-1.4-4-2c-1.4-0.6-2.8-1.2-4.2-1.7c-1.4-0.5-2.9-1-4.3-1.5
					c-1.5-0.4-2.9-0.8-4.4-1.2c-1.5-0.4-3-0.7-4.6-0.9c-1.5-0.3-3.1-0.5-4.7-0.6c-0.7-0.1-1.4-0.1-2-0.2c-30.7-2-58,16.4-68.8,43.5
					C143.3,137.7,144.6,139.3,146.3,138.9L146.3,138.9z"/>
			</g>
			<g>
				<path class="st1" d="M186.9,185.8h-24.7c-1.4,0-2.1-1.7-1.1-2.7l6.7-6.9c2.4-2.5,4.4-4.7,5.7-6.5c1.4-1.8,2.4-3.3,3.1-4.5
					c0.7-1.2,1.1-2.2,1.3-3c0.2-0.8,0.2-1.4,0.2-1.9c0-0.6-0.1-1.1-0.3-1.6c-0.2-0.5-0.5-1-0.8-1.4c-0.4-0.4-0.8-0.7-1.3-1
					c-0.5-0.2-1.1-0.4-1.8-0.4c-1.3,0-2.4,0.4-3.1,1.3c-0.7,0.9-1.1,1.9-1.1,3.2v0c0,0.9-0.7,1.6-1.6,1.6l-7.2,0
					c-0.9,0-1.7-0.8-1.6-1.7c0.1-1.5,0.5-2.9,1-4.2c0.7-1.8,1.7-3.3,3-4.6c1.3-1.3,2.8-2.3,4.6-3c1.8-0.7,3.7-1,5.8-1
					c2.1,0,4,0.3,5.8,1c1.8,0.7,3.3,1.6,4.6,2.8c1.3,1.2,2.3,2.6,3,4.2c0.7,1.6,1.1,3.4,1.1,5.3c0,2-0.4,3.9-1.3,5.7
					c-0.9,1.7-2.3,3.5-4.2,5.3l-3.3,3.1c-1,1-0.4,2.7,1.1,2.7h6.5c0.9,0,1.6,0.7,1.6,1.6v5.1C188.4,185.1,187.7,185.8,186.9,185.8z"
					/>
				<path class="st1" d="M220.3,170.7h1.3c0.9,0,1.6,0.7,1.6,1.6v4.3c0,0.9-0.7,1.6-1.6,1.6h-1.3c-0.9,0-1.6,0.7-1.6,1.6v4.5
					c0,0.9-0.7,1.6-1.6,1.6h-5.8c-0.9,0-1.6-0.7-1.6-1.6v-4.5c0-0.9-0.7-1.6-1.6-1.6h-14.9c-0.9,0-1.6-0.7-1.6-1.6v-4.2
					c0-0.3,0.1-0.6,0.2-0.8l13.6-22.3c0.3-0.5,0.8-0.8,1.3-0.8h10.3c0.9,0,1.6,0.7,1.6,1.6v19.1C218.7,170,219.4,170.7,220.3,170.7z
					 M209.7,169.1v-7.3c0-1.6-2.1-2.2-2.9-0.8l-4.2,7.3c-0.6,1.1,0.1,2.4,1.4,2.4h4.2C209,170.7,209.7,170,209.7,169.1z"/>
				<path class="st1" d="M225.2,167.1c0-3,0.4-5.7,1.2-8.1c0.8-2.4,1.9-4.5,3.3-6.2c1.4-1.7,3.1-3,5-4c1.9-0.9,4.1-1.4,6.4-1.4
					c2.3,0,4.4,0.5,6.4,1.4c1.9,0.9,3.6,2.3,5,4c1.4,1.7,2.5,3.8,3.2,6.2c0.8,2.4,1.2,5.1,1.2,8.1c0,3-0.4,5.7-1.2,8.1
					c-0.8,2.4-1.9,4.5-3.2,6.2c-1.4,1.7-3.1,3.1-5,4c-1.9,0.9-4.1,1.4-6.4,1.4c-2.3,0-4.5-0.5-6.4-1.4c-1.9-0.9-3.6-2.3-5-4
					c-1.4-1.7-2.5-3.8-3.3-6.2C225.5,172.8,225.2,170.1,225.2,167.1z M234.8,167.1c0,1.6,0.1,3.2,0.4,4.5c0.3,1.4,0.7,2.5,1.3,3.5
					c0.5,1,1.2,1.8,2,2.3c0.8,0.5,1.6,0.8,2.6,0.8c0.9,0,1.8-0.3,2.5-0.8c0.8-0.5,1.4-1.3,2-2.3c0.5-1,0.9-2.2,1.2-3.5
					c0.3-1.4,0.4-2.9,0.4-4.5c0-1.6-0.1-3.1-0.4-4.5c-0.3-1.4-0.7-2.5-1.2-3.5c-0.5-1-1.2-1.7-2-2.3c-0.8-0.5-1.6-0.8-2.5-0.8
					c-1,0-1.8,0.3-2.6,0.8c-0.8,0.5-1.4,1.3-2,2.3c-0.5,1-1,2.1-1.3,3.5C234.9,164,234.8,165.5,234.8,167.1z"/>
			</g>
			<path class="st3" d="M233.9,204.7h-51.8c-1.1,0-2.1-0.9-2.1-2.1c0-1.1,0.9-2.1,2.1-2.1h51.8c1.1,0,2.1,0.9,2.1,2.1
				C235.9,203.8,235,204.7,233.9,204.7z"/>
			<path class="st3" d="M226.5,214.1h-37c-1.1,0-2.1-0.9-2.1-2.1c0-1.1,0.9-2.1,2.1-2.1h37c1.1,0,2.1,0.9,2.1,2.1
				C228.6,213.2,227.6,214.1,226.5,214.1z"/>
		</g>
	</g>
</g>
<g id="레이어_3" class="st4">
	<g class="st5">
		<g>
			<g>
				<path class="st6" d="M243.2,117.7C66.4,42.1,0,143.3,0,143.3S167.5,150.2,243.2,117.7z"/>
				<path class="st7" d="M243.2,117.7C167.5,150.2,0,143.3,0,143.3s33.8,46.7,112.2,50.5c78.4,3.8,132.9-75.3,132.9-75.3
					C244.5,118.2,243.8,117.9,243.2,117.7z"/>
			</g>
			<g>
				<g>
					<path class="st7" d="M186.1,45.1C143,24,85.2,44.6,79.2,46.9c11.3,3.3,121.8,36.5,165.3,69.6C241.6,106.7,227,65.2,186.1,45.1z
						"/>
					<path class="st8" d="M79.2,46.9c-0.3,0.1-0.5,0.2-0.5,0.2s42.9,92.4,166.4,71.5c0,0-0.2-0.7-0.6-2.1
						C201,83.3,90.6,50.2,79.2,46.9z"/>
				</g>
				<g>
					<path class="st7" d="M222.8,114.7c0,0,79.6,136.2,193.2,48.6C416,163.3,307.8,157.6,222.8,114.7z"/>
					<path class="st6" d="M222.8,114.7c85,42.9,193.2,48.6,193.2,48.6S389.2,92.8,222.8,114.7z"/>
				</g>
				<g>
					<path class="st7" d="M300,61.1c-62.2,11.6-75.9,50.8-76.7,53.6c73.7-13.5,177.6-29.6,188.3-31.2C405.1,79,359.7,49.9,300,61.1z
						"/>
					<path class="st8" d="M411.5,83.4c-10.7,1.7-114.6,17.7-188.3,31.2c0,0.1,0,0.2,0,0.2c115.2,57.4,189.1-30.8,189.1-30.8
						S412,83.7,411.5,83.4z"/>
				</g>
			</g>
		</g>
		<g>
			<path class="st9" d="M248.8,189.9c-19.9-21.9-20.9-57.7-19.9-75.8c0.3-6.1,5.8-11.8,11.5-12c16.9-0.6,50.3,1.3,70.2,23.2
				s20.9,57.7,19.9,75.8c-0.3,6.1-5.8,11.8-11.5,12C302.1,213.7,268.7,211.7,248.8,189.9z"/>
			<path class="st10" d="M277.1,160.4c-11.6-12.7-20.7-25.1-25.6-32.2c-2.6-3.7-1.9-4.4,1.5-1.6c6.5,5.4,17.8,15.4,29.4,28.2
				c11.6,12.7,20.7,25.1,25.6,32.2c2.6,3.7,1.9,4.4-1.5,1.6C300,183.1,288.7,173.1,277.1,160.4z"/>
			<path class="st10" d="M312.4,168.7c-3.6-11.8-14.3-36.6-42.9-47.3c-1-0.4-2,1.2-1.2,1.8c8.5,6.9,26.4,22.7,42.4,46.7
				C311.3,170.7,312.8,169.7,312.4,168.7z"/>
			<path class="st10" d="M289.9,192.2c-10.9-4.1-33.8-16.2-43.1-47.1c-0.3-1.1,1.2-2.1,1.8-1.2c6.2,9.3,20.5,28.8,42.5,46.5
				C291.9,191,290.9,192.5,289.9,192.2z"/>
		</g>
		<g>
			<path class="st11" d="M132.2,140.1c32.6-31.9,79.5-37.7,102.9-38.4c8-0.3,14.3,7,13.4,15.5c-2.6,24.8-11.9,74.1-44.5,106
				s-79.5,37.7-102.9,38.4c-8,0.3-14.3-7-13.4-15.5C90.4,221.4,99.7,172,132.2,140.1z"/>
			<path class="st12" d="M165,178.1c19-18.6,37-33.4,47.2-41.5c5.3-4.2,6.1-3.3,1.8,2c-8.4,10.2-23.7,28.1-42.7,46.7
				s-37,33.4-47.2,41.5c-5.3,4.2-6.1,3.3-1.8-2C130.7,214.5,146,196.7,165,178.1z"/>
			<path class="st12" d="M147,231.1c16.1-6.7,50.7-25.5,70.5-68.8c0.7-1.5-1.2-2.8-2.2-1.5c-10.7,13.4-35,41.6-69.5,67.9
				C144.6,229.6,145.6,231.7,147,231.1z"/>
			<path class="st12" d="M120.9,200.9c7.6-16.5,28.1-51.7,70.2-69.1c1.4-0.6,2.5,1.5,1.3,2.4c-13.4,10.2-41.8,33.7-69.3,68.2
				C122.1,203.6,120.2,202.3,120.9,200.9z"/>
		</g>
	</g>
</g>
<g id="레이어_2" class="st4">
	<g class="st5">
		<path class="st13" d="M278,178.4c0.5,0.2,1,0.5,1.2,1l17.8,32.8c0.2,0.3,0.3,0.7,0.3,1.1v27.3c0,0.4-0.1,0.8-0.3,1.1l-7,12.3h19.9
			l24.2-54.8c0.7-1.5,2.7-1.7,3.7-0.5l-19.6-28L278,178.4z"/>
		<g>
			<path class="st14" d="M252.5,165.5c0,0,22.1,52,89.3,29.1l-29.3-39.9L252.5,165.5z"/>
		</g>
		<path class="st14" d="M279.3,200.4L279.3,200.4c-2.1-1-3.1-3.5-2.1-5.6l1.7-3.8c1-2.1,3.5-3,5.6-2.1l0,0c2.1,1,3,3.5,2.1,5.6
			l-1.7,3.8C283.9,200.4,281.4,201.4,279.3,200.4z"/>
		<path class="st14" d="M298.6,206.1L298.6,206.1c-2.3-0.4-3.8-2.6-3.3-4.9l0.8-4.1c0.4-2.3,2.6-3.8,4.9-3.3l0,0
			c2.3,0.4,3.8,2.6,3.3,4.9l-0.8,4.1C303.1,205.1,300.9,206.6,298.6,206.1z"/>
		<path class="st14" d="M318.9,207.2L318.9,207.2c-2.3,0.5-4.5-1-4.9-3.3l-0.8-4.1c-0.5-2.3,1-4.5,3.3-4.9l0,0
			c2.3-0.5,4.5,1,4.9,3.3l0.8,4.1C322.7,204.5,321.2,206.7,318.9,207.2z"/>
		<path class="st15" d="M279.9,271.7c-0.8,1.5,0.2,3.3,1.9,3.3h17.4c0.9,0,1.7-0.5,2-1.3l8.7-19.7H290L279.9,271.7z"/>
		<path class="st15" d="M273.1,78.8l22.7-18.3h-64.4l24.9,19.1C261.6,83,268.3,82.7,273.1,78.8z"/>
		<path class="st16" d="M18.5,92.8c-3.2,3-3.5,8-0.8,11.5l5,6.3c2.2,2.7,5.4,4.3,8.9,4.3h30.6L31.7,80L18.5,92.8z"/>
		<path class="st15" d="M146.1,272c-0.6,1.4,0.5,3,2.1,3h20c1.1,0,2-0.8,2.2-1.8l3.7-20.4l-18.7-4.5L146.1,272z"/>
		<path class="st15" d="M199.5,272.6c-0.1,1.3,0.9,2.4,2.2,2.4h17.8c1.3,0,2.3-1.1,2.2-2.4l-2.2-25.7l-18,2.4L199.5,272.6z"/>
		<path class="st15" d="M362.5,254h16.7v18.9c0,1.2-1,2.2-2.2,2.2h-16.9c-1.6,0-2.7-1.7-2-3.2L362.5,254"/>
		<path class="st15" d="M400.1,76.5c0-8.9-7.2-16-16-16h0h-54.8v54.4c0,4.7,2.3,9.1,6.2,11.8l43.7,29.6V74.4c0-0.5,0.4-1,1-1h2.5
			c4,0,7.3,3.3,7.3,7.3v84.9l10.1-18.3V76.5z"/>
		<path class="st15" d="M173.6,91.5l-10.9-10.9c-5.6-5.6-5.6-14.6,0-20.1l0.6-0.6l-48.6-6.4c-0.5-0.1-0.9-0.3-1.3-0.6
			c-0.9-0.9-0.9-2.3,0-3.1l3.1-3.1c0.4-0.4,0.6-1,0.6-1.6V32.7c0-0.6-0.2-1.1-0.6-1.6l-3.6-3.6c-0.9-0.9-2.3-0.9-3.1,0l-8.7,8.7
			c-0.9,0.9-2.3,0.9-3.1,0L84.6,22.9c-0.4-0.4-1-0.6-1.6-0.6H47.5c-2.2,0-3.1,2.9-1.2,4.1L69,40.3c1.2,0.8,1.4,2.5,0.4,3.5L31.7,80
			l30.6,34.8h29.7c0.7,0,1.4,0.3,1.8,0.9l32,43.7l47.9-47.9C179.2,106,179.2,97,173.6,91.5z"/>
		<path class="st15" d="M250.4,107.2l-24.7-19c-5.6-3.7-13.1-3-17.9,1.8l-1.5,1.5c-2.7,2.7-4.2,6.3-4.2,10.1v32
			c0,4.7,2.3,9,6.1,11.7L228,159c4.7,3.3,6.9,3.4,11.7,0.3l10.6-6.8c4.1-2.6,6.5-7.1,6.5-12v-21.4
			C256.8,114.3,254.4,109.8,250.4,107.2z"/>
		<path class="st17" d="M250.4,107.2l-24.7-19c-5.6-3.7-13.1-3-17.9,1.8l-1.5,1.5c-2.7,2.7-4.2,6.3-4.2,10.1v32
			c0,4.7,2.3,9,6.1,11.7L228,159c4.7,3.3,6.9,3.4,11.7,0.3l10.6-6.8c4.1-2.6,6.5-7.1,6.5-12v-21.4
			C256.8,114.3,254.4,109.8,250.4,107.2z"/>
		<path class="st17" d="M276.8,178.3l-53.4,11.4l54.5-11.3C277.6,178.3,277.2,178.2,276.8,178.3z"/>
		<path class="st17" d="M250.4,107.2l-24.7-19c-5.6-3.7-13.1-3-17.9,1.8l-1.5,1.5c-2.7,2.7-4.2,6.3-4.2,10.1v32
			c0,4.7,2.3,9,6.1,11.7L228,159c4.7,3.3,6.9,3.4,11.7,0.3l10.6-6.8c4.1-2.6,6.5-7.1,6.5-12v-21.4
			C256.8,114.3,254.4,109.8,250.4,107.2z"/>
		<path class="st16" d="M335.5,126.7c-3.9-2.6-6.2-7.1-6.2-11.8V60.5h-33.5l-22.7,18.3c-4.8,3.9-11.6,4.2-16.8,0.8l-24.9-19.1h-63.1
			c-0.1,0-0.2,0-0.3,0l-4.7-0.6l-0.6,0.6c-5.6,5.6-5.6,14.6,0,20.1l10.9,10.9c5.6,5.6,5.6,14.6,0,20.1l-47.9,47.9l27.6,37.7
			c0.1,0.2,0.2,0.3,0.3,0.5l29.2,11.4c1-0.5,2.5-0.2,3.1,1l15.7,35.2c0.2,0.3,0.2,0.7,0.2,1.1l-0.3,3l18-2.4l-4.6-53.6
			c-0.1-1.1,0.7-2.1,1.8-2.4l6.7-1.3l53.4-11.4c0.4-0.1,0.8,0,1.1,0.1l40.3-7.8l19.6,28c0,0.1,0.1,0.1,0.1,0.1l24.1,34.7
			c0.3,0.4,0.4,0.8,0.4,1.3V254h16.7v-97.6L335.5,126.7z M256.8,140.5c0,4.8-2.5,9.4-6.5,12l-10.6,6.8c-4.8,3.1-7,3-11.7-0.3
			l-19.8-13.7c-3.8-2.7-6.1-7-6.1-11.7v-32c0-3.8,1.5-7.4,4.2-10.1l1.5-1.5c4.8-4.8,12.3-5.5,17.9-1.8l24.7,19
			c4,2.6,6.4,7.1,6.4,11.9V140.5z"/>
		<path class="st13" d="M182.8,209l-29.2-11.4c0.1,0.2,0.1,0.5,0.2,0.7l2,48.2c0,0.3,0,0.6-0.1,0.9l-0.3,0.8l18.7,4.5l7.7-42.2
			C181.8,209.8,182.3,209.3,182.8,209z"/>
	</g>
</g>
</svg>
