<?xml version="1.0" encoding="utf-8"?>
<!-- Generator: Adobe Illustrator 22.0.1, SVG Export Plug-In . SVG Version: 6.00 Build 0)  -->
<svg version="1.1" xmlns="http://www.w3.org/2000/svg" xmlns:xlink="http://www.w3.org/1999/xlink" x="0px" y="0px"
	 viewBox="0 0 303.4 303.4" style="enable-background:new 0 0 303.4 303.4;" xml:space="preserve">
<style type="text/css">
	.st0{display:none;}
	.st1{display:inline;fill:#33508D;}
	.st2{display:inline;}
	.st3{fill:#FAF8F5;}
	.st4{fill:#33508D;}
	.st5{fill:#EACD4D;}
	.st6{fill:#708042;}
	.st7{fill:#C56A36;}
	.st8{fill:#ACC5E0;}
	.st9{fill:#CCA79C;}
	.st10{fill:none;stroke:#33508D;stroke-width:23.1665;stroke-miterlimit:10;}
</style>
<g id="레이어_1" class="st0">
	<g id="레이어_1_1_">
		<path class="st1" d="M247,65.8H27.7c-3.1,0-5.5,2.7-5.2,5.7l20.3,219.4c0.3,2.6,2.5,4.6,5.2,4.6h178.7c2.7,0,4.9-2,5.2-4.6
			l20.3-219.4C252.5,68.4,250.1,65.8,247,65.8z M137.4,246.5c-43.1,0-78.1-35-78.1-78.1s35-78.1,78.1-78.1s78.1,35,78.1,78.1
			C215.4,211.5,180.5,246.5,137.4,246.5z"/>
		<path class="st1" d="M260.5,55.4H14.2c-2.1,0-3.9-1.7-3.9-3.9V10.7c0-2.1,1.7-3.9,3.9-3.9h246.3c2.1,0,3.9,1.7,3.9,3.9v40.9
			C264.4,53.7,262.6,55.4,260.5,55.4z"/>
		<g class="st2">
			<path class="st3" d="M140.8,269.1c-0.6-0.1-1.1,0-1.6,0.2c-0.8,0.4-1.1,1.2-1.1,1.9c0,0.9,0.6,1.8,1.5,2.4l0.1,0.1
				c0.1,0.1,0.2,0.1,0.3,0.2c0.2,0.1,0.5,0.4,0.5,0.7c0.1,0.3-0.1,0.6-0.3,0.9c-0.4,0.4-1.2,0.4-1.7,0.1c-0.3-0.2-0.5-0.4-0.6-0.8
				c-0.2-0.6-0.4-1-0.7-1.1c-0.2-0.1-0.5-0.1-0.7,0s-0.4,0.3-0.4,0.6c0,0.1,0,0.1,0,0.2c-0.5,1.2-1.1,1.9-1.8,1.6
				c-0.1-0.1-0.2-0.1-0.3-0.3c-0.2-0.4,0-0.8,0.1-1.2c0.1-0.2,0.2-0.4,0.2-0.7c0.2-0.5,0.3-0.9,0.5-1.4c0.1-0.4,0.3-0.7,0.4-1.1
				c0.1-0.2,0.1-0.4,0.2-0.5c0-0.1,0.1-0.2,0.1-0.4l0,0c0-0.1,0-0.2,0-0.2c0-0.1,0-0.1,0-0.2s0-0.1-0.1-0.2c0-0.1,0-0.1-0.1-0.2
				l-0.1-0.1l-0.1-0.1c-0.1,0-0.1-0.1-0.2-0.1c-0.1,0-0.1,0-0.2,0c-0.1,0-0.3,0-0.3,0c-0.2,0-0.3,0.1-0.4,0.2
				c-0.3,0.2-0.4,0.6-0.5,0.9c-0.1,0.2-0.1,0.3-0.2,0.5c-0.1,0.2-0.2,0.5-0.3,0.7c-0.1,0.3-0.2,0.5-0.3,0.8s-0.2,0.5-0.3,0.8
				c-0.1,0.2-0.2,0.5-0.2,0.7c-0.1,0.2-0.1,0.3-0.2,0.5c0,0.1,0,0.1-0.1,0.2v0.1c0,0.1-0.1,0.2-0.2,0.3c-0.1,0.1-0.1,0.2-0.2,0.2
				c-0.1,0.1-0.2,0.2-0.3,0.3c-0.1,0-0.1,0.1-0.2,0.1c-0.2,0-0.4,0-0.5-0.1c-0.5-0.4-0.3-1.1-0.3-1.6c0-0.3,0.1-0.5,0.2-0.7
				c0.1-0.3,0.2-0.6,0.4-0.9c0.1-0.3,0.3-0.6,0.5-0.8c0.2-0.2,0.4-0.4,0.6-0.5c0.2-0.1,0.4-0.1,0.6-0.1c0.1,0,0.2-0.1,0.2-0.2
				s0.1-0.3,0.2-0.6c0.1-0.2,0.1-0.3,0.2-0.4c0-0.1,0-0.2-0.1-0.3c-0.3-0.2-0.8-0.3-1.7-0.1c-1.3,0.4-2.8,2.2-3.2,4.4
				c-0.1,0.6-0.6,2.2-1.7,2.3c-1.3,0.1-0.4-2-0.4-2s2.5-7.2,2.7-7.6c0.2-0.4,0.3-1.4-0.6-1.6c-0.9-0.1-1.3,1-1.3,1l-3,8.6
				c-0.5,1.2-1.1,1.9-1.8,1.6c-0.1-0.1-0.2-0.1-0.3-0.3c-0.2-0.4,0-0.8,0.1-1.2c0.1-0.2,0.2-0.4,0.2-0.7c0.2-0.5,0.3-0.9,0.5-1.4
				c0.1-0.4,0.3-0.7,0.4-1.1c0.1-0.2,0.1-0.4,0.2-0.5c0-0.1,0.1-0.2,0.1-0.4l0,0c0-0.1,0-0.2,0-0.2c0-0.1,0-0.1,0-0.2s0-0.1-0.1-0.2
				c0-0.1,0-0.1-0.1-0.2l-0.1-0.1l-0.1-0.1c-0.1,0-0.1-0.1-0.2-0.1s-0.1,0-0.2,0s-0.3,0-0.3,0c-0.2,0-0.3,0.1-0.4,0.2
				c-0.3,0.2-0.4,0.6-0.5,0.9c-0.1,0.2-0.1,0.3-0.2,0.5s-0.2,0.5-0.3,0.7c-0.1,0.3-0.2,0.5-0.3,0.8c-0.1,0.3-0.2,0.5-0.3,0.8
				c-0.1,0.2-0.2,0.5-0.2,0.7c-0.1,0.2-0.1,0.3-0.2,0.5c0,0.1,0,0.1-0.1,0.2v0.1c0,0.1-0.1,0.2-0.2,0.3c-0.1,0.1-0.1,0.2-0.2,0.2
				c-0.1,0.1-0.2,0.2-0.3,0.3c-0.1,0-0.1,0.1-0.2,0.1c-0.2,0-0.4,0-0.5-0.1c-0.5-0.4-0.3-1.1-0.3-1.6c0-0.3,0.1-0.5,0.2-0.7
				c0.1-0.3,0.2-0.6,0.4-0.9c0.1-0.3,0.3-0.6,0.5-0.8c0.2-0.2,0.4-0.4,0.6-0.5s0.4-0.1,0.6-0.1c0.1,0,0.2-0.1,0.2-0.2
				s0.1-0.3,0.2-0.6c0.1-0.2,0.1-0.3,0.2-0.4c0-0.1,0-0.2-0.1-0.3c-0.3-0.2-0.8-0.3-1.7-0.1c-1.3,0.4-2.7,2.1-3.2,4.2
				c-0.5,1.9-1.5,2.5-2.2,2.6c-1,0.1-1.9-0.2-2.6-0.7l-0.1-0.1c-0.2-0.2-0.5-0.4-1-0.6l2.3-6.5l0.8-2.3c0.1-0.3,0.4-0.6,0.7-0.6
				c0.1,0,0.3,0,0.4,0h0.1c0.2,0.1,0.5,0.5,0.5,0.9c0,0.1,0,0.2,0,0.3c-0.1,0.5-0.4,0.8-0.8,1.1c-0.3,0.3-0.8,0.5-1.1,0.7
				c-0.1,0-0.1,0.1-0.1,0.1l-0.6,1.5c-0.1,0.2,0.1,0.4,0.3,0.3c0.4-0.1,0.8-0.3,0.8-0.3c1.2-0.5,2.3-1.3,2.9-2.5
				c0.3-0.6,0.4-1.3,0.3-2c0-0.1,0-0.2-0.1-0.3c-0.4-1.2-1.6-2-2.8-1.9c-0.4,0-0.7,0.1-1,0.3c-0.4,0.2-0.7,0.5-1,0.9
				c-0.2,0.3-0.4,0.7-0.6,1.2l-1.1,3.1c-0.6,0.2-1.2,0.4-1.8,0.3c-0.6-0.1-1.1-0.4-1.5-0.9c-0.1-0.1-0.1-0.2-0.2-0.2
				c-0.1-0.1-0.2-0.1-0.3,0c-0.1,0.1-0.1,0.2-0.2,0.3c-0.1,0.5,0,1,0.2,1.5c0.1,0.1,0.2,0.3,0.3,0.4c0.1,0.1,0.2,0.2,0.4,0.3
				c0.5,0.4,1.3,0.6,1.9,0.5c0.2,0,0.4,0,0.6-0.1l-1.4,3.9c-0.1,0.2-0.2,0.4-0.4,0.6c-0.3,0.3-0.8,0.5-1.2,0.5c-0.1,0-0.1,0-0.2,0
				c-0.3,0-0.7-0.2-0.8-0.5c0-0.1,0-0.3,0-0.4c0.1-0.1,0.3-0.3,0.7-0.3c0,0,0.5,0,1,0.2c0.1,0,0.2,0,0.3-0.1
				c0.1-0.1,0.1-0.2,0.2-0.4c0.1-0.2,0.2-0.6,0.3-0.8c0-0.1,0-0.2-0.1-0.3c-0.4-0.1-0.8-0.2-1.2-0.3c-0.6-0.1-1.1,0-1.6,0.1
				c-0.4,0.1-0.7,0.3-1,0.5c-0.5,0.4-0.7,1-0.7,1.6l0,0c0,0.2,0.1,0.5,0.2,0.7c0.2,0.3,0.4,0.7,0.7,0.9c0.3,0.3,0.7,0.4,1.1,0.5
				c0.3,0.1,0.5,0.1,0.8,0.1s0.5,0,0.8,0c0.4-0.1,0.8-0.2,1.2-0.5c0.2-0.1,0.3-0.2,0.5-0.4c0,0,0.1-0.1,0.2-0.2s0.1-0.1,0.2-0.2l0,0
				c0.3,0.3,0.5,0.4,0.6,0.5l0,0c0.5,0.5,1.1,0.9,1.7,1.1c1,0.4,2.3,0.5,3.3,0c0.6-0.3,1.1-0.8,1.5-1.4c0.5,0.9,1.3,1.1,2.1,1
				c0.2,0,0.3-0.1,0.4-0.1c0.4-0.2,0.8-0.5,1-0.8c0,0,0.4,0.5,1.1,0.8c0.2,0.1,0.5,0.2,0.9,0.2c0.7,0,1.5-0.5,2-0.9l0.1,0.1
				c0.6,0.6,1.6,0.9,2.4,0.7c0.8-0.1,1.6-0.6,2.1-1.1c0.4,1.1,1.3,1.3,2.2,1.1c0.2,0,0.3-0.1,0.4-0.1c0.4-0.2,0.8-0.5,1-0.8
				c0,0,0.4,0.5,1.1,0.8c0.2,0.1,0.5,0.2,0.9,0.2c1.2,0,2.5-1.3,2.6-1.4l0,0l0,0c0.3,0.5,0.8,0.9,1.4,1.2c0.4,0.2,0.9,0.3,1.4,0.3
				c0.1,0,0.1,0,0.2,0c0.8,0,1.6-0.4,2.2-0.9c0.7-0.6,0.9-1.5,0.7-2.4c-0.2-0.8-0.9-1.3-1.6-1.8c-0.1,0-0.1-0.1-0.2-0.1
				c-0.2-0.1-0.3-0.3-0.5-0.4c-0.2-0.3-0.4-0.6-0.3-0.8c0-0.2,0.1-0.3,0.3-0.4l0,0c0.1,0,0.2-0.1,0.3-0.1c0.2,0,0.4,0,0.6,0.2
				c0.1,0.1,0.2,0.2,0.3,0.3c0.1,0.1,0.2,0.2,0.3,0.3c0.2,0.2,0.5,0.2,0.7,0.2c0.4-0.1,0.6-0.5,0.5-0.9
				C142.7,269.8,141.7,269.2,140.8,269.1z"/>
			<path class="st3" d="M152.4,270.9c0-0.1,0.1-0.2,0.1-0.3c0.1-0.2,0.1-0.5,0-0.8c0-0.2-0.1-0.3-0.3-0.4c-0.1-0.1-0.2-0.1-0.3-0.2
				c-0.1,0-0.1,0-0.2,0c-0.7-0.1-1.1,0.8-1.1,0.8l-2.1,4.5c0-0.8,0-1.9-0.1-2.4c0-0.8-0.1-1.6-0.9-1.7c-0.7-0.1-1.1,0.8-1.1,0.9
				l-1.3,3.3c0-0.3,0-0.6,0-0.9c0-1.1,0-2.3,0-2.6c0,0,0,0,0-0.1l0,0c0-0.2,0-0.3,0-0.4c0-0.4-0.1-1.1-0.6-1.3c-0.1,0-0.2-0.1-0.4,0
				c0,0,0,0-0.1,0c-0.9,0.1-0.8,1.3-0.8,1.3l0.1,5.1c0,0.1,0,0.3,0,0.4c0.1,0.5,0.2,0.9,0.5,1.2c0.3,0.3,0.7,0.4,1,0.3
				c0.6-0.1,1-0.8,1.2-1.4c0.1-0.3,0.2-0.6,0.3-0.8c0.1-0.3,0.2-0.5,0.3-0.8c0.1-0.2,0.2-0.5,0.3-0.7s0.1-0.4,0.2-0.5l0.1,2.7
				c0,0.8,0.4,1.6,1.3,1.6c0.6,0,1-0.6,1.3-1.1c0.1-0.2,1.5-3.4,2.3-5C152.3,271.2,152.3,271,152.4,270.9z"/>
			<path class="st3" d="M167.7,273.4c0-0.1,0.1-0.2,0.1-0.3l0.8-2.2c1.1,0,1.9-0.1,2.5-1.2c0.1-0.2,0.1-0.6-0.2-0.5
				c-0.1,0-0.1,0-0.2,0c-0.4,0.1-0.8,0.1-1.2,0.1c-0.1,0-0.1,0-0.2,0l0,0l0,0c0,0-0.1,0-0.2,0l0,0l0,0c0.2-0.6,0.4-1,0.4-1.1
				c0.2-0.4,0.3-1.4-0.6-1.6h-0.1c-0.2,0-0.4,0.1-0.5,0.1c-0.4,0.3-0.6,0.8-0.6,0.8l-0.6,1.7l0,0l0,0c-0.4,0-1.1-0.1-1.5-0.1
				c-0.2,0-0.5,0-0.4,0.3c0.2,0.7,0.8,1.1,1.4,1.2l-0.9,2.5v0.1l-0.1,0.2c-0.4,0.8-1.3,1.5-2,1.8c-0.6,0.3-1.7,0.4-2.3,0.3
				c-0.4-0.1-0.8-0.3-1-0.6c-0.2-0.4-0.3-0.8-0.2-1.2c0.1-0.5,0.2-0.9,0.4-1.3c0.4-0.8,0.8-1.4,1.3-1.6l0,0c0.3-0.2,0.7-0.3,1-0.2
				c0.4,0.1,0.6,0.4,0.6,0.8c-0.1,0.4-0.4,0.6-0.8,0.7c-0.3,0.1-0.7,0.2-1,0.2c-0.1,0-0.2,0-0.2,0c-0.1,0-0.2,0-0.2,0.1
				c-0.1,0.1-0.1,0.1-0.1,0.2c-0.1,0.2-0.3,0.7-0.3,1.1c0,0.1,0.1,0.3,0.2,0.3c0.4,0,0.7,0,1.2-0.1c0.4-0.1,0.9-0.2,1.2-0.3
				c0.5-0.2,0.9-0.5,1.2-0.9c0.9-1.3,0.4-3.3-1.2-3.6c-0.5-0.1-0.9-0.1-1.4,0.1c-0.2,0.1-0.4,0.1-0.6,0.2c-0.1,0.1-0.3,0.1-0.4,0.2
				c-1.2,0.7-2.1,2.1-2.6,3.4c0,0.1,0,0.1,0,0.2c-0.1,0.4-0.2,0.9-0.2,1.3l0,0l0,0c0,0.1,0,0.2,0,0.4c-0.3,0.2-0.7,0.4-1,0.6
				c-0.6,0.3-1.7,0.4-2.3,0.3c-0.4-0.1-0.8-0.3-1-0.6c-0.2-0.4-0.3-0.8-0.2-1.2c0.1-0.5,0.2-0.9,0.4-1.3c0.4-0.8,0.8-1.4,1.3-1.6
				l0,0c0.3-0.2,0.7-0.3,1-0.2c0.4,0.1,0.6,0.4,0.6,0.8c-0.1,0.4-0.4,0.6-0.8,0.7c-0.3,0.1-0.7,0.2-1,0.2c-0.1,0-0.2,0-0.2,0
				c-0.1,0-0.2,0-0.2,0.1c-0.1,0.1-0.1,0.1-0.1,0.2c-0.1,0.2-0.3,0.7-0.3,1.1c0,0.1,0.1,0.3,0.2,0.3c0.4,0,0.7,0,1.2-0.1
				c0.4-0.1,0.9-0.2,1.2-0.3c0.5-0.2,0.9-0.5,1.2-0.9c0.9-1.3,0.4-3.3-1.2-3.6c-0.5-0.1-0.9-0.1-1.4,0.1c-0.2,0.1-0.4,0.1-0.6,0.2
				c-0.1,0.1-0.3,0.1-0.4,0.2c-1.2,0.7-2.1,2.1-2.6,3.4c0,0.1,0,0.1,0,0.2c-0.1,0.4-0.2,0.9-0.2,1.3l0,0l0,0c0,0.3,0,1,0.4,1.6l0,0
				l0.1,0.1l0,0c0,0,0,0.1,0.1,0.1l0.1,0.1c0.7,0.8,1.7,1.1,2.9,1.1c0.8,0,1.8-0.3,2.6-0.7c0.3-0.2,0.6-0.4,0.8-0.6
				c0,0,0,0.1,0.1,0.1l0.1,0.1c0.7,0.8,1.7,1.1,2.9,1.1c0.8,0,1.8-0.3,2.6-0.7c0.3-0.2,0.7-0.4,1-0.7l0.1-0.1c0,0,0.1-0.1,0.3-0.3
				c0,0.1,0.1,0.2,0.1,0.3c0.3,0.6,0.8,1.1,1.4,1.3c0.7,0.3,1.4,0.2,2.1,0c0.6-0.3,1.1-0.7,1.4-1.2c0.2-0.3,0.3-0.5,0.3-0.8
				c0.1-0.3,0.1-0.6-0.1-0.9c-0.1-0.1-0.2-0.2-0.3-0.1c-0.2,0.3-0.4,0.5-0.7,0.8c-0.5,0.5-1.5,1.1-2.1,0.5c-0.1-0.1-0.1-0.1-0.2-0.2
				c-0.2-0.3-0.2-0.9-0.1-1.2C167.5,273.9,167.6,273.7,167.7,273.4z"/>
		</g>
		<path class="st1" d="M76.2,135.5c1-0.3,2-1,2.8-1.6c3.7-2.8,6.2-6.8,8.8-10.5c1.2-1.7,2.5-3.4,4.6-3.9c1-0.2,1.8-0.2,2.5,0.6
			c0.5,0.6,0.8,1.5,0.9,2.3c0.2,1.4,0.2,2.9,0.2,4.4c-0.1,2.6-0.7,7.9,2.9,8.6c5.1,1.1,6.3-12.7,7.2-15.9c0.7-2.4,1.9-4.8,3.9-6.2
			c2.1-1.4,5.1-1.6,6.9,0.1c1.6,1.5,1.9,3.8,3.1,5.6c1.5,2.4,4.2,2.5,6.3,0.9c2-1.5,3-3.9,4.5-5.8c0.8-1,1.8-1.8,2.9-2.3
			c1.9-0.8,4.2-1,6.1-0.2c1.7,0.7,2.9,2.1,3.9,3.6s1.7,3.2,2.5,4.8c1,2,1.8,4.2,2.7,6.3c0.9,2.1,1.9,4.3,3.2,6.3
			c1,1.6,2.6,4,4.6,4.1c1,0.1,2-0.5,2.8-1.2c2.5-2.4,2.5-6.9,2.7-10.2c0.1-1.8,0.3-3.7,0.7-5.5c0.2-0.9,0.5-2,1.2-2.7
			c0.6-0.7,1.6-0.9,2.5-0.7c0.9,0.2,1.7,0.7,2.2,1.5c0.8,1,1.3,2.3,2,3.4c0.6,1,1.4,1.9,2.7,1.9c0.3,0,0.5,0,0.8-0.1
			c1.8-0.5,2.7-2.6,3.8-3.9c0.6-0.6,1.2-1.3,2.1-1.4c1.3-0.2,2.4,0.7,3.4,1.5s1.9,1.7,2.8,2.7c1.3,1.4,2.4,3,3.4,4.6
			c1.7,2.9,3,6,5.9,7.9c0.9,0.6,2,1.1,3.1,1c1.7-0.2,2.1-1.9,1.9-3.4c-0.1-0.7-0.3-1.3-0.7-1.9c-12.7-20.9-35.6-34.9-61.9-34.9
			c-27.2,0-50.9,15-63.2,37.2c-0.3,0.5-0.5,1-0.6,1.5C73.8,135.4,74.9,135.9,76.2,135.5z"/>
		<g class="st2">
			<path class="st4" d="M116.5,191.6H83.7l10.1-10.5c2.7-2.8,4.8-5.1,6.3-7s2.6-3.6,3.4-4.9c0.7-1.3,1.2-2.4,1.4-3.2
				c0.2-0.8,0.3-1.5,0.3-2.1s-0.1-1.2-0.3-1.8c-0.2-0.6-0.5-1.1-0.9-1.5s-0.9-0.8-1.4-1.1c-0.6-0.3-1.2-0.4-2-0.4
				c-1.4,0-2.6,0.5-3.4,1.4S96,162.6,96,164c0,0.4,0.1,1,0.2,1.7H84.5c0-2.4,0.4-4.5,1.2-6.5c0.8-1.9,1.9-3.6,3.3-5s3.1-2.5,5-3.2
				c1.9-0.8,4-1.1,6.3-1.1s4.4,0.4,6.3,1.1c1.9,0.7,3.6,1.7,5,3s2.5,2.8,3.3,4.6s1.2,3.7,1.2,5.8c0,2.2-0.5,4.3-1.4,6.2
				c-1,1.9-2.5,3.8-4.6,5.8l-6.7,6.3h13.2v8.9H116.5z"/>
			<path class="st4" d="M149.5,175.2h4.9v8.1h-4.9v8.4h-9.8v-8.4H120v-6.8l15.5-25.5h13.9v24.2H149.5z M139.7,175.2v-16l-9.3,16
				H139.7z"/>
			<path class="st4" d="M156.5,171.2c0-3.2,0.4-6.2,1.3-8.8c0.8-2.6,2-4.9,3.6-6.8c1.5-1.9,3.3-3.3,5.5-4.3c2.1-1,4.4-1.5,7-1.5
				c2.5,0,4.8,0.5,7,1.5c2.1,1,3.9,2.5,5.5,4.3c1.5,1.9,2.7,4.1,3.5,6.8c0.8,2.6,1.3,5.6,1.3,8.8s-0.4,6.2-1.3,8.8
				c-0.8,2.6-2,4.9-3.5,6.8c-1.5,1.9-3.3,3.3-5.5,4.4c-2.1,1-4.4,1.5-7,1.5s-4.9-0.5-7-1.5s-3.9-2.5-5.5-4.4
				c-1.5-1.9-2.7-4.2-3.6-6.8S156.5,174.5,156.5,171.2z M167,171.2c0,1.8,0.2,3.4,0.5,4.9s0.8,2.8,1.4,3.8c0.6,1.1,1.3,1.9,2.1,2.5
				s1.8,0.9,2.8,0.9s1.9-0.3,2.8-0.9c0.8-0.6,1.6-1.4,2.1-2.5c0.6-1.1,1-2.4,1.4-3.8c0.3-1.5,0.5-3.1,0.5-4.9c0-1.8-0.2-3.4-0.5-4.9
				s-0.8-2.8-1.4-3.8c-0.6-1.1-1.3-1.9-2.1-2.5s-1.8-0.9-2.8-0.9s-2,0.3-2.8,0.9c-0.8,0.6-1.5,1.4-2.1,2.5s-1.1,2.3-1.4,3.8
				C167.2,167.8,167,169.5,167,171.2z"/>
		</g>
		<g class="st2">
			<path class="st4" d="M106.1,210.1l1.5,3.8l1.5-3.8h1.8l-2.6,6.3H107l-2.6-6.3H106.1z"/>
			<path class="st4" d="M115,215.3h-2.3l-0.4,1.1h-1.7l2.4-6.3h1.8l2.4,6.3h-1.7L115,215.3z M114.5,214.1l-0.7-2.1l-0.7,2.1H114.5z"
				/>
			<path class="st4" d="M117.8,216.4v-6.3h1.6l3,3.8v-3.8h1.6v6.3h-1.6l-3-3.8v3.8H117.8z"/>
			<path class="st4" d="M127,210.1v6.3h-1.6v-6.3H127z"/>
			<path class="st4" d="M129.9,210.1v4.9h2v1.4h-3.6v-6.3L129.9,210.1L129.9,210.1z"/>
			<path class="st4" d="M134.4,210.1v4.9h2v1.4h-3.6v-6.3L134.4,210.1L134.4,210.1z"/>
			<path class="st4" d="M141.3,215.3H139l-0.4,1.1h-1.7l2.4-6.3h1.8l2.4,6.3h-1.7L141.3,215.3z M140.8,214.1l-0.7-2.1l-0.7,2.1
				H140.8z"/>
			<path class="st4" d="M146.9,210.1h2.4c0.6,0,1,0.1,1.3,0.4c0.3,0.3,0.4,0.7,0.4,1.2c0,0.3-0.1,0.6-0.2,0.8
				c-0.1,0.2-0.3,0.4-0.5,0.5c0.2,0,0.4,0.1,0.6,0.2c0.2,0.1,0.3,0.2,0.4,0.3c0.1,0.1,0.2,0.3,0.2,0.4c0,0.2,0.1,0.3,0.1,0.5
				c0,0.3-0.1,0.6-0.2,0.8c-0.1,0.2-0.2,0.4-0.4,0.6c-0.2,0.2-0.4,0.3-0.7,0.3c-0.3,0.1-0.6,0.1-0.9,0.1h-2.6L146.9,210.1
				L146.9,210.1z M148.5,212.6h0.3c0.5,0,0.8-0.2,0.8-0.6c0-0.4-0.3-0.6-0.8-0.6h-0.3V212.6z M148.5,215.1h0.4
				c0.4,0,0.7-0.1,0.9-0.2c0.2-0.1,0.3-0.3,0.3-0.5s-0.1-0.4-0.3-0.5s-0.5-0.2-0.9-0.2h-0.4V215.1z"/>
			<path class="st4" d="M156.2,211.5h-1.9v1h1.8v1.4h-1.8v1.1h1.9v1.4h-3.6v-6.3h3.6V211.5z"/>
			<path class="st4" d="M161.3,215.3H159l-0.4,1.1h-1.7l2.4-6.3h1.8l2.4,6.3h-1.7L161.3,215.3z M160.8,214.1l-0.7-2.1l-0.7,2.1
				H160.8z"/>
			<path class="st4" d="M164.1,216.4v-6.3h1.6l3,3.8v-3.8h1.6v6.3h-1.6l-3-3.8v3.8H164.1z"/>
		</g>
	</g>
	<g id="레이어_3">
		<g class="st2">
			<path class="st4" d="M97.5,41.4H27.7c-1,0-1.8-0.8-1.8-1.8V15.8c0-4.9,3.9-8.8,8.8-8.8h55.7c4.9,0,8.8,3.9,8.8,8.8v23.9
				C99.3,40.7,98.5,41.4,97.5,41.4z"/>
			<path class="st4" d="M124.6,133.9L99.8,49.8c-0.3-1.2-1.3-2-2.5-2H28c-1.2,0-2.3,0.8-2.5,2L0.6,133.9c-0.3,1.5-0.5,3-0.5,4.5
				v130.5c0,14.6,11.8,26.4,26.4,26.4h72.2c14.6,0,26.4-11.8,26.4-26.4V138.4C125.1,136.9,125,135.4,124.6,133.9z M106.6,263.3
				c0,7.2-5.8,13-13,13H31.7c-7.2,0-13-5.8-13-13v-118c0-3,0.3-6,1-8.9c0.1-0.2,0.1-0.4,0.2-0.6c0.4-1.4,0.9-2.8,1.3-4.1
				c0.7-2.2,1.4-4.4,2.1-6.6c0.8-2.4,1.6-4.8,2.4-7.2c0.7-2,1.3-4.1,2-6.1c0.2-0.7,0.4-1.4,0.7-2.1c0.7-2.2,1.9-4,4.1-4.8
				c2.3-0.9,4.7-1.1,7.1-0.9c3.9,0.3,8.1,1.1,11.7,2.6c3.5,1.5,7.2,2.9,11.1,3c1,0,2,0,2.9-0.1c1.9-0.2,4-0.6,5.8-1.3
				c2.3-1,4.4-2.3,6.9-3.1c3.8-1.2,7.8-1.4,11.7-0.7c3.3,0.6,6.4,2.1,7.6,5.5l8.1,26.5c0.7,2.9,1,5.9,1,8.9v118H106.6z"/>
			<path class="st4" d="M236.9,41.4H167c-1,0-1.8-0.8-1.8-1.8V15.8c0-4.9,3.9-8.8,8.8-8.8h55.7c4.9,0,8.8,3.9,8.8,8.8v23.9
				C238.6,40.7,237.8,41.4,236.9,41.4z"/>
			<path class="st4" d="M264,133.9l-24.9-84.1c-0.3-1.2-1.3-2-2.5-2h-69.2c-1.2,0-2.3,0.8-2.5,2L140,133.9c-0.3,1.5-0.5,3-0.5,4.5
				v130.5c0,14.6,11.8,26.4,26.4,26.4h72.2c14.6,0,26.4-11.8,26.4-26.4V138.4C264.5,136.9,264.3,135.4,264,133.9z M245.9,263.3
				c0,7.2-5.8,13-13,13H171c-7.2,0-13-5.8-13-13v-118c0-3,0.3-6,1-8.9c0.1-0.2,0.1-0.4,0.2-0.6c0.4-1.4,0.9-2.8,1.3-4.1
				c0.7-2.2,1.4-4.4,2.1-6.6c0.8-2.4,1.6-4.8,2.4-7.2c0.7-2,1.3-4.1,2-6.1c0.2-0.7,0.4-1.4,0.7-2.1c0.7-2.2,1.9-4,4.1-4.8
				c2.3-0.9,4.7-1.1,7.1-0.9c3.9,0.3,8.1,1.1,11.7,2.6c3.5,1.5,7.2,2.9,11.1,3c1,0,2,0,2.9-0.1c1.9-0.2,4-0.6,5.8-1.3
				c2.3-1,4.4-2.3,6.9-3.1c3.8-1.2,7.8-1.4,11.7-0.7c3.3,0.6,6.4,2.1,7.6,5.5l8.1,26.5c0.7,2.9,1,5.9,1,8.9v118H245.9z"/>
		</g>
	</g>
	<g id="레이어_1_2_" class="st2">
		<path class="st4" d="M261.7,66.9H42.3c-3.1,0-5.5,2.7-5.2,5.7L57.4,292c0.3,2.6,2.5,4.6,5.2,4.6h178.7c2.7,0,4.9-2,5.2-4.6
			l20.3-219.4C267.2,69.6,264.8,66.9,261.7,66.9z M152,247.7c-43.1,0-78.1-35-78.1-78.1s35-78.1,78.1-78.1s78.1,35,78.1,78.1
			S195.1,247.7,152,247.7z"/>
		<path class="st4" d="M275.2,56.6H28.9c-2.1,0-3.9-1.7-3.9-3.9V11.9C25,9.7,26.7,8,28.9,8h246.3c2.1,0,3.9,1.7,3.9,3.9v40.9
			C279,54.9,277.3,56.6,275.2,56.6z"/>
		<g>
			<path class="st3" d="M155.5,270.3c-0.6-0.1-1.1,0-1.6,0.2c-0.8,0.4-1.1,1.2-1.1,1.9c0,0.9,0.6,1.8,1.5,2.4l0.1,0.1
				c0.1,0.1,0.2,0.1,0.3,0.2c0.2,0.1,0.5,0.4,0.5,0.7c0.1,0.3-0.1,0.6-0.3,0.9c-0.4,0.4-1.2,0.4-1.7,0.1c-0.3-0.2-0.5-0.4-0.6-0.8
				c-0.2-0.6-0.4-1-0.7-1.1c-0.2-0.1-0.5-0.1-0.7,0c-0.2,0.1-0.4,0.3-0.4,0.6c0,0.1,0,0.1,0,0.2c-0.5,1.2-1.1,1.9-1.8,1.6
				c-0.1-0.1-0.2-0.1-0.3-0.3c-0.2-0.4,0-0.8,0.1-1.2c0.1-0.2,0.2-0.4,0.2-0.7c0.2-0.5,0.3-0.9,0.5-1.4c0.1-0.4,0.3-0.7,0.4-1.1
				c0.1-0.2,0.1-0.4,0.2-0.5c0-0.1,0.1-0.2,0.1-0.4l0,0c0-0.1,0-0.2,0-0.2c0-0.1,0-0.1,0-0.2s0-0.1-0.1-0.2c0-0.1,0-0.1-0.1-0.2
				l-0.1-0.1l-0.1-0.1c-0.1,0-0.1-0.1-0.2-0.1c-0.1,0-0.1,0-0.2,0c-0.1,0-0.3,0-0.3,0c-0.2,0-0.3,0.1-0.4,0.2
				c-0.3,0.2-0.4,0.6-0.5,0.9c-0.1,0.2-0.1,0.3-0.2,0.5s-0.2,0.5-0.3,0.7c-0.1,0.3-0.2,0.5-0.3,0.8s-0.2,0.5-0.3,0.8
				c-0.1,0.2-0.2,0.5-0.2,0.7c-0.1,0.2-0.1,0.3-0.2,0.5c0,0.1,0,0.1-0.1,0.2v0.1c0,0.1-0.1,0.2-0.2,0.3c-0.1,0.1-0.1,0.2-0.2,0.2
				c-0.1,0.1-0.2,0.2-0.3,0.3c-0.1,0-0.1,0.1-0.2,0.1c-0.2,0-0.4,0-0.5-0.1c-0.5-0.4-0.3-1.1-0.3-1.6c0-0.3,0.1-0.5,0.2-0.7
				c0.1-0.3,0.2-0.6,0.4-0.9c0.1-0.3,0.3-0.6,0.5-0.8c0.2-0.2,0.4-0.4,0.6-0.5c0.2-0.1,0.4-0.1,0.6-0.1c0.1,0,0.2-0.1,0.2-0.2
				s0.1-0.3,0.2-0.6c0.1-0.2,0.1-0.3,0.2-0.4c0-0.1,0-0.2-0.1-0.3c-0.3-0.2-0.8-0.3-1.7-0.1c-1.3,0.4-2.8,2.2-3.2,4.4
				c-0.1,0.6-0.6,2.2-1.7,2.3c-1.3,0.1-0.4-2-0.4-2s2.5-7.2,2.7-7.6s0.3-1.4-0.6-1.6c-0.9-0.1-1.3,1-1.3,1l-3,8.6
				c-0.5,1.2-1.1,1.9-1.8,1.6c-0.1-0.1-0.2-0.1-0.3-0.3c-0.2-0.4,0-0.8,0.1-1.2c0.1-0.2,0.2-0.4,0.2-0.7c0.2-0.5,0.3-0.9,0.5-1.4
				c0.1-0.4,0.3-0.7,0.4-1.1c0.1-0.2,0.1-0.4,0.2-0.5c0-0.1,0.1-0.2,0.1-0.4l0,0c0-0.1,0-0.2,0-0.2c0-0.1,0-0.1,0-0.2s0-0.1-0.1-0.2
				c0-0.1,0-0.1-0.1-0.2l-0.1-0.1l-0.1-0.1c-0.1,0-0.1-0.1-0.2-0.1s-0.1,0-0.2,0s-0.3,0-0.3,0c-0.2,0-0.3,0.1-0.4,0.2
				c-0.3,0.2-0.4,0.6-0.5,0.9c-0.1,0.2-0.1,0.3-0.2,0.5c-0.1,0.2-0.2,0.5-0.3,0.7c-0.1,0.3-0.2,0.5-0.3,0.8
				c-0.1,0.3-0.2,0.5-0.3,0.8c-0.1,0.2-0.2,0.5-0.2,0.7c-0.1,0.2-0.1,0.3-0.2,0.5c0,0.1,0,0.1-0.1,0.2v0.1c0,0.1-0.1,0.2-0.2,0.3
				c-0.1,0.1-0.1,0.2-0.2,0.2c-0.1,0.1-0.2,0.2-0.3,0.3c-0.1,0-0.1,0.1-0.2,0.1c-0.2,0-0.4,0-0.5-0.1c-0.5-0.4-0.3-1.1-0.3-1.6
				c0-0.3,0.1-0.5,0.2-0.7c0.1-0.3,0.2-0.6,0.4-0.9c0.1-0.3,0.3-0.6,0.5-0.8c0.2-0.2,0.4-0.4,0.6-0.5s0.4-0.1,0.6-0.1
				c0.1,0,0.2-0.1,0.2-0.2s0.1-0.3,0.2-0.6c0.1-0.2,0.1-0.3,0.2-0.4c0-0.1,0-0.2-0.1-0.3c-0.3-0.2-0.8-0.3-1.7-0.1
				c-1.3,0.4-2.7,2.1-3.2,4.2c-0.5,1.9-1.5,2.5-2.2,2.6c-1,0.1-1.9-0.2-2.6-0.7l-0.1-0.1c-0.2-0.2-0.5-0.4-1-0.6l2.3-6.5l0.8-2.3
				c0.1-0.3,0.4-0.6,0.7-0.6c0.1,0,0.3,0,0.4,0h0.1c0.2,0.1,0.5,0.5,0.5,0.9c0,0.1,0,0.2,0,0.3c-0.1,0.5-0.4,0.8-0.8,1.1
				c-0.3,0.3-0.8,0.5-1.1,0.7c-0.1,0-0.1,0.1-0.1,0.1l-0.6,1.5c-0.1,0.2,0.1,0.4,0.3,0.3c0.4-0.1,0.8-0.3,0.8-0.3
				c1.2-0.5,2.3-1.3,2.9-2.5c0.3-0.6,0.4-1.3,0.3-2c0-0.1,0-0.2-0.1-0.3c-0.4-1.2-1.6-2-2.8-1.9c-0.4,0-0.7,0.1-1,0.3
				c-0.4,0.2-0.7,0.5-1,0.9c-0.2,0.3-0.4,0.7-0.6,1.2l-1.1,3.1c-0.6,0.2-1.2,0.4-1.8,0.3c-0.6-0.1-1.1-0.4-1.5-0.9
				c-0.1-0.1-0.1-0.2-0.2-0.2c-0.1-0.1-0.2-0.1-0.3,0c-0.1,0.1-0.1,0.2-0.2,0.3c-0.1,0.5,0,1,0.2,1.5c0.1,0.1,0.2,0.3,0.3,0.4
				c0.1,0.1,0.2,0.2,0.4,0.3c0.5,0.4,1.3,0.6,1.9,0.5c0.2,0,0.4,0,0.6-0.1l-1.4,3.9c-0.1,0.2-0.2,0.4-0.4,0.6
				c-0.3,0.3-0.8,0.5-1.2,0.5c-0.1,0-0.1,0-0.2,0c-0.3,0-0.7-0.2-0.8-0.5c0-0.1,0-0.3,0-0.4c0.1-0.1,0.3-0.3,0.7-0.3
				c0,0,0.5,0,1,0.2c0.1,0,0.2,0,0.3-0.1c0.1-0.1,0.1-0.2,0.2-0.4c0.1-0.2,0.2-0.6,0.3-0.8c0-0.1,0-0.2-0.1-0.3
				c-0.4-0.1-0.8-0.2-1.2-0.3c-0.6-0.1-1.1,0-1.6,0.1c-0.4,0.1-0.7,0.3-1,0.5c-0.5,0.4-0.7,1-0.7,1.6l0,0c0,0.2,0.1,0.5,0.2,0.7
				c0.2,0.3,0.4,0.7,0.7,0.9c0.3,0.3,0.7,0.4,1.1,0.5c0.3,0.1,0.5,0.1,0.8,0.1s0.5,0,0.8,0c0.4-0.1,0.8-0.2,1.2-0.5
				c0.2-0.1,0.3-0.2,0.5-0.4c0,0,0.1-0.1,0.2-0.2s0.1-0.1,0.2-0.2l0,0c0.3,0.3,0.5,0.4,0.6,0.5l0,0c0.5,0.5,1.1,0.9,1.7,1.1
				c1,0.4,2.3,0.5,3.3,0c0.6-0.3,1.1-0.8,1.5-1.4c0.5,0.9,1.3,1.1,2.1,1c0.2,0,0.3-0.1,0.4-0.1c0.4-0.2,0.8-0.5,1-0.8
				c0,0,0.4,0.5,1.1,0.8c0.2,0.1,0.5,0.2,0.9,0.2c0.7,0,1.5-0.5,2-0.9l0.1,0.1c0.6,0.6,1.6,0.9,2.4,0.7c0.8-0.1,1.6-0.6,2.1-1.1
				c0.4,1.1,1.3,1.3,2.2,1.1c0.2,0,0.3-0.1,0.4-0.1c0.4-0.2,0.8-0.5,1-0.8c0,0,0.4,0.5,1.1,0.8c0.2,0.1,0.5,0.2,0.9,0.2
				c1.2,0,2.5-1.3,2.6-1.4l0,0l0,0c0.3,0.5,0.8,0.9,1.4,1.2c0.4,0.2,0.9,0.3,1.4,0.3c0.1,0,0.1,0,0.2,0c0.8,0,1.6-0.4,2.2-0.9
				c0.7-0.6,0.9-1.5,0.7-2.4c-0.2-0.8-0.9-1.3-1.6-1.8c-0.1,0-0.1-0.1-0.2-0.1c-0.2-0.1-0.3-0.3-0.5-0.4c-0.2-0.3-0.4-0.6-0.3-0.8
				c0-0.2,0.1-0.3,0.3-0.4l0,0c0.1,0,0.2-0.1,0.3-0.1c0.2,0,0.4,0,0.6,0.2c0.1,0.1,0.2,0.2,0.3,0.3c0.1,0.1,0.2,0.2,0.3,0.3
				c0.2,0.2,0.5,0.2,0.7,0.2c0.4-0.1,0.6-0.5,0.5-0.9C157.4,271,156.4,270.4,155.5,270.3z"/>
			<path class="st3" d="M167,272.1c0-0.1,0.1-0.2,0.1-0.3c0.1-0.2,0.1-0.5,0-0.8c0-0.2-0.1-0.3-0.3-0.4c-0.1-0.1-0.2-0.1-0.3-0.2
				c-0.1,0-0.1,0-0.2,0c-0.7-0.1-1.1,0.8-1.1,0.8l-2.1,4.5c0-0.8,0-1.9-0.1-2.4c0-0.8-0.1-1.6-0.9-1.7c-0.7-0.1-1.1,0.8-1.1,0.9
				l-1.3,3.3c0-0.3,0-0.6,0-0.9c0-1.1,0-2.3,0-2.6c0,0,0,0,0-0.1l0,0c0-0.2,0-0.3,0-0.4c0-0.4-0.1-1.1-0.6-1.3c-0.1,0-0.2-0.1-0.4,0
				c0,0,0,0-0.1,0c-0.9,0.1-0.8,1.3-0.8,1.3l0.1,5.1c0,0.1,0,0.3,0,0.4c0.1,0.5,0.2,0.9,0.5,1.2c0.3,0.3,0.7,0.4,1,0.3
				c0.6-0.1,1-0.8,1.2-1.4c0.1-0.3,0.2-0.6,0.3-0.8c0.1-0.3,0.2-0.5,0.3-0.8c0.1-0.2,0.2-0.5,0.3-0.7s0.1-0.4,0.2-0.5l0.1,2.7
				c0,0.8,0.4,1.6,1.3,1.6c0.6,0,1-0.6,1.3-1.1c0.1-0.2,1.5-3.4,2.3-5C166.9,272.4,167,272.2,167,272.1z"/>
			<path class="st3" d="M182.4,274.6c0-0.1,0.1-0.2,0.1-0.3l0.8-2.2c1.1,0,1.9-0.1,2.5-1.2c0.1-0.2,0.1-0.6-0.2-0.5
				c-0.1,0-0.1,0-0.2,0c-0.4,0.1-0.8,0.1-1.2,0.1c-0.1,0-0.1,0-0.2,0l0,0l0,0c0,0-0.1,0-0.2,0l0,0l0,0c0.2-0.6,0.4-1,0.4-1.1
				c0.2-0.4,0.3-1.4-0.6-1.6h-0.1c-0.2,0-0.4,0.1-0.5,0.1c-0.4,0.3-0.6,0.8-0.6,0.8l-0.6,1.7l0,0l0,0c-0.4,0-1.1-0.1-1.5-0.1
				c-0.2,0-0.5,0-0.4,0.3c0.2,0.7,0.8,1.1,1.4,1.2l-0.9,2.5v0.1l-0.1,0.2c-0.4,0.8-1.3,1.5-2,1.8c-0.6,0.3-1.7,0.4-2.3,0.3
				c-0.4-0.1-0.8-0.3-1-0.6c-0.2-0.4-0.3-0.8-0.2-1.2c0.1-0.5,0.2-0.9,0.4-1.3c0.4-0.8,0.8-1.4,1.3-1.6l0,0c0.3-0.2,0.7-0.3,1-0.2
				c0.4,0.1,0.6,0.4,0.6,0.8c-0.1,0.4-0.4,0.6-0.8,0.7c-0.3,0.1-0.7,0.2-1,0.2c-0.1,0-0.2,0-0.2,0c-0.1,0-0.2,0-0.2,0.1
				c-0.1,0.1-0.1,0.1-0.1,0.2c-0.1,0.2-0.3,0.7-0.3,1.1c0,0.1,0.1,0.3,0.2,0.3c0.4,0,0.7,0,1.2-0.1c0.4-0.1,0.9-0.2,1.2-0.3
				c0.5-0.2,0.9-0.5,1.2-0.9c0.9-1.3,0.4-3.3-1.2-3.6c-0.5-0.1-0.9-0.1-1.4,0.1c-0.2,0.1-0.4,0.1-0.6,0.2c-0.1,0.1-0.3,0.1-0.4,0.2
				c-1.2,0.7-2.1,2.1-2.6,3.4c0,0.1,0,0.1,0,0.2c-0.1,0.4-0.2,0.9-0.2,1.3l0,0l0,0c0,0.1,0,0.2,0,0.4c-0.3,0.2-0.7,0.4-1,0.6
				c-0.6,0.3-1.7,0.4-2.3,0.3c-0.4-0.1-0.8-0.3-1-0.6c-0.2-0.4-0.3-0.8-0.2-1.2c0.1-0.5,0.2-0.9,0.4-1.3c0.4-0.8,0.8-1.4,1.3-1.6
				l0,0c0.3-0.2,0.7-0.3,1-0.2c0.4,0.1,0.6,0.4,0.6,0.8c-0.1,0.4-0.4,0.6-0.8,0.7c-0.3,0.1-0.7,0.2-1,0.2c-0.1,0-0.2,0-0.2,0
				c-0.1,0-0.2,0-0.2,0.1c-0.1,0.1-0.1,0.1-0.1,0.2c-0.1,0.2-0.3,0.7-0.3,1.1c0,0.1,0.1,0.3,0.2,0.3c0.4,0,0.7,0,1.2-0.1
				c0.4-0.1,0.9-0.2,1.2-0.3c0.5-0.2,0.9-0.5,1.2-0.9c0.9-1.3,0.4-3.3-1.2-3.6c-0.5-0.1-0.9-0.1-1.4,0.1c-0.2,0.1-0.4,0.1-0.6,0.2
				c-0.1,0.1-0.3,0.1-0.4,0.2c-1.2,0.7-2.1,2.1-2.6,3.4c0,0.1,0,0.1,0,0.2c-0.1,0.4-0.2,0.9-0.2,1.3l0,0l0,0c0,0.3,0,1,0.4,1.6l0,0
				l0.1,0.1l0,0c0,0,0,0.1,0.1,0.1l0.1,0.1c0.7,0.8,1.7,1.1,2.9,1.1c0.8,0,1.8-0.3,2.6-0.7c0.3-0.2,0.6-0.4,0.8-0.6
				c0,0,0,0.1,0.1,0.1l0.1,0.1c0.7,0.8,1.7,1.1,2.9,1.1c0.8,0,1.8-0.3,2.6-0.7c0.3-0.2,0.7-0.4,1-0.7l0.1-0.1c0,0,0.1-0.1,0.3-0.3
				c0,0.1,0.1,0.2,0.1,0.3c0.3,0.6,0.8,1.1,1.4,1.3c0.7,0.3,1.4,0.2,2.1,0c0.6-0.3,1.1-0.7,1.4-1.2c0.2-0.3,0.3-0.5,0.3-0.8
				c0.1-0.3,0.1-0.6-0.1-0.9c-0.1-0.1-0.2-0.2-0.3-0.1c-0.2,0.3-0.4,0.5-0.7,0.8c-0.5,0.5-1.5,1.1-2.1,0.5c-0.1-0.1-0.1-0.1-0.2-0.2
				c-0.2-0.3-0.2-0.9-0.1-1.2C182.2,275.1,182.3,274.8,182.4,274.6z"/>
		</g>
		<path class="st4" d="M90.9,136.7c1-0.3,2-1,2.8-1.6c3.7-2.8,6.2-6.8,8.8-10.5c1.2-1.7,2.5-3.4,4.6-3.9c1-0.2,1.8-0.2,2.5,0.6
			c0.5,0.6,0.8,1.5,0.9,2.3c0.2,1.4,0.2,2.9,0.2,4.4c-0.1,2.6-0.7,7.9,2.9,8.6c5.1,1.1,6.3-12.7,7.2-15.9c0.7-2.4,1.9-4.8,3.9-6.2
			c2.1-1.4,5.1-1.6,6.9,0.1c1.6,1.5,1.9,3.8,3.1,5.6c1.5,2.4,4.2,2.5,6.3,0.9c2-1.5,3-3.9,4.5-5.8c0.8-1,1.8-1.8,2.9-2.3
			c1.9-0.8,4.2-1,6.1-0.2c1.7,0.7,2.9,2.1,3.9,3.6s1.7,3.2,2.5,4.8c1,2,1.8,4.2,2.7,6.3c0.9,2.1,1.9,4.3,3.2,6.3
			c1,1.6,2.6,4,4.6,4.1c1,0.1,2-0.5,2.8-1.2c2.5-2.4,2.5-6.9,2.7-10.2c0.1-1.8,0.3-3.7,0.7-5.5c0.2-0.9,0.5-2,1.2-2.7
			c0.6-0.7,1.6-0.9,2.5-0.7c0.9,0.2,1.7,0.7,2.2,1.5c0.8,1,1.3,2.3,2,3.4c0.6,1,1.4,1.9,2.7,1.9c0.3,0,0.5,0,0.8-0.1
			c1.8-0.5,2.7-2.6,3.8-3.9c0.6-0.6,1.2-1.3,2.1-1.4c1.3-0.2,2.4,0.7,3.4,1.5s1.9,1.7,2.8,2.7c1.3,1.4,2.4,3,3.4,4.6
			c1.7,2.9,3,6,5.9,7.9c0.9,0.6,2,1.1,3.1,1c1.7-0.2,2.1-1.9,1.9-3.4c-0.1-0.7-0.3-1.3-0.7-1.9c-12.7-20.9-35.6-34.9-61.9-34.9
			c-27.2,0-50.9,15-63.2,37.2c-0.3,0.5-0.5,1-0.6,1.5C88.5,136.6,89.5,137.1,90.9,136.7z"/>
		<g>
			<path class="st4" d="M131.1,192.8H98.4l10.1-10.5c2.7-2.8,4.8-5.1,6.3-7s2.6-3.6,3.4-4.9c0.7-1.3,1.2-2.4,1.4-3.2
				c0.2-0.8,0.3-1.5,0.3-2.1s-0.1-1.2-0.3-1.8c-0.2-0.6-0.5-1.1-0.9-1.5s-0.9-0.8-1.4-1.1c-0.6-0.3-1.2-0.4-2-0.4
				c-1.4,0-2.6,0.5-3.4,1.4s-1.2,2.1-1.2,3.5c0,0.4,0.1,1,0.2,1.7H99.2c0-2.4,0.4-4.5,1.2-6.5c0.8-1.9,1.9-3.6,3.3-5s3.1-2.5,5-3.2
				c1.9-0.8,4-1.1,6.3-1.1s4.4,0.4,6.3,1.1c1.9,0.7,3.6,1.7,5,3s2.5,2.8,3.3,4.6s1.2,3.7,1.2,5.8c0,2.2-0.5,4.3-1.4,6.2
				c-1,1.9-2.5,3.8-4.6,5.8l-6.7,6.3h13.2v8.9H131.1z"/>
			<path class="st4" d="M164.2,176.4h4.9v8.1h-4.9v8.4h-9.8v-8.4h-19.7v-6.8l15.5-25.5h13.9v24.2H164.2z M154.3,176.4v-16l-9.3,16
				H154.3z"/>
			<path class="st4" d="M171.2,172.4c0-3.2,0.4-6.2,1.3-8.8c0.8-2.6,2-4.9,3.6-6.8c1.5-1.9,3.3-3.3,5.5-4.3s4.4-1.5,7-1.5
				c2.5,0,4.8,0.5,7,1.5c2.1,1,3.9,2.5,5.5,4.3c1.5,1.9,2.7,4.1,3.5,6.8c0.8,2.6,1.3,5.6,1.3,8.8s-0.4,6.2-1.3,8.8
				c-0.8,2.6-2,4.9-3.5,6.8c-1.5,1.9-3.3,3.3-5.5,4.4c-2.1,1-4.4,1.5-7,1.5s-4.9-0.5-7-1.5s-3.9-2.5-5.5-4.4
				c-1.5-1.9-2.7-4.2-3.6-6.8C171.6,178.6,171.2,175.7,171.2,172.4z M181.7,172.4c0,1.8,0.2,3.4,0.5,4.9s0.8,2.8,1.4,3.8
				c0.6,1.1,1.3,1.9,2.1,2.5s1.8,0.9,2.8,0.9s1.9-0.3,2.8-0.9c0.8-0.6,1.6-1.4,2.1-2.5c0.6-1.1,1-2.4,1.4-3.8
				c0.3-1.5,0.5-3.1,0.5-4.9c0-1.8-0.2-3.4-0.5-4.9s-0.8-2.8-1.4-3.8c-0.6-1.1-1.3-1.9-2.1-2.5s-1.8-0.9-2.8-0.9s-2,0.3-2.8,0.9
				c-0.8,0.6-1.5,1.4-2.1,2.5s-1.1,2.3-1.4,3.8C181.8,169,181.7,170.7,181.7,172.4z"/>
		</g>
		<g>
			<path class="st4" d="M120.8,211.3l1.5,3.8l1.5-3.8h1.8l-2.6,6.3h-1.3l-2.6-6.3H120.8z"/>
			<path class="st4" d="M129.6,216.5h-2.3l-0.4,1.1h-1.7l2.4-6.3h1.8l2.4,6.3H130L129.6,216.5z M129.2,215.3l-0.7-2.1l-0.7,2.1
				H129.2z"/>
			<path class="st4" d="M132.4,217.6v-6.3h1.6l3,3.8v-3.8h1.6v6.3H137l-3-3.8v3.8H132.4z"/>
			<path class="st4" d="M141.6,211.3v6.3H140v-6.3H141.6z"/>
			<path class="st4" d="M144.6,211.3v4.9h2v1.4H143v-6.3L144.6,211.3L144.6,211.3z"/>
			<path class="st4" d="M149,211.3v4.9h2v1.4h-3.6v-6.3L149,211.3L149,211.3z"/>
			<path class="st4" d="M155.9,216.5h-2.3l-0.4,1.1h-1.7l2.4-6.3h1.8l2.4,6.3h-1.7L155.9,216.5z M155.5,215.3l-0.7-2.1l-0.7,2.1
				H155.5z"/>
			<path class="st4" d="M161.6,211.3h2.4c0.6,0,1,0.1,1.3,0.4c0.3,0.3,0.4,0.7,0.4,1.2c0,0.3-0.1,0.6-0.2,0.8
				c-0.1,0.2-0.3,0.4-0.5,0.5c0.2,0,0.4,0.1,0.6,0.2c0.2,0.1,0.3,0.2,0.4,0.3c0.1,0.1,0.2,0.3,0.2,0.4c0,0.2,0.1,0.3,0.1,0.5
				c0,0.3-0.1,0.6-0.2,0.8c-0.1,0.2-0.2,0.4-0.4,0.6c-0.2,0.2-0.4,0.3-0.7,0.3c-0.3,0.1-0.6,0.1-0.9,0.1h-2.6L161.6,211.3
				L161.6,211.3z M163.2,213.8h0.3c0.5,0,0.8-0.2,0.8-0.6c0-0.4-0.3-0.6-0.8-0.6h-0.3V213.8z M163.2,216.3h0.4
				c0.4,0,0.7-0.1,0.9-0.2c0.2-0.1,0.3-0.3,0.3-0.5s-0.1-0.4-0.3-0.5s-0.5-0.2-0.9-0.2h-0.4V216.3z"/>
			<path class="st4" d="M170.9,212.7H169v1h1.8v1.4H169v1.1h1.9v1.4h-3.6v-6.3h3.6V212.7z"/>
			<path class="st4" d="M175.9,216.5h-2.3l-0.4,1.1h-1.7l2.4-6.3h1.8l2.4,6.3h-1.7L175.9,216.5z M175.5,215.3l-0.7-2.1l-0.7,2.1
				H175.5z"/>
			<path class="st4" d="M178.7,217.6v-6.3h1.6l3,3.8v-3.8h1.6v6.3h-1.6l-3-3.8v3.8H178.7z"/>
		</g>
	</g>
</g>
<g id="레이어_2" class="st0">
	<g id="레이어_2_1_" class="st2">
		<g>
			<g>
				<g>
					<g>
						<path class="st5" d="M111.6,155.5l-23.7-8.4c-0.5-0.2-1.1-0.2-1.6,0l-23.7,8.4c-1.8,0.7-1.8,3.2,0,4l23.7,9.5
							c0.5,0.2,1.1,0.2,1.6,0l23.7-9.5C113.3,158.8,113.3,156.3,111.6,155.5z"/>
					</g>
					<g>
						<g>
							<path class="st5" d="M114.2,163.2L90.6,173c-0.8,0.3-1.3,1.1-1.3,2v34.8c0,1.5,1.6,2.6,3,2L116,201c0.8-0.3,1.3-1.1,1.3-2
								v-33.7C117.2,163.7,115.6,162.6,114.2,163.2z"/>
						</g>
						<g>
							<path class="st5" d="M59.9,163.2l23.7,9.7c0.8,0.3,1.3,1.1,1.3,2v34.8c0,1.5-1.6,2.6-3,2l-23.7-10.8c-0.8-0.3-1.3-1.1-1.3-2
								v-33.7C56.9,163.7,58.5,162.6,59.9,163.2z"/>
						</g>
					</g>
				</g>
				<g>
					<g>
						<path class="st6" d="M176.2,155.5l-23.7-8.4c-0.5-0.2-1.1-0.2-1.6,0l-23.7,8.4c-1.8,0.7-1.8,3.2,0,4l23.7,9.5
							c0.5,0.2,1.1,0.2,1.6,0l23.7-9.5C178,158.8,178,156.3,176.2,155.5z"/>
					</g>
					<g>
						<g>
							<path class="st6" d="M178.9,163.2l-23.7,9.7c-0.8,0.3-1.3,1.1-1.3,2v34.8c0,1.5,1.6,2.6,3,2l23.7-10.8c0.8-0.3,1.3-1.1,1.3-2
								v-33.7C181.8,163.7,180.3,162.6,178.9,163.2z"/>
						</g>
						<g>
							<path class="st6" d="M124.5,163.2l23.7,9.7c0.8,0.3,1.3,1.1,1.3,2v34.8c0,1.5-1.6,2.6-3,2l-23.7-10.8c-0.8-0.3-1.3-1.1-1.3-2
								v-33.7C121.5,163.7,123.1,162.6,124.5,163.2z"/>
						</g>
					</g>
				</g>
				<g>
					<g>
						<path class="st7" d="M240.8,155.5l-23.7-8.4c-0.5-0.2-1.1-0.2-1.6,0l-23.7,8.4c-1.8,0.7-1.8,3.2,0,4l23.7,9.5
							c0.5,0.2,1.1,0.2,1.6,0l23.7-9.5C242.6,158.8,242.6,156.3,240.8,155.5z"/>
					</g>
					<g>
						<g>
							<path class="st7" d="M243.5,163.2l-23.7,9.7c-0.8,0.3-1.3,1.1-1.3,2v34.8c0,1.5,1.6,2.6,3,2l23.7-10.8c0.8-0.3,1.3-1.1,1.3-2
								v-33.7C246.5,163.7,244.9,162.6,243.5,163.2z"/>
						</g>
						<g>
							<path class="st7" d="M189.1,163.2l23.7,9.7c0.8,0.3,1.3,1.1,1.3,2v34.8c0,1.5-1.6,2.6-3,2l-23.7-10.8c-0.8-0.3-1.3-1.1-1.3-2
								v-33.7C186.2,163.7,187.7,162.6,189.1,163.2z"/>
						</g>
					</g>
				</g>
				<g>
					<g>
						<path class="st8" d="M143.5,98l-23.7-6.4c-0.5-0.2-1.1-0.2-1.6,0L94.5,98c-1.8,0.7-1.8,3.2,0,4l23.7,7.4
							c0.5,0.2,1.1,0.2,1.6,0l23.7-7.4C145.3,101.3,145.3,98.8,143.5,98z"/>
					</g>
					<g>
						<g>
							<path class="st8" d="M146.2,105.7l-23.7,7.7c-0.8,0.3-1.3,1.1-1.3,2v34.8c0,1.5,1.6,2.6,3,2l23.7-8.8c0.8-0.3,1.3-1.1,1.3-2
								v-33.7C149.2,106.2,147.6,105.1,146.2,105.7z"/>
						</g>
						<g>
							<path class="st8" d="M91.9,105.7l23.7,7.7c0.8,0.3,1.3,1.1,1.3,2v34.8c0,1.5-1.6,2.6-3,2l-23.7-8.8c-0.8-0.3-1.3-1.1-1.3-2
								v-33.7C88.9,106.2,90.4,105.1,91.9,105.7z"/>
						</g>
					</g>
				</g>
				<g>
					<g>
						<path class="st9" d="M208.2,98l-23.7-6.4c-0.5-0.2-1.1-0.2-1.6,0L159.2,98c-1.8,0.7-1.8,3.2,0,4l23.7,7.4
							c0.5,0.2,1.1,0.2,1.6,0l23.7-7.4C209.9,101.3,209.9,98.8,208.2,98z"/>
					</g>
					<g>
						<g>
							<path class="st9" d="M210.8,105.7l-23.7,7.7c-0.8,0.3-1.3,1.1-1.3,2v34.8c0,1.5,1.6,2.6,3,2l23.7-8.8c0.8-0.3,1.3-1.1,1.3-2
								v-33.7C213.8,106.2,212.3,105.1,210.8,105.7z"/>
						</g>
						<g>
							<path class="st9" d="M156.5,105.7l23.7,7.7c0.8,0.3,1.3,1.1,1.3,2v34.8c0,1.5-1.6,2.6-3,2l-23.7-8.8c-0.8-0.3-1.3-1.1-1.3-2
								v-33.7C153.5,106.2,155.1,105.1,156.5,105.7z"/>
						</g>
					</g>
				</g>
			</g>
			<g>
				<g>
					<path class="st4" d="M151.7,23.2c34.3,0,66.6,13.4,90.9,37.6c24.3,24.3,37.6,56.5,37.6,90.9c0,34.3-13.4,66.6-37.6,90.9
						c-24.3,24.3-56.5,37.6-90.9,37.6c-34.3,0-66.6-13.4-90.9-37.6S23.2,186,23.2,151.7s13.4-66.6,37.6-90.9
						C85.1,36.5,117.4,23.2,151.7,23.2 M151.7,0C67.9,0,0,67.9,0,151.7s67.9,151.7,151.7,151.7s151.7-67.9,151.7-151.7
						S235.5,0,151.7,0L151.7,0z"/>
				</g>
				<line class="st10" x1="251" y1="52.4" x2="52.4" y2="251"/>
			</g>
		</g>
	</g>
</g>
<g id="레이어_3_2_">
	<g id="레이어_3_1_">
		<g>
			<path class="st4" d="M117.4,42.4H47.6c-1,0-1.8-0.8-1.8-1.8V16.8c0-4.9,3.9-8.8,8.8-8.8h55.7c4.9,0,8.8,3.9,8.8,8.8v23.9
				C119.2,41.6,118.4,42.4,117.4,42.4z"/>
			<path class="st4" d="M144.5,134.9l-24.8-84.1c-0.3-1.2-1.3-2-2.5-2H47.9c-1.2,0-2.3,0.8-2.5,2l-24.9,84.1c-0.3,1.5-0.5,3-0.5,4.5
				v130.5c0,14.6,11.8,26.4,26.4,26.4h72.2c14.6,0,26.4-11.8,26.4-26.4V139.4C145.1,137.9,144.9,136.4,144.5,134.9z M126.5,264.3
				c0,7.2-5.8,13-13,13H51.6c-7.2,0-13-5.8-13-13v-118c0-3,0.3-6,1-8.9c0.1-0.2,0.1-0.4,0.2-0.6c0.4-1.4,0.9-2.8,1.3-4.1
				c0.7-2.2,1.4-4.4,2.1-6.6c0.8-2.4,1.6-4.8,2.4-7.2c0.7-2,1.3-4.1,2-6.1c0.2-0.7,0.4-1.4,0.7-2.1c0.7-2.2,1.9-4,4.1-4.8
				c2.3-0.9,4.7-1.1,7.1-0.9c3.9,0.3,8.1,1.1,11.7,2.6c3.5,1.5,7.2,2.9,11.1,3c1,0,2,0,2.9-0.1c1.9-0.2,4-0.6,5.8-1.3
				c2.3-1,4.4-2.3,6.9-3.1c3.8-1.2,7.8-1.4,11.7-0.7c3.3,0.6,6.4,2.1,7.6,5.5l8.1,26.5c0.7,2.9,1,5.9,1,8.9v118H126.5z"/>
			<path class="st4" d="M256.8,42.4H187c-1,0-1.8-0.8-1.8-1.8V16.8c0-4.9,3.9-8.8,8.8-8.8h55.7c4.9,0,8.8,3.9,8.8,8.8v23.9
				C258.6,41.6,257.8,42.4,256.8,42.4z"/>
			<path class="st4" d="M283.9,134.9L259,50.8c-0.3-1.2-1.3-2-2.5-2h-69.2c-1.2,0-2.3,0.8-2.5,2l-24.9,84.1c-0.3,1.5-0.5,3-0.5,4.5
				v130.5c0,14.6,11.8,26.4,26.4,26.4H258c14.6,0,26.4-11.8,26.4-26.4V139.4C284.4,137.9,284.2,136.4,283.9,134.9z M265.8,264.3
				c0,7.2-5.8,13-13,13H191c-7.2,0-13-5.8-13-13v-118c0-3,0.3-6,1-8.9c0.1-0.2,0.1-0.4,0.2-0.6c0.4-1.4,0.9-2.8,1.3-4.1
				c0.7-2.2,1.4-4.4,2.1-6.6c0.8-2.4,1.6-4.8,2.4-7.2c0.7-2,1.3-4.1,2-6.1c0.2-0.7,0.4-1.4,0.7-2.1c0.7-2.2,1.9-4,4.1-4.8
				c2.3-0.9,4.7-1.1,7.1-0.9c3.9,0.3,8.1,1.1,11.7,2.6c3.5,1.5,7.2,2.9,11.1,3c1,0,2,0,2.9-0.1c1.9-0.2,4-0.6,5.8-1.3
				c2.3-1,4.4-2.3,6.9-3.1c3.8-1.2,7.8-1.4,11.7-0.7c3.3,0.6,6.4,2.1,7.6,5.5l8.1,26.5c0.7,2.9,1,5.9,1,8.9L265.8,264.3L265.8,264.3
				z"/>
		</g>
	</g>
</g>
</svg>
