<?xml version="1.0" encoding="utf-8"?>
<!-- Generator: Adobe Illustrator 22.0.1, SVG Export Plug-In . SVG Version: 6.00 Build 0)  -->
<svg version="1.1" xmlns="http://www.w3.org/2000/svg" xmlns:xlink="http://www.w3.org/1999/xlink" x="0px" y="0px"
	 viewBox="0 0 254 288.7" style="enable-background:new 0 0 254 288.7;" xml:space="preserve">
<style type="text/css">
	.st0{fill:#33508D;}
	.st1{fill:#FAF8F5;}
	.st2{display:none;}
	.st3{display:inline;}
	.st4{fill:#EACD4D;}
	.st5{fill:#708042;}
	.st6{fill:#C56A36;}
	.st7{fill:#ACC5E0;}
	.st8{fill:#CCA79C;}
	.st9{fill:none;stroke:#33508D;stroke-width:23.1665;stroke-miterlimit:10;}
</style>
<g id="레이어_1">
	<path class="st0" d="M236.7,58.9H17.3c-3.1,0-5.5,2.7-5.2,5.7l20.3,219.4c0.3,2.6,2.5,4.6,5.2,4.6h178.7c2.7,0,4.9-2,5.2-4.6
		l20.3-219.4C242.2,61.6,239.8,58.9,236.7,58.9z M127,239.7c-43.1,0-78.1-35-78.1-78.1c0-43.1,35-78.1,78.1-78.1s78.1,35,78.1,78.1
		C205.1,204.7,170.1,239.7,127,239.7z"/>
	<path class="st0" d="M250.2,48.6H3.9c-2.1,0-3.9-1.7-3.9-3.9V3.9C0,1.7,1.7,0,3.9,0h246.3c2.1,0,3.9,1.7,3.9,3.9v40.9
		C254,46.9,252.3,48.6,250.2,48.6z"/>
	<g>
		<path class="st1" d="M130.5,262.3c-0.6-0.1-1.1,0-1.6,0.2c-0.8,0.4-1.1,1.2-1.1,1.9c0,0.9,0.6,1.8,1.5,2.4c0,0,0.1,0.1,0.1,0.1
			c0.1,0.1,0.2,0.1,0.3,0.2c0.2,0.1,0.5,0.4,0.5,0.7c0.1,0.3-0.1,0.6-0.3,0.9c-0.4,0.4-1.2,0.4-1.7,0.1c-0.3-0.2-0.5-0.4-0.6-0.8
			c-0.2-0.6-0.4-1-0.7-1.1c-0.2-0.1-0.5-0.1-0.7,0c-0.2,0.1-0.4,0.3-0.4,0.6c0,0.1,0,0.1,0,0.2c-0.5,1.2-1.1,1.9-1.8,1.6
			c-0.1-0.1-0.2-0.1-0.3-0.3c-0.2-0.4,0-0.8,0.1-1.2c0.1-0.2,0.2-0.4,0.2-0.7c0.2-0.5,0.3-0.9,0.5-1.4c0.1-0.4,0.3-0.7,0.4-1.1
			c0.1-0.2,0.1-0.4,0.2-0.5c0-0.1,0.1-0.2,0.1-0.4c0,0,0,0,0,0c0-0.1,0-0.2,0-0.2c0-0.1,0-0.1,0-0.2c0-0.1,0-0.1-0.1-0.2
			c0-0.1,0-0.1-0.1-0.2c0,0-0.1-0.1-0.1-0.1c0,0-0.1-0.1-0.1-0.1c-0.1,0-0.1-0.1-0.2-0.1c-0.1,0-0.1,0-0.2,0c-0.1,0-0.3,0-0.3,0
			c-0.2,0-0.3,0.1-0.4,0.2c-0.3,0.2-0.4,0.6-0.5,0.9c-0.1,0.2-0.1,0.3-0.2,0.5c-0.1,0.2-0.2,0.5-0.3,0.7c-0.1,0.3-0.2,0.5-0.3,0.8
			c-0.1,0.3-0.2,0.5-0.3,0.8c-0.1,0.2-0.2,0.5-0.2,0.7c-0.1,0.2-0.1,0.3-0.2,0.5c0,0.1,0,0.1-0.1,0.2l0,0.1c0,0.1-0.1,0.2-0.2,0.3
			c-0.1,0.1-0.1,0.2-0.2,0.2c-0.1,0.1-0.2,0.2-0.3,0.3c-0.1,0-0.1,0.1-0.2,0.1c-0.2,0-0.4,0-0.5-0.1c-0.5-0.4-0.3-1.1-0.3-1.6
			c0-0.3,0.1-0.5,0.2-0.7c0.1-0.3,0.2-0.6,0.4-0.9c0.1-0.3,0.3-0.6,0.5-0.8c0.2-0.2,0.4-0.4,0.6-0.5c0.2-0.1,0.4-0.1,0.6-0.1
			c0.1,0,0.2-0.1,0.2-0.2c0-0.1,0.1-0.3,0.2-0.6c0.1-0.2,0.1-0.3,0.2-0.4c0-0.1,0-0.2-0.1-0.3c-0.3-0.2-0.8-0.3-1.7-0.1
			c-1.3,0.4-2.8,2.2-3.2,4.4c-0.1,0.6-0.6,2.2-1.7,2.3c-1.3,0.1-0.4-2-0.4-2s2.5-7.2,2.7-7.6c0.2-0.4,0.3-1.4-0.6-1.6
			c-0.9-0.1-1.3,1-1.3,1l-3,8.6c-0.5,1.2-1.1,1.9-1.8,1.6c-0.1-0.1-0.2-0.1-0.3-0.3c-0.2-0.4,0-0.8,0.1-1.2c0.1-0.2,0.2-0.4,0.2-0.7
			c0.2-0.5,0.3-0.9,0.5-1.4c0.1-0.4,0.3-0.7,0.4-1.1c0.1-0.2,0.1-0.4,0.2-0.5c0-0.1,0.1-0.2,0.1-0.4c0,0,0,0,0,0c0-0.1,0-0.2,0-0.2
			c0-0.1,0-0.1,0-0.2c0-0.1,0-0.1-0.1-0.2c0-0.1,0-0.1-0.1-0.2c0,0-0.1-0.1-0.1-0.1c0,0-0.1-0.1-0.1-0.1c-0.1,0-0.1-0.1-0.2-0.1
			c-0.1,0-0.1,0-0.2,0c-0.1,0-0.3,0-0.3,0c-0.2,0-0.3,0.1-0.4,0.2c-0.3,0.2-0.4,0.6-0.5,0.9c-0.1,0.2-0.1,0.3-0.2,0.5
			c-0.1,0.2-0.2,0.5-0.3,0.7c-0.1,0.3-0.2,0.5-0.3,0.8c-0.1,0.3-0.2,0.5-0.3,0.8c-0.1,0.2-0.2,0.5-0.2,0.7c-0.1,0.2-0.1,0.3-0.2,0.5
			c0,0.1,0,0.1-0.1,0.2l0,0.1c0,0.1-0.1,0.2-0.2,0.3c-0.1,0.1-0.1,0.2-0.2,0.2c-0.1,0.1-0.2,0.2-0.3,0.3c-0.1,0-0.1,0.1-0.2,0.1
			c-0.2,0-0.4,0-0.5-0.1c-0.5-0.4-0.3-1.1-0.3-1.6c0-0.3,0.1-0.5,0.2-0.7c0.1-0.3,0.2-0.6,0.4-0.9c0.1-0.3,0.3-0.6,0.5-0.8
			c0.2-0.2,0.4-0.4,0.6-0.5c0.2-0.1,0.4-0.1,0.6-0.1c0.1,0,0.2-0.1,0.2-0.2c0-0.1,0.1-0.3,0.2-0.6c0.1-0.2,0.1-0.3,0.2-0.4
			c0-0.1,0-0.2-0.1-0.3c-0.3-0.2-0.8-0.3-1.7-0.1c-1.3,0.4-2.7,2.1-3.2,4.2c-0.5,1.9-1.5,2.5-2.2,2.6c-1,0.1-1.9-0.2-2.6-0.7
			l-0.1-0.1c-0.2-0.2-0.5-0.4-1-0.6l2.3-6.5l0.8-2.3c0.1-0.3,0.4-0.6,0.7-0.6c0.1,0,0.3,0,0.4,0c0,0,0.1,0,0.1,0
			c0.2,0.1,0.5,0.5,0.5,0.9c0,0.1,0,0.2,0,0.3c-0.1,0.5-0.4,0.8-0.8,1.1c-0.3,0.3-0.8,0.5-1.1,0.7c-0.1,0-0.1,0.1-0.1,0.1l-0.6,1.5
			c-0.1,0.2,0.1,0.4,0.3,0.3c0.4-0.1,0.8-0.3,0.8-0.3c1.2-0.5,2.3-1.3,2.9-2.5c0.3-0.6,0.4-1.3,0.3-2c0-0.1,0-0.2-0.1-0.3
			c-0.4-1.2-1.6-2-2.8-1.9c-0.4,0-0.7,0.1-1,0.3c-0.4,0.2-0.7,0.5-1,0.9c-0.2,0.3-0.4,0.7-0.6,1.2l-1.1,3.1
			c-0.6,0.2-1.2,0.4-1.8,0.3c-0.6-0.1-1.1-0.4-1.5-0.9c-0.1-0.1-0.1-0.2-0.2-0.2c-0.1-0.1-0.2-0.1-0.3,0c-0.1,0.1-0.1,0.2-0.2,0.3
			c-0.1,0.5,0,1,0.2,1.5c0.1,0.1,0.2,0.3,0.3,0.4c0.1,0.1,0.2,0.2,0.4,0.3c0.5,0.4,1.3,0.6,1.9,0.5c0.2,0,0.4,0,0.6-0.1l-1.4,3.9
			c-0.1,0.2-0.2,0.4-0.4,0.6c-0.3,0.3-0.8,0.5-1.2,0.5c-0.1,0-0.1,0-0.2,0c-0.3,0-0.7-0.2-0.8-0.5c0-0.1,0-0.3,0-0.4
			c0.1-0.1,0.3-0.3,0.7-0.3c0,0,0.5,0,1,0.2c0.1,0,0.2,0,0.3-0.1c0.1-0.1,0.1-0.2,0.2-0.4c0.1-0.2,0.2-0.6,0.3-0.8
			c0-0.1,0-0.2-0.1-0.3c-0.4-0.1-0.8-0.2-1.2-0.3c-0.6-0.1-1.1,0-1.6,0.1c-0.4,0.1-0.7,0.3-1,0.5c-0.5,0.4-0.7,1-0.7,1.6
			c0,0,0,0,0,0c0,0.2,0.1,0.5,0.2,0.7c0.2,0.3,0.4,0.7,0.7,0.9c0.3,0.3,0.7,0.4,1.1,0.5c0.3,0.1,0.5,0.1,0.8,0.1c0.3,0,0.5,0,0.8,0
			c0.4-0.1,0.8-0.2,1.2-0.5c0.2-0.1,0.3-0.2,0.5-0.4c0,0,0.1-0.1,0.2-0.2c0.1-0.1,0.1-0.1,0.2-0.2c0,0,0,0,0,0
			c0.3,0.3,0.5,0.4,0.6,0.5c0,0,0,0,0,0c0.5,0.5,1.1,0.9,1.7,1.1c1,0.4,2.3,0.5,3.3,0c0.6-0.3,1.1-0.8,1.5-1.4
			c0.5,0.9,1.3,1.1,2.1,1c0.2,0,0.3-0.1,0.4-0.1c0.4-0.2,0.8-0.5,1-0.8c0,0,0.4,0.5,1.1,0.8c0.2,0.1,0.5,0.2,0.9,0.2
			c0.7,0,1.5-0.5,2-0.9c0,0,0.1,0.1,0.1,0.1c0.6,0.6,1.6,0.9,2.4,0.7c0.8-0.1,1.6-0.6,2.1-1.1c0.4,1.1,1.3,1.3,2.2,1.1
			c0.2,0,0.3-0.1,0.4-0.1c0.4-0.2,0.8-0.5,1-0.8c0,0,0.4,0.5,1.1,0.8c0.2,0.1,0.5,0.2,0.9,0.2c1.2,0,2.5-1.3,2.6-1.4l0,0l0,0
			c0.3,0.5,0.8,0.9,1.4,1.2c0.4,0.2,0.9,0.3,1.4,0.3c0.1,0,0.1,0,0.2,0c0.8,0,1.6-0.4,2.2-0.9c0.7-0.6,0.9-1.5,0.7-2.4
			c-0.2-0.8-0.9-1.3-1.6-1.8c-0.1,0-0.1-0.1-0.2-0.1c-0.2-0.1-0.3-0.3-0.5-0.4c-0.2-0.3-0.4-0.6-0.3-0.8c0-0.2,0.1-0.3,0.3-0.4l0,0
			c0.1,0,0.2-0.1,0.3-0.1c0.2,0,0.4,0,0.6,0.2c0.1,0.1,0.2,0.2,0.3,0.3c0.1,0.1,0.2,0.2,0.3,0.3c0.2,0.2,0.5,0.2,0.7,0.2
			c0.4-0.1,0.6-0.5,0.5-0.9C132.4,263,131.4,262.4,130.5,262.3z"/>
		<path class="st1" d="M142,264.1c0-0.1,0.1-0.2,0.1-0.3c0.1-0.2,0.1-0.5,0-0.8c0-0.2-0.1-0.3-0.3-0.4c-0.1-0.1-0.2-0.1-0.3-0.2
			c-0.1,0-0.1,0-0.2,0c-0.7-0.1-1.1,0.8-1.1,0.8l-2.1,4.5c0-0.8,0-1.9-0.1-2.4c0-0.8-0.1-1.6-0.9-1.7c-0.7-0.1-1.1,0.8-1.1,0.9
			l-1.3,3.3c0-0.3,0-0.6,0-0.9c0-1.1,0-2.3,0-2.6c0,0,0,0,0-0.1c0,0,0,0,0,0c0-0.2,0-0.3,0-0.4c0-0.4-0.1-1.1-0.6-1.3
			c-0.1,0-0.2-0.1-0.4,0c0,0,0,0-0.1,0c-0.9,0.1-0.8,1.3-0.8,1.3l0.1,5.1c0,0.1,0,0.3,0,0.4c0.1,0.5,0.2,0.9,0.5,1.2
			c0.3,0.3,0.7,0.4,1,0.3c0.6-0.1,1-0.8,1.2-1.4c0.1-0.3,0.2-0.6,0.3-0.8c0.1-0.3,0.2-0.5,0.3-0.8c0.1-0.2,0.2-0.5,0.3-0.7
			c0.1-0.2,0.1-0.4,0.2-0.5c0,0,0.1,2.7,0.1,2.7c0,0.8,0.4,1.6,1.3,1.6c0.6,0,1-0.6,1.3-1.1c0.1-0.2,1.5-3.4,2.3-5
			C141.9,264.4,142,264.2,142,264.1z"/>
		<path class="st1" d="M157.4,266.6c0-0.1,0.1-0.2,0.1-0.3l0.8-2.2c1.1,0,1.9-0.1,2.5-1.2c0.1-0.2,0.1-0.6-0.2-0.5
			c-0.1,0-0.1,0-0.2,0c-0.4,0.1-0.8,0.1-1.2,0.1c-0.1,0-0.1,0-0.2,0c0,0,0,0,0,0c0,0,0,0,0,0c0,0-0.1,0-0.2,0c0,0,0,0,0,0
			c0,0,0,0,0,0c0.2-0.6,0.4-1,0.4-1.1c0.2-0.4,0.3-1.4-0.6-1.6c0,0-0.1,0-0.1,0c-0.2,0-0.4,0.1-0.5,0.1c-0.4,0.3-0.6,0.8-0.6,0.8
			l-0.6,1.7l0,0c0,0,0,0,0,0c-0.4,0-1.1-0.1-1.5-0.1c-0.2,0-0.5,0-0.4,0.3c0.2,0.7,0.8,1.1,1.4,1.2l-0.9,2.5c0,0,0,0.1,0,0.1
			l-0.1,0.2c-0.4,0.8-1.3,1.5-2,1.8c-0.6,0.3-1.7,0.4-2.3,0.3c-0.4-0.1-0.8-0.3-1-0.6c-0.2-0.4-0.3-0.8-0.2-1.2
			c0.1-0.5,0.2-0.9,0.4-1.3c0.4-0.8,0.8-1.4,1.3-1.6c0,0,0,0,0,0c0.3-0.2,0.7-0.3,1-0.2c0.4,0.1,0.6,0.4,0.6,0.8
			c-0.1,0.4-0.4,0.6-0.8,0.7c-0.3,0.1-0.7,0.2-1,0.2c-0.1,0-0.2,0-0.2,0c-0.1,0-0.2,0-0.2,0.1c-0.1,0.1-0.1,0.1-0.1,0.2
			c-0.1,0.2-0.3,0.7-0.3,1.1c0,0.1,0.1,0.3,0.2,0.3c0.4,0,0.7,0,1.2-0.1c0.4-0.1,0.9-0.2,1.2-0.3c0.5-0.2,0.9-0.5,1.2-0.9
			c0.9-1.3,0.4-3.3-1.2-3.6c-0.5-0.1-0.9-0.1-1.4,0.1c-0.2,0.1-0.4,0.1-0.6,0.2c-0.1,0.1-0.3,0.1-0.4,0.2c-1.2,0.7-2.1,2.1-2.6,3.4
			c0,0.1,0,0.1,0,0.2c-0.1,0.4-0.2,0.9-0.2,1.3c0,0,0,0,0,0c0,0,0,0,0,0c0,0.1,0,0.2,0,0.4c-0.3,0.2-0.7,0.4-1,0.6
			c-0.6,0.3-1.7,0.4-2.3,0.3c-0.4-0.1-0.8-0.3-1-0.6c-0.2-0.4-0.3-0.8-0.2-1.2c0.1-0.5,0.2-0.9,0.4-1.3c0.4-0.8,0.8-1.4,1.3-1.6
			c0,0,0,0,0,0c0.3-0.2,0.7-0.3,1-0.2c0.4,0.1,0.6,0.4,0.6,0.8c-0.1,0.4-0.4,0.6-0.8,0.7c-0.3,0.1-0.7,0.2-1,0.2c-0.1,0-0.2,0-0.2,0
			c-0.1,0-0.2,0-0.2,0.1c-0.1,0.1-0.1,0.1-0.1,0.2c-0.1,0.2-0.3,0.7-0.3,1.1c0,0.1,0.1,0.3,0.2,0.3c0.4,0,0.7,0,1.2-0.1
			c0.4-0.1,0.9-0.2,1.2-0.3c0.5-0.2,0.9-0.5,1.2-0.9c0.9-1.3,0.4-3.3-1.2-3.6c-0.5-0.1-0.9-0.1-1.4,0.1c-0.2,0.1-0.4,0.1-0.6,0.2
			c-0.1,0.1-0.3,0.1-0.4,0.2c-1.2,0.7-2.1,2.1-2.6,3.4c0,0.1,0,0.1,0,0.2c-0.1,0.4-0.2,0.9-0.2,1.3c0,0,0,0,0,0c0,0,0,0,0,0
			c0,0.3,0,1,0.4,1.6c0,0,0,0,0,0c0,0,0.1,0.1,0.1,0.1c0,0,0,0,0,0c0,0,0,0.1,0.1,0.1c0,0,0.1,0.1,0.1,0.1c0.7,0.8,1.7,1.1,2.9,1.1
			c0.8,0,1.8-0.3,2.6-0.7c0.3-0.2,0.6-0.4,0.8-0.6c0,0,0,0.1,0.1,0.1c0,0,0.1,0.1,0.1,0.1c0.7,0.8,1.7,1.1,2.9,1.1
			c0.8,0,1.8-0.3,2.6-0.7c0.3-0.2,0.7-0.4,1-0.7c0,0,0.1-0.1,0.1-0.1c0,0,0.1-0.1,0.3-0.3c0,0.1,0.1,0.2,0.1,0.3
			c0.3,0.6,0.8,1.1,1.4,1.3c0.7,0.3,1.4,0.2,2.1,0c0.6-0.3,1.1-0.7,1.4-1.2c0.2-0.3,0.3-0.5,0.3-0.8c0.1-0.3,0.1-0.6-0.1-0.9
			c-0.1-0.1-0.2-0.2-0.3-0.1c-0.2,0.3-0.4,0.5-0.7,0.8c-0.5,0.5-1.5,1.1-2.1,0.5c-0.1-0.1-0.1-0.1-0.2-0.2c-0.2-0.3-0.2-0.9-0.1-1.2
			C157.2,267.1,157.3,266.8,157.4,266.6z"/>
	</g>
	<path class="st0" d="M65.9,128.7c1-0.3,2-1,2.8-1.6c3.7-2.8,6.2-6.8,8.8-10.5c1.2-1.7,2.5-3.4,4.6-3.9c1-0.2,1.8-0.2,2.5,0.6
		c0.5,0.6,0.8,1.5,0.9,2.3c0.2,1.4,0.2,2.9,0.2,4.4c-0.1,2.6-0.7,7.9,2.9,8.6c5.1,1.1,6.3-12.7,7.2-15.9c0.7-2.4,1.9-4.8,3.9-6.2
		c2.1-1.4,5.1-1.6,6.9,0.1c1.6,1.5,1.9,3.8,3.1,5.6c1.5,2.4,4.2,2.5,6.3,0.9c2-1.5,3-3.9,4.5-5.8c0.8-1,1.8-1.8,2.9-2.3
		c1.9-0.8,4.2-1,6.1-0.2c1.7,0.7,2.9,2.1,3.9,3.6c1,1.5,1.7,3.2,2.5,4.8c1,2,1.8,4.2,2.7,6.3c0.9,2.1,1.9,4.3,3.2,6.3
		c1,1.6,2.6,4,4.6,4.1c1,0.1,2-0.5,2.8-1.2c2.5-2.4,2.5-6.9,2.7-10.2c0.1-1.8,0.3-3.7,0.7-5.5c0.2-0.9,0.5-2,1.2-2.7
		c0.6-0.7,1.6-0.9,2.5-0.7c0.9,0.2,1.7,0.7,2.2,1.5c0.8,1,1.3,2.3,2,3.4c0.6,1,1.4,1.9,2.7,1.9c0.3,0,0.5,0,0.8-0.1
		c1.8-0.5,2.7-2.6,3.8-3.9c0.6-0.6,1.2-1.3,2.1-1.4c1.3-0.2,2.4,0.7,3.4,1.5c1,0.8,1.9,1.7,2.8,2.7c1.3,1.4,2.4,3,3.4,4.6
		c1.7,2.9,3,6,5.9,7.9c0.9,0.6,2,1.1,3.1,1c1.7-0.2,2.1-1.9,1.9-3.4c-0.1-0.7-0.3-1.3-0.7-1.9c-12.7-20.9-35.6-34.9-61.9-34.9
		c-27.2,0-50.9,15-63.2,37.2c-0.3,0.5-0.5,1-0.6,1.5C63.5,128.6,64.5,129.1,65.9,128.7z"/>
	<g>
		<path class="st0" d="M106.1,184.8H73.4l10.1-10.5c2.7-2.8,4.8-5.1,6.3-7c1.5-1.9,2.6-3.6,3.4-4.9c0.7-1.3,1.2-2.4,1.4-3.2
			c0.2-0.8,0.3-1.5,0.3-2.1c0-0.6-0.1-1.2-0.3-1.8c-0.2-0.6-0.5-1.1-0.9-1.5c-0.4-0.4-0.9-0.8-1.4-1.1c-0.6-0.3-1.2-0.4-2-0.4
			c-1.4,0-2.6,0.5-3.4,1.4c-0.8,0.9-1.2,2.1-1.2,3.5c0,0.4,0.1,1,0.2,1.7H74.2c0-2.4,0.4-4.5,1.2-6.5c0.8-1.9,1.9-3.6,3.3-5
			c1.4-1.4,3.1-2.5,5-3.2c1.9-0.8,4-1.1,6.3-1.1c2.3,0,4.4,0.4,6.3,1.1c1.9,0.7,3.6,1.7,5,3c1.4,1.3,2.5,2.8,3.3,4.6
			c0.8,1.8,1.2,3.7,1.2,5.8c0,2.2-0.5,4.3-1.4,6.2c-1,1.9-2.5,3.8-4.6,5.8l-6.7,6.3h13.2V184.8z"/>
		<path class="st0" d="M139.2,168.4h4.9v8.1h-4.9v8.4h-9.8v-8.4h-19.7v-6.8l15.5-25.5h13.9V168.4z M129.3,168.4v-16l-9.3,16H129.3z"
			/>
		<path class="st0" d="M146.2,164.4c0-3.2,0.4-6.2,1.3-8.8c0.8-2.6,2-4.9,3.6-6.8c1.5-1.9,3.3-3.3,5.5-4.3s4.4-1.5,7-1.5
			c2.5,0,4.8,0.5,7,1.5c2.1,1,3.9,2.5,5.5,4.3c1.5,1.9,2.7,4.1,3.5,6.8c0.8,2.6,1.3,5.6,1.3,8.8s-0.4,6.2-1.3,8.8
			c-0.8,2.6-2,4.9-3.5,6.8c-1.5,1.9-3.3,3.3-5.5,4.4c-2.1,1-4.4,1.5-7,1.5c-2.6,0-4.9-0.5-7-1.5c-2.1-1-3.9-2.5-5.5-4.4
			c-1.5-1.9-2.7-4.2-3.6-6.8C146.6,170.6,146.2,167.7,146.2,164.4z M156.7,164.4c0,1.8,0.2,3.4,0.5,4.9c0.3,1.5,0.8,2.8,1.4,3.8
			c0.6,1.1,1.3,1.9,2.1,2.5c0.8,0.6,1.8,0.9,2.8,0.9c1,0,1.9-0.3,2.8-0.9c0.8-0.6,1.6-1.4,2.1-2.5c0.6-1.1,1-2.4,1.4-3.8
			c0.3-1.5,0.5-3.1,0.5-4.9c0-1.8-0.2-3.4-0.5-4.9c-0.3-1.5-0.8-2.8-1.4-3.8c-0.6-1.1-1.3-1.9-2.1-2.5c-0.8-0.6-1.8-0.9-2.8-0.9
			c-1,0-2,0.3-2.8,0.9c-0.8,0.6-1.5,1.4-2.1,2.5c-0.6,1.1-1.1,2.3-1.4,3.8C156.8,161,156.7,162.7,156.7,164.4z"/>
	</g>
	<g>
		<path class="st0" d="M95.8,203.3l1.5,3.8l1.5-3.8h1.8l-2.6,6.3h-1.3l-2.6-6.3H95.8z"/>
		<path class="st0" d="M104.6,208.5h-2.3l-0.4,1.1h-1.7l2.4-6.3h1.8l2.4,6.3H105L104.6,208.5z M104.2,207.3l-0.7-2.1l-0.7,2.1H104.2
			z"/>
		<path class="st0" d="M107.4,209.6v-6.3h1.6l3,3.8v-3.8h1.6v6.3h-1.6l-3-3.8v3.8H107.4z"/>
		<path class="st0" d="M116.6,203.3v6.3H115v-6.3H116.6z"/>
		<path class="st0" d="M119.6,203.3v4.9h2v1.4H118v-6.3H119.6z"/>
		<path class="st0" d="M124,203.3v4.9h2v1.4h-3.6v-6.3H124z"/>
		<path class="st0" d="M130.9,208.5h-2.3l-0.4,1.1h-1.7l2.4-6.3h1.8l2.4,6.3h-1.7L130.9,208.5z M130.5,207.3l-0.7-2.1l-0.7,2.1
			H130.5z"/>
		<path class="st0" d="M136.6,203.3h2.4c0.6,0,1,0.1,1.3,0.4c0.3,0.3,0.4,0.7,0.4,1.2c0,0.3-0.1,0.6-0.2,0.8
			c-0.1,0.2-0.3,0.4-0.5,0.5c0.2,0,0.4,0.1,0.6,0.2c0.2,0.1,0.3,0.2,0.4,0.3c0.1,0.1,0.2,0.3,0.2,0.4c0,0.2,0.1,0.3,0.1,0.5
			c0,0.3-0.1,0.6-0.2,0.8c-0.1,0.2-0.2,0.4-0.4,0.6c-0.2,0.2-0.4,0.3-0.7,0.3c-0.3,0.1-0.6,0.1-0.9,0.1h-2.6V203.3z M138.2,205.8
			h0.3c0.5,0,0.8-0.2,0.8-0.6c0-0.4-0.3-0.6-0.8-0.6h-0.3V205.8z M138.2,208.3h0.4c0.4,0,0.7-0.1,0.9-0.2c0.2-0.1,0.3-0.3,0.3-0.5
			s-0.1-0.4-0.3-0.5c-0.2-0.1-0.5-0.2-0.9-0.2h-0.4V208.3z"/>
		<path class="st0" d="M145.9,204.7H144v1h1.8v1.4H144v1.1h1.9v1.4h-3.6v-6.3h3.6V204.7z"/>
		<path class="st0" d="M150.9,208.5h-2.3l-0.4,1.1h-1.7l2.4-6.3h1.8l2.4,6.3h-1.7L150.9,208.5z M150.5,207.3l-0.7-2.1l-0.7,2.1
			H150.5z"/>
		<path class="st0" d="M153.7,209.6v-6.3h1.6l3,3.8v-3.8h1.6v6.3h-1.6l-3-3.8v3.8H153.7z"/>
	</g>
</g>
<g id="레이어_3" class="st2">
	<g class="st3">
		<path class="st0" d="M504.2,34.6h-69.8c-1,0-1.8-0.8-1.8-1.8V9c0-4.9,3.9-8.8,8.8-8.8h55.7c4.9,0,8.8,3.9,8.8,8.8v23.9
			C505.9,33.8,505.1,34.6,504.2,34.6z"/>
		<path class="st0" d="M531.3,127.1L506.4,43c-0.3-1.2-1.3-2-2.5-2h-69.2c-1.2,0-2.3,0.8-2.5,2l-24.9,84.1c-0.3,1.5-0.5,3-0.5,4.5
			v130.5c0,14.6,11.8,26.4,26.4,26.4h72.2c14.6,0,26.4-11.8,26.4-26.4V131.6C531.8,130.1,531.6,128.6,531.3,127.1z M513.2,256.5
			c0,7.2-5.8,13-13,13h-61.8c-7.2,0-13-5.8-13-13V138.5c0-3,0.3-6,1-8.9c0.1-0.2,0.1-0.4,0.2-0.6c0.4-1.4,0.9-2.8,1.3-4.1
			c0.7-2.2,1.4-4.4,2.1-6.6c0.8-2.4,1.6-4.8,2.4-7.2c0.7-2,1.3-4.1,2-6.1c0.2-0.7,0.4-1.4,0.7-2.1c0.7-2.2,1.9-4,4.1-4.8
			c2.3-0.9,4.7-1.1,7.1-0.9c3.9,0.3,8.1,1.1,11.7,2.6c3.5,1.5,7.2,2.9,11.1,3c1,0,2,0,2.9-0.1c1.9-0.2,4-0.6,5.8-1.3
			c2.3-1,4.4-2.3,6.9-3.1c3.8-1.2,7.8-1.4,11.7-0.7c3.3,0.6,6.4,2.1,7.6,5.5l8.1,26.5c0.7,2.9,1,5.9,1,8.9V256.5z"/>
		<path class="st0" d="M643.5,34.6h-69.8c-1,0-1.8-0.8-1.8-1.8V9c0-4.9,3.9-8.8,8.8-8.8h55.7c4.9,0,8.8,3.9,8.8,8.8v23.9
			C645.3,33.8,644.5,34.6,643.5,34.6z"/>
		<path class="st0" d="M670.6,127.1L645.7,43c-0.3-1.2-1.3-2-2.5-2H574c-1.2,0-2.3,0.8-2.5,2l-24.9,84.1c-0.3,1.5-0.5,3-0.5,4.5
			v130.5c0,14.6,11.8,26.4,26.4,26.4h72.2c14.6,0,26.4-11.8,26.4-26.4V131.6C671.1,130.1,671,128.6,670.6,127.1z M652.6,256.5
			c0,7.2-5.8,13-13,13h-61.8c-7.2,0-13-5.8-13-13V138.5c0-3,0.3-6,1-8.9c0.1-0.2,0.1-0.4,0.2-0.6c0.4-1.4,0.9-2.8,1.3-4.1
			c0.7-2.2,1.4-4.4,2.1-6.6c0.8-2.4,1.6-4.8,2.4-7.2c0.7-2,1.3-4.1,2-6.1c0.2-0.7,0.4-1.4,0.7-2.1c0.7-2.2,1.9-4,4.1-4.8
			c2.3-0.9,4.7-1.1,7.1-0.9c3.9,0.3,8.1,1.1,11.7,2.6c3.5,1.5,7.2,2.9,11.1,3c1,0,2,0,2.9-0.1c1.9-0.2,4-0.6,5.8-1.3
			c2.3-1,4.4-2.3,6.9-3.1c3.8-1.2,7.8-1.4,11.7-0.7c3.3,0.6,6.4,2.1,7.6,5.5l8.1,26.5c0.7,2.9,1,5.9,1,8.9V256.5z"/>
	</g>
</g>
<g id="레이어_2" class="st2">
	<g class="st3">
		<g>
			<g>
				<g>
					<path class="st4" d="M922.2,148.7l-23.7-8.4c-0.5-0.2-1.1-0.2-1.6,0l-23.7,8.4c-1.8,0.7-1.8,3.2,0,4l23.7,9.5
						c0.5,0.2,1.1,0.2,1.6,0l23.7-9.5C924,152,924,149.5,922.2,148.7z"/>
				</g>
				<g>
					<g>
						<path class="st4" d="M924.9,156.4l-23.7,9.7c-0.8,0.3-1.3,1.1-1.3,2v34.8c0,1.5,1.6,2.6,3,2l23.7-10.8c0.8-0.3,1.3-1.1,1.3-2
							v-33.7C927.9,156.9,926.3,155.8,924.9,156.4z"/>
					</g>
					<g>
						<path class="st4" d="M870.5,156.4l23.7,9.7c0.8,0.3,1.3,1.1,1.3,2v34.8c0,1.5-1.6,2.6-3,2l-23.7-10.8c-0.8-0.3-1.3-1.1-1.3-2
							v-33.7C867.6,156.9,869.1,155.8,870.5,156.4z"/>
					</g>
				</g>
			</g>
			<g>
				<g>
					<path class="st5" d="M986.8,148.7l-23.7-8.4c-0.5-0.2-1.1-0.2-1.6,0l-23.7,8.4c-1.8,0.7-1.8,3.2,0,4l23.7,9.5
						c0.5,0.2,1.1,0.2,1.6,0l23.7-9.5C988.6,152,988.6,149.5,986.8,148.7z"/>
				</g>
				<g>
					<g>
						<path class="st5" d="M989.5,156.4l-23.7,9.7c-0.8,0.3-1.3,1.1-1.3,2v34.8c0,1.5,1.6,2.6,3,2l23.7-10.8c0.8-0.3,1.3-1.1,1.3-2
							v-33.7C992.5,156.9,990.9,155.8,989.5,156.4z"/>
					</g>
					<g>
						<path class="st5" d="M935.2,156.4l23.7,9.7c0.8,0.3,1.3,1.1,1.3,2v34.8c0,1.5-1.6,2.6-3,2l-23.7-10.8c-0.8-0.3-1.3-1.1-1.3-2
							v-33.7C932.2,156.9,933.7,155.8,935.2,156.4z"/>
					</g>
				</g>
			</g>
			<g>
				<g>
					<path class="st6" d="M1051.5,148.7l-23.7-8.4c-0.5-0.2-1.1-0.2-1.6,0l-23.7,8.4c-1.8,0.7-1.8,3.2,0,4l23.7,9.5
						c0.5,0.2,1.1,0.2,1.6,0l23.7-9.5C1053.2,152,1053.2,149.5,1051.5,148.7z"/>
				</g>
				<g>
					<g>
						<path class="st6" d="M1054.2,156.4l-23.7,9.7c-0.8,0.3-1.3,1.1-1.3,2v34.8c0,1.5,1.6,2.6,3,2l23.7-10.8c0.8-0.3,1.3-1.1,1.3-2
							v-33.7C1057.1,156.9,1055.6,155.8,1054.2,156.4z"/>
					</g>
					<g>
						<path class="st6" d="M999.8,156.4l23.7,9.7c0.8,0.3,1.3,1.1,1.3,2v34.8c0,1.5-1.6,2.6-3,2l-23.7-10.8c-0.8-0.3-1.3-1.1-1.3-2
							v-33.7C996.8,156.9,998.4,155.8,999.8,156.4z"/>
					</g>
				</g>
			</g>
			<g>
				<g>
					<path class="st7" d="M954.2,91.2l-23.7-6.4c-0.5-0.2-1.1-0.2-1.6,0l-23.7,6.4c-1.8,0.7-1.8,3.2,0,4l23.7,7.4
						c0.5,0.2,1.1,0.2,1.6,0l23.7-7.4C956,94.5,956,92,954.2,91.2z"/>
				</g>
				<g>
					<g>
						<path class="st7" d="M956.9,98.9l-23.7,7.7c-0.8,0.3-1.3,1.1-1.3,2v34.8c0,1.5,1.6,2.6,3,2l23.7-8.8c0.8-0.3,1.3-1.1,1.3-2
							v-33.7C959.8,99.3,958.3,98.3,956.9,98.9z"/>
					</g>
					<g>
						<path class="st7" d="M902.5,98.9l23.7,7.7c0.8,0.3,1.3,1.1,1.3,2v34.8c0,1.5-1.6,2.6-3,2l-23.7-8.8c-0.8-0.3-1.3-1.1-1.3-2
							v-33.7C899.5,99.3,901.1,98.3,902.5,98.9z"/>
					</g>
				</g>
			</g>
			<g>
				<g>
					<path class="st8" d="M1018.8,91.2l-23.7-6.4c-0.5-0.2-1.1-0.2-1.6,0l-23.7,6.4c-1.8,0.7-1.8,3.2,0,4l23.7,7.4
						c0.5,0.2,1.1,0.2,1.6,0l23.7-7.4C1020.6,94.5,1020.6,92,1018.8,91.2z"/>
				</g>
				<g>
					<g>
						<path class="st8" d="M1021.5,98.9l-23.7,7.7c-0.8,0.3-1.3,1.1-1.3,2v34.8c0,1.5,1.6,2.6,3,2l23.7-8.8c0.8-0.3,1.3-1.1,1.3-2
							v-33.7C1024.5,99.3,1022.9,98.3,1021.5,98.9z"/>
					</g>
					<g>
						<path class="st8" d="M967.1,98.9l23.7,7.7c0.8,0.3,1.3,1.1,1.3,2v34.8c0,1.5-1.6,2.6-3,2l-23.7-8.8c-0.8-0.3-1.3-1.1-1.3-2
							v-33.7C964.2,99.3,965.7,98.3,967.1,98.9z"/>
					</g>
				</g>
			</g>
		</g>
		<g>
			<g>
				<path class="st0" d="M962.3,16.4c34.3,0,66.6,13.4,90.9,37.6c24.3,24.3,37.6,56.5,37.6,90.9c0,34.3-13.4,66.6-37.6,90.9
					c-24.3,24.3-56.5,37.6-90.9,37.6c-34.3,0-66.6-13.4-90.9-37.6c-24.3-24.3-37.6-56.5-37.6-90.9c0-34.3,13.4-66.6,37.6-90.9
					C895.7,29.7,928,16.4,962.3,16.4 M962.3-6.8c-83.8,0-151.7,67.9-151.7,151.7c0,83.8,67.9,151.7,151.7,151.7
					c83.8,0,151.7-67.9,151.7-151.7C1114,61.1,1046.1-6.8,962.3-6.8L962.3-6.8z"/>
			</g>
			<line class="st9" x1="1061.7" y1="45.5" x2="863" y2="244.2"/>
		</g>
	</g>
</g>
</svg>
