<?xml version="1.0" encoding="utf-8"?>
<!-- Generator: Adobe Illustrator 22.0.1, SVG Export Plug-In . SVG Version: 6.00 Build 0)  -->
<svg version="1.1" xmlns="http://www.w3.org/2000/svg" xmlns:xlink="http://www.w3.org/1999/xlink" x="0px" y="0px"
	 viewBox="0 0 264.4 288.3" style="enable-background:new 0 0 264.4 288.3;" xml:space="preserve">
<style type="text/css">
	.st0{display:none;}
	.st1{display:inline;fill:#33508D;}
	.st2{display:inline;}
	.st3{fill:#FAF8F5;}
	.st4{fill:#33508D;}
	.st5{fill:#EACD4D;}
	.st6{fill:#708042;}
	.st7{fill:#C56A36;}
	.st8{fill:#ACC5E0;}
	.st9{fill:#CCA79C;}
	.st10{fill:none;stroke:#33508D;stroke-width:23.1665;stroke-miterlimit:10;}
</style>
<g id="레이어_1" class="st0">
	<path class="st1" d="M247,58.7H27.6c-3.1,0-5.5,2.7-5.2,5.7l20.3,219.4c0.3,2.6,2.5,4.6,5.2,4.6h178.7c2.7,0,4.9-2,5.2-4.6
		l20.3-219.4C252.4,61.4,250,58.7,247,58.7z M137.3,239.5c-43.1,0-78.1-35-78.1-78.1c0-43.1,35-78.1,78.1-78.1s78.1,35,78.1,78.1
		C215.4,204.5,180.4,239.5,137.3,239.5z"/>
	<path class="st1" d="M260.4,48.4H14.2c-2.1,0-3.9-1.7-3.9-3.9V3.7c0-2.1,1.7-3.9,3.9-3.9h246.3c2.1,0,3.9,1.7,3.9,3.9v40.9
		C264.3,46.7,262.6,48.4,260.4,48.4z"/>
	<g class="st2">
		<path class="st3" d="M140.8,262.1c-0.6-0.1-1.1,0-1.6,0.2c-0.8,0.4-1.1,1.2-1.1,1.9c0,0.9,0.6,1.8,1.5,2.4c0,0,0.1,0.1,0.1,0.1
			c0.1,0.1,0.2,0.1,0.3,0.2c0.2,0.1,0.5,0.4,0.5,0.7c0.1,0.3-0.1,0.6-0.3,0.9c-0.4,0.4-1.2,0.4-1.7,0.1c-0.3-0.2-0.5-0.4-0.6-0.8
			c-0.2-0.6-0.4-1-0.7-1.1c-0.2-0.1-0.5-0.1-0.7,0c-0.2,0.1-0.4,0.3-0.4,0.6c0,0.1,0,0.1,0,0.2c-0.5,1.2-1.1,1.9-1.8,1.6
			c-0.1-0.1-0.2-0.1-0.3-0.3c-0.2-0.4,0-0.8,0.1-1.2c0.1-0.2,0.2-0.4,0.2-0.7c0.2-0.5,0.3-0.9,0.5-1.4c0.1-0.4,0.3-0.7,0.4-1.1
			c0.1-0.2,0.1-0.4,0.2-0.5c0-0.1,0.1-0.2,0.1-0.4c0,0,0,0,0,0c0-0.1,0-0.2,0-0.2c0-0.1,0-0.1,0-0.2c0-0.1,0-0.1-0.1-0.2
			c0-0.1,0-0.1-0.1-0.2c0,0-0.1-0.1-0.1-0.1c0,0-0.1-0.1-0.1-0.1c-0.1,0-0.1-0.1-0.2-0.1c-0.1,0-0.1,0-0.2,0c-0.1,0-0.3,0-0.3,0
			c-0.2,0-0.3,0.1-0.4,0.2c-0.3,0.2-0.4,0.6-0.5,0.9c-0.1,0.2-0.1,0.3-0.2,0.5c-0.1,0.2-0.2,0.5-0.3,0.7c-0.1,0.3-0.2,0.5-0.3,0.8
			c-0.1,0.3-0.2,0.5-0.3,0.8c-0.1,0.2-0.2,0.5-0.2,0.7c-0.1,0.2-0.1,0.3-0.2,0.5c0,0.1,0,0.1-0.1,0.2l0,0.1c0,0.1-0.1,0.2-0.2,0.3
			c-0.1,0.1-0.1,0.2-0.2,0.2c-0.1,0.1-0.2,0.2-0.3,0.3c-0.1,0-0.1,0.1-0.2,0.1c-0.2,0-0.4,0-0.5-0.1c-0.5-0.4-0.3-1.1-0.3-1.6
			c0-0.3,0.1-0.5,0.2-0.7c0.1-0.3,0.2-0.6,0.4-0.9c0.1-0.3,0.3-0.6,0.5-0.8c0.2-0.2,0.4-0.4,0.6-0.5c0.2-0.1,0.4-0.1,0.6-0.1
			c0.1,0,0.2-0.1,0.2-0.2c0-0.1,0.1-0.3,0.2-0.6c0.1-0.2,0.1-0.3,0.2-0.4c0-0.1,0-0.2-0.1-0.3c-0.3-0.2-0.8-0.3-1.7-0.1
			c-1.3,0.4-2.8,2.2-3.2,4.4c-0.1,0.6-0.6,2.2-1.7,2.3c-1.3,0.1-0.4-2-0.4-2s2.5-7.2,2.7-7.6c0.2-0.4,0.3-1.4-0.6-1.6
			c-0.9-0.1-1.3,1-1.3,1l-3,8.6c-0.5,1.2-1.1,1.9-1.8,1.6c-0.1-0.1-0.2-0.1-0.3-0.3c-0.2-0.4,0-0.8,0.1-1.2c0.1-0.2,0.2-0.4,0.2-0.7
			c0.2-0.5,0.3-0.9,0.5-1.4c0.1-0.4,0.3-0.7,0.4-1.1c0.1-0.2,0.1-0.4,0.2-0.5c0-0.1,0.1-0.2,0.1-0.4c0,0,0,0,0,0c0-0.1,0-0.2,0-0.2
			c0-0.1,0-0.1,0-0.2c0-0.1,0-0.1-0.1-0.2c0-0.1,0-0.1-0.1-0.2c0,0-0.1-0.1-0.1-0.1c0,0-0.1-0.1-0.1-0.1c-0.1,0-0.1-0.1-0.2-0.1
			c-0.1,0-0.1,0-0.2,0c-0.1,0-0.3,0-0.3,0c-0.2,0-0.3,0.1-0.4,0.2c-0.3,0.2-0.4,0.6-0.5,0.9c-0.1,0.2-0.1,0.3-0.2,0.5
			c-0.1,0.2-0.2,0.5-0.3,0.7c-0.1,0.3-0.2,0.5-0.3,0.8c-0.1,0.3-0.2,0.5-0.3,0.8c-0.1,0.2-0.2,0.5-0.2,0.7c-0.1,0.2-0.1,0.3-0.2,0.5
			c0,0.1,0,0.1-0.1,0.2l0,0.1c0,0.1-0.1,0.2-0.2,0.3c-0.1,0.1-0.1,0.2-0.2,0.2c-0.1,0.1-0.2,0.2-0.3,0.3c-0.1,0-0.1,0.1-0.2,0.1
			c-0.2,0-0.4,0-0.5-0.1c-0.5-0.4-0.3-1.1-0.3-1.6c0-0.3,0.1-0.5,0.2-0.7c0.1-0.3,0.2-0.6,0.4-0.9c0.1-0.3,0.3-0.6,0.5-0.8
			c0.2-0.2,0.4-0.4,0.6-0.5c0.2-0.1,0.4-0.1,0.6-0.1c0.1,0,0.2-0.1,0.2-0.2c0-0.1,0.1-0.3,0.2-0.6c0.1-0.2,0.1-0.3,0.2-0.4
			c0-0.1,0-0.2-0.1-0.3c-0.3-0.2-0.8-0.3-1.7-0.1c-1.3,0.4-2.7,2.1-3.2,4.2c-0.5,1.9-1.5,2.5-2.2,2.6c-1,0.1-1.9-0.2-2.6-0.7
			l-0.1-0.1c-0.2-0.2-0.5-0.4-1-0.6l2.3-6.5l0.8-2.3c0.1-0.3,0.4-0.6,0.7-0.6c0.1,0,0.3,0,0.4,0c0,0,0.1,0,0.1,0
			c0.2,0.1,0.5,0.5,0.5,0.9c0,0.1,0,0.2,0,0.3c-0.1,0.5-0.4,0.8-0.8,1.1c-0.3,0.3-0.8,0.5-1.1,0.7c-0.1,0-0.1,0.1-0.1,0.1l-0.6,1.5
			c-0.1,0.2,0.1,0.4,0.3,0.3c0.4-0.1,0.8-0.3,0.8-0.3c1.2-0.5,2.3-1.3,2.9-2.5c0.3-0.6,0.4-1.3,0.3-2c0-0.1,0-0.2-0.1-0.3
			c-0.4-1.2-1.6-2-2.8-1.9c-0.4,0-0.7,0.1-1,0.3c-0.4,0.2-0.7,0.5-1,0.9c-0.2,0.3-0.4,0.7-0.6,1.2l-1.1,3.1
			c-0.6,0.2-1.2,0.4-1.8,0.3c-0.6-0.1-1.1-0.4-1.5-0.9c-0.1-0.1-0.1-0.2-0.2-0.2c-0.1-0.1-0.2-0.1-0.3,0c-0.1,0.1-0.1,0.2-0.2,0.3
			c-0.1,0.5,0,1,0.2,1.5c0.1,0.1,0.2,0.3,0.3,0.4c0.1,0.1,0.2,0.2,0.4,0.3c0.5,0.4,1.3,0.6,1.9,0.5c0.2,0,0.4,0,0.6-0.1l-1.4,3.9
			c-0.1,0.2-0.2,0.4-0.4,0.6c-0.3,0.3-0.8,0.5-1.2,0.5c-0.1,0-0.1,0-0.2,0c-0.3,0-0.7-0.2-0.8-0.5c0-0.1,0-0.3,0-0.4
			c0.1-0.1,0.3-0.3,0.7-0.3c0,0,0.5,0,1,0.2c0.1,0,0.2,0,0.3-0.1c0.1-0.1,0.1-0.2,0.2-0.4c0.1-0.2,0.2-0.6,0.3-0.8
			c0-0.1,0-0.2-0.1-0.3c-0.4-0.1-0.8-0.2-1.2-0.3c-0.6-0.1-1.1,0-1.6,0.1c-0.4,0.1-0.7,0.3-1,0.5c-0.5,0.4-0.7,1-0.7,1.6
			c0,0,0,0,0,0c0,0.2,0.1,0.5,0.2,0.7c0.2,0.3,0.4,0.7,0.7,0.9c0.3,0.3,0.7,0.4,1.1,0.5c0.3,0.1,0.5,0.1,0.8,0.1c0.3,0,0.5,0,0.8,0
			c0.4-0.1,0.8-0.2,1.2-0.5c0.2-0.1,0.3-0.2,0.5-0.4c0,0,0.1-0.1,0.2-0.2c0.1-0.1,0.1-0.1,0.2-0.2c0,0,0,0,0,0
			c0.3,0.3,0.5,0.4,0.6,0.5c0,0,0,0,0,0c0.5,0.5,1.1,0.9,1.7,1.1c1,0.4,2.3,0.5,3.3,0c0.6-0.3,1.1-0.8,1.5-1.4
			c0.5,0.9,1.3,1.1,2.1,1c0.2,0,0.3-0.1,0.4-0.1c0.4-0.2,0.8-0.5,1-0.8c0,0,0.4,0.5,1.1,0.8c0.2,0.1,0.5,0.2,0.9,0.2
			c0.7,0,1.5-0.5,2-0.9c0,0,0.1,0.1,0.1,0.1c0.6,0.6,1.6,0.9,2.4,0.7c0.8-0.1,1.6-0.6,2.1-1.1c0.4,1.1,1.3,1.3,2.2,1.1
			c0.2,0,0.3-0.1,0.4-0.1c0.4-0.2,0.8-0.5,1-0.8c0,0,0.4,0.5,1.1,0.8c0.2,0.1,0.5,0.2,0.9,0.2c1.2,0,2.5-1.3,2.6-1.4l0,0l0,0
			c0.3,0.5,0.8,0.9,1.4,1.2c0.4,0.2,0.9,0.3,1.4,0.3c0.1,0,0.1,0,0.2,0c0.8,0,1.6-0.4,2.2-0.9c0.7-0.6,0.9-1.5,0.7-2.4
			c-0.2-0.8-0.9-1.3-1.6-1.8c-0.1,0-0.1-0.1-0.2-0.1c-0.2-0.1-0.3-0.3-0.5-0.4c-0.2-0.3-0.4-0.6-0.3-0.8c0-0.2,0.1-0.3,0.3-0.4l0,0
			c0.1,0,0.2-0.1,0.3-0.1c0.2,0,0.4,0,0.6,0.2c0.1,0.1,0.2,0.2,0.3,0.3c0.1,0.1,0.2,0.2,0.3,0.3c0.2,0.2,0.5,0.2,0.7,0.2
			c0.4-0.1,0.6-0.5,0.5-0.9C142.6,262.8,141.6,262.2,140.8,262.1z"/>
		<path class="st3" d="M152.3,263.9c0-0.1,0.1-0.2,0.1-0.3c0.1-0.2,0.1-0.5,0-0.8c0-0.2-0.1-0.3-0.3-0.4c-0.1-0.1-0.2-0.1-0.3-0.2
			c-0.1,0-0.1,0-0.2,0c-0.7-0.1-1.1,0.8-1.1,0.8l-2.1,4.5c0-0.8,0-1.9-0.1-2.4c0-0.8-0.1-1.6-0.9-1.7c-0.7-0.1-1.1,0.8-1.1,0.9
			l-1.3,3.3c0-0.3,0-0.6,0-0.9c0-1.1,0-2.3,0-2.6c0,0,0,0,0-0.1c0,0,0,0,0,0c0-0.2,0-0.3,0-0.4c0-0.4-0.1-1.1-0.6-1.3
			c-0.1,0-0.2-0.1-0.4,0c0,0,0,0-0.1,0c-0.9,0.1-0.8,1.3-0.8,1.3l0.1,5.1c0,0.1,0,0.3,0,0.4c0.1,0.5,0.2,0.9,0.5,1.2
			c0.3,0.3,0.7,0.4,1,0.3c0.6-0.1,1-0.8,1.2-1.4c0.1-0.3,0.2-0.6,0.3-0.8c0.1-0.3,0.2-0.5,0.3-0.8c0.1-0.2,0.2-0.5,0.3-0.7
			c0.1-0.2,0.1-0.4,0.2-0.5c0,0,0.1,2.7,0.1,2.7c0,0.8,0.4,1.6,1.3,1.6c0.6,0,1-0.6,1.3-1.1c0.1-0.2,1.5-3.4,2.3-5
			C152.2,264.2,152.3,264,152.3,263.9z"/>
		<path class="st3" d="M167.6,266.4c0-0.1,0.1-0.2,0.1-0.3l0.8-2.2c1.1,0,1.9-0.1,2.5-1.2c0.1-0.2,0.1-0.6-0.2-0.5
			c-0.1,0-0.1,0-0.2,0c-0.4,0.1-0.8,0.1-1.2,0.1c-0.1,0-0.1,0-0.2,0c0,0,0,0,0,0c0,0,0,0,0,0c0,0-0.1,0-0.2,0c0,0,0,0,0,0
			c0,0,0,0,0,0c0.2-0.6,0.4-1,0.4-1.1c0.2-0.4,0.3-1.4-0.6-1.6c0,0-0.1,0-0.1,0c-0.2,0-0.4,0.1-0.5,0.1c-0.4,0.3-0.6,0.8-0.6,0.8
			l-0.6,1.7l0,0c0,0,0,0,0,0c-0.4,0-1.1-0.1-1.5-0.1c-0.2,0-0.5,0-0.4,0.3c0.2,0.7,0.8,1.1,1.4,1.2l-0.9,2.5c0,0,0,0.1,0,0.1
			l-0.1,0.2c-0.4,0.8-1.3,1.5-2,1.8c-0.6,0.3-1.7,0.4-2.3,0.3c-0.4-0.1-0.8-0.3-1-0.6c-0.2-0.4-0.3-0.8-0.2-1.2
			c0.1-0.5,0.2-0.9,0.4-1.3c0.4-0.8,0.8-1.4,1.3-1.6c0,0,0,0,0,0c0.3-0.2,0.7-0.3,1-0.2c0.4,0.1,0.6,0.4,0.6,0.8
			c-0.1,0.4-0.4,0.6-0.8,0.7c-0.3,0.1-0.7,0.2-1,0.2c-0.1,0-0.2,0-0.2,0c-0.1,0-0.2,0-0.2,0.1c-0.1,0.1-0.1,0.1-0.1,0.2
			c-0.1,0.2-0.3,0.7-0.3,1.1c0,0.1,0.1,0.3,0.2,0.3c0.4,0,0.7,0,1.2-0.1c0.4-0.1,0.9-0.2,1.2-0.3c0.5-0.2,0.9-0.5,1.2-0.9
			c0.9-1.3,0.4-3.3-1.2-3.6c-0.5-0.1-0.9-0.1-1.4,0.1c-0.2,0.1-0.4,0.1-0.6,0.2c-0.1,0.1-0.3,0.1-0.4,0.2c-1.2,0.7-2.1,2.1-2.6,3.4
			c0,0.1,0,0.1,0,0.2c-0.1,0.4-0.2,0.9-0.2,1.3c0,0,0,0,0,0c0,0,0,0,0,0c0,0.1,0,0.2,0,0.4c-0.3,0.2-0.7,0.4-1,0.6
			c-0.6,0.3-1.7,0.4-2.3,0.3c-0.4-0.1-0.8-0.3-1-0.6c-0.2-0.4-0.3-0.8-0.2-1.2c0.1-0.5,0.2-0.9,0.4-1.3c0.4-0.8,0.8-1.4,1.3-1.6
			c0,0,0,0,0,0c0.3-0.2,0.7-0.3,1-0.2c0.4,0.1,0.6,0.4,0.6,0.8c-0.1,0.4-0.4,0.6-0.8,0.7c-0.3,0.1-0.7,0.2-1,0.2c-0.1,0-0.2,0-0.2,0
			c-0.1,0-0.2,0-0.2,0.1c-0.1,0.1-0.1,0.1-0.1,0.2c-0.1,0.2-0.3,0.7-0.3,1.1c0,0.1,0.1,0.3,0.2,0.3c0.4,0,0.7,0,1.2-0.1
			c0.4-0.1,0.9-0.2,1.2-0.3c0.5-0.2,0.9-0.5,1.2-0.9c0.9-1.3,0.4-3.3-1.2-3.6c-0.5-0.1-0.9-0.1-1.4,0.1c-0.2,0.1-0.4,0.1-0.6,0.2
			c-0.1,0.1-0.3,0.1-0.4,0.2c-1.2,0.7-2.1,2.1-2.6,3.4c0,0.1,0,0.1,0,0.2c-0.1,0.4-0.2,0.9-0.2,1.3c0,0,0,0,0,0c0,0,0,0,0,0
			c0,0.3,0,1,0.4,1.6c0,0,0,0,0,0c0,0,0.1,0.1,0.1,0.1c0,0,0,0,0,0c0,0,0,0.1,0.1,0.1c0,0,0.1,0.1,0.1,0.1c0.7,0.8,1.7,1.1,2.9,1.1
			c0.8,0,1.8-0.3,2.6-0.7c0.3-0.2,0.6-0.4,0.8-0.6c0,0,0,0.1,0.1,0.1c0,0,0.1,0.1,0.1,0.1c0.7,0.8,1.7,1.1,2.9,1.1
			c0.8,0,1.8-0.3,2.6-0.7c0.3-0.2,0.7-0.4,1-0.7c0,0,0.1-0.1,0.1-0.1c0,0,0.1-0.1,0.3-0.3c0,0.1,0.1,0.2,0.1,0.3
			c0.3,0.6,0.8,1.1,1.4,1.3c0.7,0.3,1.4,0.2,2.1,0c0.6-0.3,1.1-0.7,1.4-1.2c0.2-0.3,0.3-0.5,0.3-0.8c0.1-0.3,0.1-0.6-0.1-0.9
			c-0.1-0.1-0.2-0.2-0.3-0.1c-0.2,0.3-0.4,0.5-0.7,0.8c-0.5,0.5-1.5,1.1-2.1,0.5c-0.1-0.1-0.1-0.1-0.2-0.2c-0.2-0.3-0.2-0.9-0.1-1.2
			C167.5,266.9,167.6,266.6,167.6,266.4z"/>
	</g>
	<path class="st1" d="M76.2,128.5c1-0.3,2-1,2.8-1.6c3.7-2.8,6.2-6.8,8.8-10.5c1.2-1.7,2.5-3.4,4.6-3.9c1-0.2,1.8-0.2,2.5,0.6
		c0.5,0.6,0.8,1.5,0.9,2.3c0.2,1.4,0.2,2.9,0.2,4.4c-0.1,2.6-0.7,7.9,2.9,8.6c5.1,1.1,6.3-12.7,7.2-15.9c0.7-2.4,1.9-4.8,3.9-6.2
		c2.1-1.4,5.1-1.6,6.9,0.1c1.6,1.5,1.9,3.8,3.1,5.6c1.5,2.4,4.2,2.5,6.3,0.9c2-1.5,3-3.9,4.5-5.8c0.8-1,1.8-1.8,2.9-2.3
		c1.9-0.8,4.2-1,6.1-0.2c1.7,0.7,2.9,2.1,3.9,3.6c1,1.5,1.7,3.2,2.5,4.8c1,2,1.8,4.2,2.7,6.3c0.9,2.1,1.9,4.3,3.2,6.3
		c1,1.6,2.6,4,4.6,4.1c1,0.1,2-0.5,2.8-1.2c2.5-2.4,2.5-6.9,2.7-10.2c0.1-1.8,0.3-3.7,0.7-5.5c0.2-0.9,0.5-2,1.2-2.7
		c0.6-0.7,1.6-0.9,2.5-0.7c0.9,0.2,1.7,0.7,2.2,1.5c0.8,1,1.3,2.3,2,3.4c0.6,1,1.4,1.9,2.7,1.9c0.3,0,0.5,0,0.8-0.1
		c1.8-0.5,2.7-2.6,3.8-3.9c0.6-0.6,1.2-1.3,2.1-1.4c1.3-0.2,2.4,0.7,3.4,1.5c1,0.8,1.9,1.7,2.8,2.7c1.3,1.4,2.4,3,3.4,4.6
		c1.7,2.9,3,6,5.9,7.9c0.9,0.6,2,1.1,3.1,1c1.7-0.2,2.1-1.9,1.9-3.4c-0.1-0.7-0.3-1.3-0.7-1.9c-12.7-20.9-35.6-34.9-61.9-34.9
		c-27.2,0-50.9,15-63.2,37.2c-0.3,0.5-0.5,1-0.6,1.5C73.8,128.4,74.8,128.9,76.2,128.5z"/>
	<g class="st2">
		<path class="st4" d="M116.4,184.6H83.6l10.1-10.5c2.7-2.8,4.8-5.1,6.3-7c1.5-1.9,2.6-3.6,3.4-4.9c0.7-1.3,1.2-2.4,1.4-3.2
			c0.2-0.8,0.3-1.5,0.3-2.1c0-0.6-0.1-1.2-0.3-1.8c-0.2-0.6-0.5-1.1-0.9-1.5c-0.4-0.4-0.9-0.8-1.4-1.1c-0.6-0.3-1.2-0.4-2-0.4
			c-1.4,0-2.6,0.5-3.4,1.4c-0.8,0.9-1.2,2.1-1.2,3.5c0,0.4,0.1,1,0.2,1.7H84.4c0-2.4,0.4-4.5,1.2-6.5c0.8-1.9,1.9-3.6,3.3-5
			c1.4-1.4,3.1-2.5,5-3.2c1.9-0.8,4-1.1,6.3-1.1c2.3,0,4.4,0.4,6.3,1.1c1.9,0.7,3.6,1.7,5,3c1.4,1.3,2.5,2.8,3.3,4.6
			c0.8,1.8,1.2,3.7,1.2,5.8c0,2.2-0.5,4.3-1.4,6.2c-1,1.9-2.5,3.8-4.6,5.8l-6.7,6.3h13.2V184.6z"/>
		<path class="st4" d="M149.4,168.2h4.9v8.1h-4.9v8.4h-9.8v-8.4H120v-6.8l15.5-25.5h13.9V168.2z M139.6,168.2v-16l-9.3,16H139.6z"/>
		<path class="st4" d="M156.5,164.2c0-3.2,0.4-6.2,1.3-8.8c0.8-2.6,2-4.9,3.6-6.8c1.5-1.9,3.3-3.3,5.5-4.3c2.1-1,4.4-1.5,7-1.5
			c2.5,0,4.8,0.5,7,1.5c2.1,1,3.9,2.5,5.5,4.3c1.5,1.9,2.7,4.1,3.5,6.8c0.8,2.6,1.3,5.6,1.3,8.8c0,3.2-0.4,6.2-1.3,8.8
			c-0.8,2.6-2,4.9-3.5,6.8c-1.5,1.9-3.3,3.3-5.5,4.4c-2.1,1-4.4,1.5-7,1.5c-2.6,0-4.9-0.5-7-1.5c-2.1-1-3.9-2.5-5.5-4.4
			c-1.5-1.9-2.7-4.2-3.6-6.8C156.9,170.4,156.5,167.5,156.5,164.2z M166.9,164.2c0,1.8,0.2,3.4,0.5,4.9c0.3,1.5,0.8,2.8,1.4,3.8
			c0.6,1.1,1.3,1.9,2.1,2.5c0.8,0.6,1.8,0.9,2.8,0.9c1,0,1.9-0.3,2.8-0.9c0.8-0.6,1.6-1.4,2.1-2.5c0.6-1.1,1-2.4,1.4-3.8
			c0.3-1.5,0.5-3.1,0.5-4.9c0-1.8-0.2-3.4-0.5-4.9c-0.3-1.5-0.8-2.8-1.4-3.8c-0.6-1.1-1.3-1.9-2.1-2.5c-0.8-0.6-1.8-0.9-2.8-0.9
			c-1,0-2,0.3-2.8,0.9c-0.8,0.6-1.5,1.4-2.1,2.5c-0.6,1.1-1.1,2.3-1.4,3.8C167.1,160.8,166.9,162.5,166.9,164.2z"/>
	</g>
	<g class="st2">
		<path class="st4" d="M106.1,203.1l1.5,3.8l1.5-3.8h1.8l-2.6,6.3h-1.3l-2.6-6.3H106.1z"/>
		<path class="st4" d="M114.9,208.3h-2.3l-0.4,1.1h-1.7l2.4-6.3h1.8l2.4,6.3h-1.7L114.9,208.3z M114.5,207.1l-0.7-2.1l-0.7,2.1
			H114.5z"/>
		<path class="st4" d="M117.7,209.4v-6.3h1.6l3,3.8v-3.8h1.6v6.3h-1.6l-3-3.8v3.8H117.7z"/>
		<path class="st4" d="M126.9,203.1v6.3h-1.6v-6.3H126.9z"/>
		<path class="st4" d="M129.9,203.1v4.9h2v1.4h-3.6v-6.3H129.9z"/>
		<path class="st4" d="M134.3,203.1v4.9h2v1.4h-3.6v-6.3H134.3z"/>
		<path class="st4" d="M141.2,208.3h-2.3l-0.4,1.1h-1.7l2.4-6.3h1.8l2.4,6.3h-1.7L141.2,208.3z M140.8,207.1L140,205l-0.7,2.1H140.8
			z"/>
		<path class="st4" d="M146.8,203.1h2.4c0.6,0,1,0.1,1.3,0.4c0.3,0.3,0.4,0.7,0.4,1.2c0,0.3-0.1,0.6-0.2,0.8
			c-0.1,0.2-0.3,0.4-0.5,0.5c0.2,0,0.4,0.1,0.6,0.2c0.2,0.1,0.3,0.2,0.4,0.3c0.1,0.1,0.2,0.3,0.2,0.4c0,0.2,0.1,0.3,0.1,0.5
			c0,0.3-0.1,0.6-0.2,0.8c-0.1,0.2-0.2,0.4-0.4,0.6c-0.2,0.2-0.4,0.3-0.7,0.3c-0.3,0.1-0.6,0.1-0.9,0.1h-2.6V203.1z M148.5,205.6
			h0.3c0.5,0,0.8-0.2,0.8-0.6c0-0.4-0.3-0.6-0.8-0.6h-0.3V205.6z M148.5,208.1h0.4c0.4,0,0.7-0.1,0.9-0.2c0.2-0.1,0.3-0.3,0.3-0.5
			s-0.1-0.4-0.3-0.5c-0.2-0.1-0.5-0.2-0.9-0.2h-0.4V208.1z"/>
		<path class="st4" d="M156.2,204.5h-1.9v1h1.8v1.4h-1.8v1.1h1.9v1.4h-3.6v-6.3h3.6V204.5z"/>
		<path class="st4" d="M161.2,208.3h-2.3l-0.4,1.1h-1.7l2.4-6.3h1.8l2.4,6.3h-1.7L161.2,208.3z M160.7,207.1L160,205l-0.7,2.1H160.7
			z"/>
		<path class="st4" d="M164,209.4v-6.3h1.6l3,3.8v-3.8h1.6v6.3h-1.6l-3-3.8v3.8H164z"/>
	</g>
</g>
<g id="레이어_3">
	<g>
		<path class="st4" d="M97.4,34.4H27.6c-1,0-1.8-0.8-1.8-1.8V8.8c0-4.9,3.9-8.8,8.8-8.8h55.7c4.9,0,8.8,3.9,8.8,8.8v23.9
			C99.2,33.6,98.4,34.4,97.4,34.4z"/>
		<path class="st4" d="M124.5,126.9L99.7,42.8c-0.3-1.2-1.3-2-2.5-2H27.9c-1.2,0-2.3,0.8-2.5,2L0.5,126.9c-0.3,1.5-0.5,3-0.5,4.5
			v130.5c0,14.6,11.8,26.4,26.4,26.4h72.2c14.6,0,26.4-11.8,26.4-26.4V131.4C125.1,129.9,124.9,128.4,124.5,126.9z M106.5,256.3
			c0,7.2-5.8,13-13,13H31.6c-7.2,0-13-5.8-13-13V138.3c0-3,0.3-6,1-8.9c0.1-0.2,0.1-0.4,0.2-0.6c0.4-1.4,0.9-2.8,1.3-4.1
			c0.7-2.2,1.4-4.4,2.1-6.6c0.8-2.4,1.6-4.8,2.4-7.2c0.7-2,1.3-4.1,2-6.1c0.2-0.7,0.4-1.4,0.7-2.1c0.7-2.2,1.9-4,4.1-4.8
			c2.3-0.9,4.7-1.1,7.1-0.9c3.9,0.3,8.1,1.1,11.7,2.6c3.5,1.5,7.2,2.9,11.1,3c1,0,2,0,2.9-0.1c1.9-0.2,4-0.6,5.8-1.3
			c2.3-1,4.4-2.3,6.9-3.1c3.8-1.2,7.8-1.4,11.7-0.7c3.3,0.6,6.4,2.1,7.6,5.5l8.1,26.5c0.7,2.9,1,5.9,1,8.9V256.3z"/>
		<path class="st4" d="M236.8,34.4H167c-1,0-1.8-0.8-1.8-1.8V8.8c0-4.9,3.9-8.8,8.8-8.8h55.7c4.9,0,8.8,3.9,8.8,8.8v23.9
			C238.6,33.6,237.8,34.4,236.8,34.4z"/>
		<path class="st4" d="M263.9,126.9L239,42.8c-0.3-1.2-1.3-2-2.5-2h-69.2c-1.2,0-2.3,0.8-2.5,2l-24.9,84.1c-0.3,1.5-0.5,3-0.5,4.5
			v130.5c0,14.6,11.8,26.4,26.4,26.4H238c14.6,0,26.4-11.8,26.4-26.4V131.4C264.4,129.9,264.2,128.4,263.9,126.9z M245.8,256.3
			c0,7.2-5.8,13-13,13H171c-7.2,0-13-5.8-13-13V138.3c0-3,0.3-6,1-8.9c0.1-0.2,0.1-0.4,0.2-0.6c0.4-1.4,0.9-2.8,1.3-4.1
			c0.7-2.2,1.4-4.4,2.1-6.6c0.8-2.4,1.6-4.8,2.4-7.2c0.7-2,1.3-4.1,2-6.1c0.2-0.7,0.4-1.4,0.7-2.1c0.7-2.2,1.9-4,4.1-4.8
			c2.3-0.9,4.7-1.1,7.1-0.9c3.9,0.3,8.1,1.1,11.7,2.6c3.5,1.5,7.2,2.9,11.1,3c1,0,2,0,2.9-0.1c1.9-0.2,4-0.6,5.8-1.3
			c2.3-1,4.4-2.3,6.9-3.1c3.8-1.2,7.8-1.4,11.7-0.7c3.3,0.6,6.4,2.1,7.6,5.5l8.1,26.5c0.7,2.9,1,5.9,1,8.9V256.3z"/>
	</g>
</g>
<g id="레이어_2" class="st0">
	<g class="st2">
		<g>
			<g>
				<g>
					<path class="st5" d="M932.5,148.5l-23.7-8.4c-0.5-0.2-1.1-0.2-1.6,0l-23.7,8.4c-1.8,0.7-1.8,3.2,0,4l23.7,9.5
						c0.5,0.2,1.1,0.2,1.6,0l23.7-9.5C934.3,151.8,934.3,149.3,932.5,148.5z"/>
				</g>
				<g>
					<g>
						<path class="st5" d="M935.2,156.2l-23.7,9.7c-0.8,0.3-1.3,1.1-1.3,2v34.8c0,1.5,1.6,2.6,3,2l23.7-10.8c0.8-0.3,1.3-1.1,1.3-2
							v-33.7C938.1,156.7,936.6,155.6,935.2,156.2z"/>
					</g>
					<g>
						<path class="st5" d="M880.8,156.2l23.7,9.7c0.8,0.3,1.3,1.1,1.3,2v34.8c0,1.5-1.6,2.6-3,2l-23.7-10.8c-0.8-0.3-1.3-1.1-1.3-2
							v-33.7C877.8,156.7,879.4,155.6,880.8,156.2z"/>
					</g>
				</g>
			</g>
			<g>
				<g>
					<path class="st6" d="M997.1,148.5l-23.7-8.4c-0.5-0.2-1.1-0.2-1.6,0l-23.7,8.4c-1.8,0.7-1.8,3.2,0,4l23.7,9.5
						c0.5,0.2,1.1,0.2,1.6,0l23.7-9.5C998.9,151.8,998.9,149.3,997.1,148.5z"/>
				</g>
				<g>
					<g>
						<path class="st6" d="M999.8,156.2l-23.7,9.7c-0.8,0.3-1.3,1.1-1.3,2v34.8c0,1.5,1.6,2.6,3,2l23.7-10.8c0.8-0.3,1.3-1.1,1.3-2
							v-33.7C1002.8,156.7,1001.2,155.6,999.8,156.2z"/>
					</g>
					<g>
						<path class="st6" d="M945.4,156.2l23.7,9.7c0.8,0.3,1.3,1.1,1.3,2v34.8c0,1.5-1.6,2.6-3,2l-23.7-10.8c-0.8-0.3-1.3-1.1-1.3-2
							v-33.7C942.5,156.7,944,155.6,945.4,156.2z"/>
					</g>
				</g>
			</g>
			<g>
				<g>
					<path class="st7" d="M1061.7,148.5l-23.7-8.4c-0.5-0.2-1.1-0.2-1.6,0l-23.7,8.4c-1.8,0.7-1.8,3.2,0,4l23.7,9.5
						c0.5,0.2,1.1,0.2,1.6,0l23.7-9.5C1063.5,151.8,1063.5,149.3,1061.7,148.5z"/>
				</g>
				<g>
					<g>
						<path class="st7" d="M1064.4,156.2l-23.7,9.7c-0.8,0.3-1.3,1.1-1.3,2v34.8c0,1.5,1.6,2.6,3,2l23.7-10.8c0.8-0.3,1.3-1.1,1.3-2
							v-33.7C1067.4,156.7,1065.8,155.6,1064.4,156.2z"/>
					</g>
					<g>
						<path class="st7" d="M1010.1,156.2l23.7,9.7c0.8,0.3,1.3,1.1,1.3,2v34.8c0,1.5-1.6,2.6-3,2l-23.7-10.8c-0.8-0.3-1.3-1.1-1.3-2
							v-33.7C1007.1,156.7,1008.7,155.6,1010.1,156.2z"/>
					</g>
				</g>
			</g>
			<g>
				<g>
					<path class="st8" d="M964.5,91l-23.7-6.4c-0.5-0.2-1.1-0.2-1.6,0L915.5,91c-1.8,0.7-1.8,3.2,0,4l23.7,7.4
						c0.5,0.2,1.1,0.2,1.6,0l23.7-7.4C966.2,94.3,966.2,91.7,964.5,91z"/>
				</g>
				<g>
					<g>
						<path class="st8" d="M967.1,98.7l-23.7,7.7c-0.8,0.3-1.3,1.1-1.3,2v34.8c0,1.5,1.6,2.6,3,2l23.7-8.8c0.8-0.3,1.3-1.1,1.3-2
							v-33.7C970.1,99.1,968.6,98.1,967.1,98.7z"/>
					</g>
					<g>
						<path class="st8" d="M912.8,98.7l23.7,7.7c0.8,0.3,1.3,1.1,1.3,2v34.8c0,1.5-1.6,2.6-3,2l-23.7-8.8c-0.8-0.3-1.3-1.1-1.3-2
							v-33.7C909.8,99.1,911.4,98.1,912.8,98.7z"/>
					</g>
				</g>
			</g>
			<g>
				<g>
					<path class="st9" d="M1029.1,91l-23.7-6.4c-0.5-0.2-1.1-0.2-1.6,0L980.1,91c-1.8,0.7-1.8,3.2,0,4l23.7,7.4
						c0.5,0.2,1.1,0.2,1.6,0l23.7-7.4C1030.9,94.3,1030.9,91.7,1029.1,91z"/>
				</g>
				<g>
					<g>
						<path class="st9" d="M1031.8,98.7l-23.7,7.7c-0.8,0.3-1.3,1.1-1.3,2v34.8c0,1.5,1.6,2.6,3,2l23.7-8.8c0.8-0.3,1.3-1.1,1.3-2
							v-33.7C1034.7,99.1,1033.2,98.1,1031.8,98.7z"/>
					</g>
					<g>
						<path class="st9" d="M977.4,98.7l23.7,7.7c0.8,0.3,1.3,1.1,1.3,2v34.8c0,1.5-1.6,2.6-3,2l-23.7-8.8c-0.8-0.3-1.3-1.1-1.3-2
							v-33.7C974.5,99.1,976,98.1,977.4,98.7z"/>
					</g>
				</g>
			</g>
		</g>
		<g>
			<g>
				<path class="st4" d="M972.6,16.2c34.3,0,66.6,13.4,90.9,37.6c24.3,24.3,37.6,56.5,37.6,90.9c0,34.3-13.4,66.6-37.6,90.9
					c-24.3,24.3-56.5,37.6-90.9,37.6c-34.3,0-66.6-13.4-90.9-37.6c-24.3-24.3-37.6-56.5-37.6-90.9c0-34.3,13.4-66.6,37.6-90.9
					C906,29.5,938.3,16.2,972.6,16.2 M972.6-7c-83.8,0-151.7,67.9-151.7,151.7c0,83.8,67.9,151.7,151.7,151.7
					c83.8,0,151.7-67.9,151.7-151.7C1124.3,60.9,1056.4-7,972.6-7L972.6-7z"/>
			</g>
			<line class="st10" x1="1072" y1="45.3" x2="873.3" y2="244"/>
		</g>
	</g>
</g>
</svg>
