<?xml version="1.0" encoding="utf-8"?>
<!-- Generator: Adobe Illustrator 22.0.1, SVG Export Plug-In . SVG Version: 6.00 Build 0)  -->
<svg version="1.1" id="레이어_1" xmlns="http://www.w3.org/2000/svg" xmlns:xlink="http://www.w3.org/1999/xlink" x="0px"
	 y="0px" viewBox="0 0 416 297.3" style="enable-background:new 0 0 416 297.3;" xml:space="preserve">
<style type="text/css">
	.st0{display:none;}
	.st1{display:inline;}
	.st2{fill:#5871A9;}
	.st3{fill:#3E4F84;}
	.st4{fill:#FEFBF3;}
	.st5{fill:#B2B1B2;}
	.st6{fill:#66733D;}
	.st7{fill:#708042;}
	.st8{fill:#84934E;}
	.st9{fill:#584730;}
	.st10{fill:#745A41;}
	.st11{fill:#655138;}
	.st12{fill:#7F6149;}
	.st13{fill:#E1DFE0;}
	.st14{fill:#C3C2C3;}
	.st15{fill:#292929;}
	.st16{fill:none;}
</style>
<g id="레이어_1_1_" class="st0">
	<g class="st1">
		<path class="st2" d="M333,64.9H83c-4.7,0-8.6-3.8-8.6-8.6V8.6C74.4,3.8,78.3,0,83,0h250c4.7,0,8.6,3.8,8.6,8.6v47.8
			C341.6,61,337.7,64.9,333,64.9z"/>
		<path class="st3" d="M301.1,297.3H114.9c-4.5,0-8.2-3.5-8.5-8l-16-224.5h235.3l-16,224.5C309.3,293.9,305.6,297.3,301.1,297.3z"/>
		<g>
			<path class="st4" d="M212.2,261.9c-0.7-0.1-1.3,0-1.9,0.3c-0.9,0.5-1.4,1.5-1.4,2.2c0,1.1,0.7,2.1,1.8,2.9c0.1,0,0.1,0.1,0.2,0.1
				c0.1,0.1,0.2,0.2,0.4,0.2c0.3,0.2,0.6,0.5,0.6,0.8c0.1,0.3-0.1,0.8-0.3,1c-0.5,0.5-1.4,0.5-2,0.1c-0.3-0.2-0.5-0.5-0.7-1
				c-0.2-0.7-0.5-1.2-0.9-1.4c-0.3-0.1-0.6-0.2-0.8,0c-0.3,0.1-0.4,0.4-0.5,0.7c0,0.1,0,0.1,0,0.2c-0.6,1.4-1.4,2.2-2.1,1.9
				c-0.1-0.1-0.3-0.2-0.3-0.3c-0.2-0.5,0-0.9,0.1-1.4c0.1-0.3,0.2-0.5,0.3-0.8c0.2-0.6,0.4-1.1,0.6-1.7c0.1-0.4,0.3-0.9,0.5-1.3
				c0.1-0.2,0.1-0.4,0.2-0.6c0-0.1,0.1-0.3,0.1-0.5c0,0,0,0,0-0.1s0-0.2,0-0.3c0-0.1,0-0.2,0-0.2c0-0.1,0-0.1-0.1-0.2
				c0-0.1-0.1-0.1-0.1-0.2s-0.1-0.1-0.1-0.2c-0.1,0-0.1-0.1-0.2-0.1c-0.1,0-0.1-0.1-0.2-0.1c-0.1,0-0.1,0-0.2-0.1
				c-0.1,0-0.3,0-0.4,0c-0.2,0.1-0.4,0.1-0.5,0.3c-0.3,0.3-0.5,0.7-0.6,1.1c-0.1,0.2-0.1,0.4-0.2,0.6c-0.1,0.3-0.2,0.6-0.3,0.9
				s-0.2,0.7-0.3,1s-0.2,0.7-0.3,1s-0.2,0.6-0.3,0.8c-0.1,0.2-0.1,0.4-0.2,0.6c0,0.1-0.1,0.2-0.1,0.2l-0.1,0.2
				c0,0.1-0.1,0.2-0.2,0.3c-0.1,0.1-0.1,0.2-0.2,0.3c-0.1,0.1-0.2,0.2-0.4,0.3c-0.1,0-0.2,0.1-0.3,0.1c-0.2,0-0.5,0-0.7-0.1
				c-0.6-0.4-0.4-1.4-0.3-1.9c0.1-0.5,0.3-0.9,0.4-1.3l0,0c0.2-0.6,0.5-1.1,0.9-1.6c0.2-0.2,0.5-0.5,0.8-0.6
				c0.2-0.1,0.5-0.2,0.7-0.1c0.1,0,0.2-0.1,0.3-0.2c0.1-0.2,0.1-0.4,0.2-0.7c0-0.1,0.1-0.2,0.1-0.3c0.1-0.3,0-0.6-0.3-0.7
				c-0.4-0.1-0.9-0.2-1.7,0c-1.6,0.5-3.4,2.7-3.8,5.2c-0.2,0.7-0.8,2.6-2.1,2.7c-1.6,0.1-0.4-2.4-0.4-2.4s3-8.6,3.2-9.1
				s0.4-1.7-0.7-1.9c-1.1-0.2-1.5,1.2-1.5,1.2l-3.6,10.3c-0.6,1.4-1.4,2.2-2.1,1.9c-0.1-0.1-0.3-0.2-0.3-0.3c-0.2-0.5,0-0.9,0.1-1.4
				c0.1-0.3,0.2-0.5,0.3-0.8c0.2-0.6,0.4-1.1,0.6-1.7c0.1-0.4,0.3-0.9,0.5-1.3c0.1-0.2,0.1-0.4,0.2-0.6c0-0.1,0.1-0.3,0.1-0.5
				c0,0,0,0,0-0.1s0-0.2,0-0.3c0-0.1,0-0.2,0-0.2c0-0.1,0-0.1-0.1-0.2c0-0.1-0.1-0.1-0.1-0.2s-0.1-0.1-0.1-0.2
				c-0.1,0-0.1-0.1-0.2-0.1c-0.1,0-0.1-0.1-0.2-0.1c-0.1,0-0.1,0-0.2-0.1c-0.1,0-0.3,0-0.4,0c-0.2,0.1-0.4,0.1-0.5,0.3
				c-0.3,0.3-0.5,0.7-0.6,1.1c-0.1,0.2-0.1,0.4-0.2,0.6c-0.1,0.3-0.2,0.6-0.3,0.9s-0.2,0.7-0.3,1s-0.2,0.7-0.3,1s-0.2,0.6-0.3,0.8
				c-0.1,0.2-0.1,0.4-0.2,0.6c0,0.1-0.1,0.2-0.1,0.2l-0.1,0.2c0,0.1-0.1,0.2-0.2,0.3c-0.1,0.1-0.1,0.2-0.2,0.3
				c-0.1,0.1-0.2,0.2-0.4,0.3c-0.1,0-0.2,0.1-0.3,0.1c-0.2,0-0.5,0-0.7-0.1c-0.6-0.4-0.4-1.4-0.3-1.9c0.1-0.5,0.3-0.9,0.4-1.3l0,0
				c0.2-0.6,0.5-1.1,0.9-1.6c0.2-0.2,0.5-0.5,0.8-0.6c0.2-0.1,0.5-0.2,0.7-0.1c0.1,0,0.2-0.1,0.3-0.2c0.1-0.2,0.1-0.4,0.2-0.7
				c0-0.1,0.1-0.2,0.1-0.3c0.1-0.3,0-0.6-0.3-0.7c-0.4-0.1-0.9-0.2-1.7,0c-1.5,0.5-3.3,2.5-3.8,5c-0.6,2.3-1.8,3-2.7,3.1
				c-1.2,0.2-2.3-0.2-3.1-0.8l-0.1-0.1c-0.2-0.1-0.5-0.3-0.8-0.5c-0.2-0.1-0.3-0.4-0.2-0.6l2.6-7.4l1-2.8c0.1-0.4,0.5-0.7,0.9-0.8
				c0.2,0,0.4,0,0.5,0s0.1,0,0.1,0.1c0.3,0.1,0.6,0.6,0.6,1.1c0,0.1,0,0.2-0.1,0.3c-0.2,0.6-0.5,1-1,1.4c-0.4,0.3-0.8,0.6-1.3,0.8
				c-0.1,0.1-0.2,0.2-0.3,0.3l-0.4,1.2c-0.2,0.4,0.3,0.9,0.7,0.7c0.3-0.1,0.4-0.2,0.4-0.2c1.4-0.6,2.8-1.5,3.5-2.9
				c0.4-0.7,0.5-1.6,0.3-2.3c0-0.1-0.1-0.2-0.1-0.4c-0.4-1.5-1.9-2.4-3.4-2.2c-0.4,0-0.8,0.1-1.2,0.4c-0.4,0.3-0.8,0.6-1.1,1.1
				c-0.3,0.4-0.5,0.9-0.7,1.4l-1.2,3.4c-0.1,0.2-0.2,0.3-0.3,0.3c-0.6,0.2-1.3,0.3-1.9,0.2c-0.7-0.1-1.4-0.5-1.8-1.1
				c-0.1-0.1-0.2-0.2-0.3-0.3c-0.1-0.1-0.2-0.1-0.4,0c-0.1,0.1-0.2,0.2-0.2,0.3c-0.1,0.6,0,1.2,0.2,1.7c0.1,0.2,0.2,0.3,0.3,0.5
				s0.3,0.3,0.4,0.4c0.7,0.5,1.5,0.7,2.3,0.6c0.2,0,0.5-0.1,0.7-0.1l-1.6,4.7c-0.1,0.2-0.2,0.5-0.4,0.7c-0.4,0.4-1,0.6-1.5,0.6
				c-0.1,0-0.2,0-0.2,0c-0.4,0-0.8-0.2-0.9-0.6c0-0.1,0-0.3,0.1-0.4c0.1-0.2,0.3-0.3,0.9-0.4c0,0,0.5,0,1.2,0.2c0.1,0,0.2,0,0.3-0.1
				s0.2-0.3,0.2-0.4c0.1-0.2,0.2-0.5,0.3-0.7c0.1-0.3-0.1-0.6-0.3-0.7c-0.4-0.1-0.7-0.2-1.1-0.2c-0.7-0.1-1.3,0-1.9,0.1
				c-0.4,0.1-0.8,0.4-1.2,0.7c-0.5,0.5-0.8,1.2-0.8,1.9l0,0c0,0.3,0.1,0.6,0.2,0.8c0.2,0.4,0.5,0.8,0.9,1.1c0.4,0.3,0.8,0.5,1.3,0.6
				c0.3,0.1,0.6,0.1,0.9,0.1c0.3,0,0.6,0,0.9-0.1c0.5-0.1,1-0.3,1.5-0.6c0.2-0.1,0.4-0.3,0.6-0.5c0,0,0.2-0.2,0.3-0.3
				c0.1-0.1,0.2-0.2,0.2-0.2l0,0c0.4,0.3,0.7,0.5,0.8,0.6c0,0,0,0,0.1,0.1c0.6,0.5,1.3,1,2.1,1.3c1.2,0.5,2.8,0.5,3.9,0
				c0.5-0.3,1-0.7,1.4-1.1c0.2-0.3,0.6-0.2,0.8,0c0.6,0.6,1.4,0.7,2.1,0.6c0.2,0,0.4-0.1,0.5-0.2c0.3-0.1,0.6-0.3,0.8-0.5
				s0.5-0.2,0.7,0s0.5,0.4,0.9,0.6c0.3,0.1,0.6,0.2,1,0.2c0.9,0,1.8-0.6,2.4-1l0.1,0.1c0.7,0.7,1.9,1,2.8,0.9
				c0.7-0.1,1.5-0.5,2.1-0.9c0.2-0.2,0.6-0.2,0.8,0.1c0.6,0.8,1.5,1,2.3,0.8c0.2,0,0.4-0.1,0.5-0.2c0.3-0.1,0.6-0.3,0.8-0.5
				s0.5-0.2,0.7,0s0.5,0.4,0.9,0.6c0.3,0.1,0.6,0.2,1,0.2c1.5,0,3-1.5,3.1-1.6l0,0l0,0c0.4,0.6,0.9,1.1,1.6,1.4
				c0.5,0.2,1.1,0.3,1.7,0.3c0.1,0,0.1,0,0.2,0c1,0,1.9-0.4,2.7-1.1s1.1-1.8,0.8-2.9c-0.3-1-1.1-1.6-1.9-2.1c-0.1,0-0.1-0.1-0.2-0.1
				c-0.2-0.2-0.4-0.3-0.5-0.5c-0.3-0.3-0.4-0.7-0.4-1c0-0.2,0.1-0.4,0.3-0.5l0,0c0.1-0.1,0.2-0.1,0.3-0.1c0.3,0,0.5,0,0.7,0.2
				c0.1,0.1,0.2,0.2,0.3,0.3c0.1,0.1,0.2,0.2,0.3,0.3c0.3,0.2,0.6,0.3,0.9,0.2c0.5-0.1,0.7-0.7,0.6-1.1
				C214.4,262.7,213.2,262,212.2,261.9z"/>
			<path class="st4" d="M226,264c0-0.1,0.1-0.2,0.1-0.3c0.1-0.3,0.1-0.6,0.1-0.9c0-0.2-0.1-0.4-0.3-0.5c-0.1-0.1-0.2-0.1-0.4-0.2
				c-0.1,0-0.2,0-0.2,0c-0.9-0.1-1.4,1-1.4,1l-1.5,3.2c-0.2,0.5-1,0.4-1-0.2c0-0.2,0-0.4,0-0.6c-0.1-1-0.1-1.9-1-2.1
				c-0.9-0.1-1.3,1-1.3,1.1l-1.6,3.9c0-0.4,0-0.7,0-1.1c0-1.3,0-2.8-0.1-3.2V264l0,0c0-0.2,0-0.4,0-0.5c0-0.4-0.2-1.3-0.8-1.5
				c-0.1,0-0.3-0.1-0.4-0.1h-0.1c-1,0.2-1,1.6-1,1.6l0.1,6c0,0.2,0,0.3,0,0.5c0.1,0.6,0.3,1.1,0.6,1.4s0.8,0.4,1.2,0.4
				c0.8-0.1,1.2-1,1.4-1.6c0.1-0.3,0.3-0.7,0.4-1c0.1-0.3,0.2-0.6,0.4-0.9c0.1-0.3,0.2-0.6,0.3-0.9c0.1-0.2,0.2-0.4,0.3-0.7l0.2,3.2
				c0,0.9,0.4,1.9,1.5,1.9c0.8,0,1.2-0.7,1.5-1.3c0.1-0.2,1.8-4,2.7-6C225.8,264.3,225.9,264.1,226,264z"/>
			<path class="st4" d="M244.3,267c0-0.1,0.1-0.2,0.1-0.4l0.8-2.2c0.1-0.2,0.3-0.4,0.5-0.4c1.1,0,1.9-0.3,2.6-1.4
				c0.2-0.3,0.2-0.7-0.3-0.6c-0.2,0-0.3,0-0.5,0.1c-0.1,0-0.2,0.1-0.3,0.1c-0.7,0-0.9,0-1.1,0l0,0l0,0c-0.1,0-0.1,0-0.2,0l0,0l0,0
				c0.3-0.7,0.4-1.2,0.5-1.3c0.2-0.5,0.4-1.7-0.7-1.9c-0.1,0-0.1,0-0.2,0c-0.2,0-0.4,0.1-0.6,0.2c-0.5,0.3-0.8,1-0.8,1l-0.7,2l0,0
				l0,0c-0.5,0-1.3-0.1-1.8-0.2c-0.2,0-0.5,0-0.4,0.4c0.2,0.6,0.7,1.1,1.2,1.3c0.3,0.1,0.4,0.4,0.3,0.7l-0.9,2.5
				c0,0.1,0,0.1-0.1,0.2l-0.1,0.3c-0.4,1-1.5,1.8-2.4,2.2c-0.7,0.3-2,0.5-2.8,0.3c-0.5-0.1-0.9-0.4-1.2-0.8s-0.3-1-0.2-1.5
				c0.1-0.6,0.3-1.1,0.5-1.6c0.4-0.9,1-1.6,1.5-2l0,0c0.3-0.2,0.8-0.4,1.2-0.3s0.8,0.5,0.7,0.9c-0.1,0.5-0.5,0.7-0.9,0.9
				c-0.4,0.1-0.8,0.2-1.2,0.2c-0.1,0-0.2,0-0.3,0s-0.2,0-0.3,0.1s-0.1,0.2-0.2,0.3c-0.1,0.2-0.2,0.6-0.3,1c-0.1,0.3,0.2,0.7,0.5,0.7
				s0.6,0,1.1-0.1s1-0.2,1.4-0.4c0.6-0.2,1-0.6,1.4-1.1c1.1-1.5,0.5-3.9-1.4-4.3c-0.5-0.1-1.1-0.1-1.7,0.1c-0.2,0.1-0.5,0.2-0.7,0.3
				c-0.2,0.1-0.3,0.2-0.5,0.2c-1.5,0.9-2.6,2.5-3.1,4.1c0,0.1,0,0.1-0.1,0.2c-0.1,0.5-0.2,1.1-0.2,1.6l0,0l0,0c0,0.1,0,0.3,0,0.4
				c-0.4,0.3-0.8,0.5-1.1,0.7c-0.7,0.3-2,0.5-2.8,0.3c-0.5-0.1-0.9-0.4-1.2-0.8s-0.3-1-0.2-1.5c0.1-0.6,0.3-1.1,0.5-1.6
				c0.4-0.9,1-1.6,1.5-2l0,0c0.3-0.2,0.8-0.4,1.2-0.3s0.8,0.5,0.7,0.9c-0.1,0.5-0.5,0.7-0.9,0.9c-0.4,0.1-0.8,0.2-1.2,0.2
				c-0.1,0-0.2,0-0.3,0s-0.2,0-0.3,0.1s-0.1,0.2-0.2,0.3c-0.1,0.2-0.2,0.6-0.3,1c-0.1,0.3,0.2,0.7,0.5,0.7s0.6,0,1.1-0.1
				s1-0.2,1.4-0.4c0.6-0.2,1-0.6,1.4-1.1c1.1-1.5,0.5-3.9-1.4-4.3c-0.5-0.1-1.1-0.1-1.7,0.1c-0.2,0.1-0.5,0.2-0.7,0.3
				c-0.2,0.1-0.3,0.2-0.5,0.2c-1.5,0.9-2.6,2.5-3.1,4.1c0,0.1,0,0.1-0.1,0.2c-0.1,0.5-0.2,1.1-0.2,1.6l0,0l0,0c0,0.4,0,1.2,0.5,2
				l0,0c0,0.1,0.1,0.1,0.1,0.2l0,0l0.1,0.1c0,0.1,0.1,0.1,0.1,0.2c0.8,0.9,2,1.3,3.4,1.3c0.9,0,2.2-0.4,3.1-0.9
				c0.3-0.2,0.7-0.4,1-0.7l0.1,0.1c0,0.1,0.1,0.1,0.1,0.2c0.8,0.9,2,1.3,3.4,1.3c0.9,0,2.2-0.4,3.1-0.9c0.4-0.2,0.9-0.5,1.2-0.9
				l0.1-0.1c0,0,0.1-0.1,0.3-0.3c0,0.1,0.1,0.2,0.1,0.3c0.3,0.7,0.9,1.3,1.7,1.6c0.8,0.3,1.7,0.3,2.5,0c0.7-0.3,1.3-0.8,1.7-1.5
				c0.2-0.3,0.3-0.6,0.4-1c0.1-0.3,0.1-0.7-0.1-1.1c-0.1-0.1-0.2-0.3-0.3-0.1c-0.2,0.3-0.5,0.6-0.8,0.9c-0.6,0.6-1.8,1.3-2.6,0.6
				c-0.1-0.1-0.1-0.1-0.2-0.2c-0.3-0.4-0.2-1-0.1-1.5C244.1,267.6,244.2,267.3,244.3,267z"/>
		</g>
		<g>
			<g>
				<circle class="st4" cx="208" cy="162.4" r="77.5"/>
				<path class="st3" d="M146.3,138.9c0.7-0.2,1.4-0.4,2-0.8c4.5-3.1,9.1-9.2,13.6-13.1c5.3-4.5,8.9-9.2,15.2-6.5c2.3,1,4,2.8,6.2,4
					c4.6,2.7,10.8,3.9,15,0.7c6.4-4.8,12-15.1,22.2-13c0.1,0,0.3,0.1,0.4,0.1c7.7,2.8,10.5,10,16,14.9c0.1,0.1,0.2,0.2,0.3,0.3
					c4.6,2.9,6.9-1.5,10.3-3.1c3.8-1.8,8.5,0.2,11.5,3.3c3,3,4.9,6.9,7.7,10.1c0.7,0.8,1.5,1.5,2.3,2.1s2,0.4,2.7-0.3
					c0.9-0.9,0.5-2.2,0.1-3.2c-0.3-0.7-0.6-1.4-0.9-2c-0.6-1.3-1.3-2.7-2-4s-1.5-2.6-2.3-3.8c-0.8-1.2-1.6-2.5-2.5-3.7
					s-1.8-2.4-2.7-3.5c-0.9-1.1-1.9-2.2-2.9-3.3c-1-1.1-2.1-2.1-3.1-3.1c-1.1-1-2.2-2-3.3-2.9s-2.3-1.8-3.5-2.7
					c-1.2-0.9-2.4-1.7-3.7-2.5s-2.6-1.5-3.9-2.2c-1.3-0.7-2.7-1.4-4-2c-1.4-0.6-2.8-1.2-4.2-1.7s-2.9-1-4.3-1.5
					c-1.5-0.4-2.9-0.8-4.4-1.2c-1.5-0.4-3-0.7-4.6-0.9c-1.5-0.3-3.1-0.5-4.7-0.6c-0.7-0.1-1.4-0.1-2-0.2c-30.7-2-58,16.4-68.8,43.5
					C143.3,137.7,144.6,139.3,146.3,138.9L146.3,138.9z"/>
			</g>
			<g>
				<path class="st3" d="M186.9,185.8h-24.7c-1.4,0-2.1-1.7-1.1-2.7l6.7-6.9c2.4-2.5,4.4-4.7,5.7-6.5c1.4-1.8,2.4-3.3,3.1-4.5
					c0.7-1.2,1.1-2.2,1.3-3s0.2-1.4,0.2-1.9c0-0.6-0.1-1.1-0.3-1.6s-0.5-1-0.8-1.4c-0.4-0.4-0.8-0.7-1.3-1c-0.5-0.2-1.1-0.4-1.8-0.4
					c-1.3,0-2.4,0.4-3.1,1.3c-0.7,0.9-1.1,1.9-1.1,3.2l0,0c0,0.9-0.7,1.6-1.6,1.6h-7.2c-0.9,0-1.7-0.8-1.6-1.7
					c0.1-1.5,0.5-2.9,1-4.2c0.7-1.8,1.7-3.3,3-4.6s2.8-2.3,4.6-3s3.7-1,5.8-1s4,0.3,5.8,1s3.3,1.6,4.6,2.8s2.3,2.6,3,4.2
					c0.7,1.6,1.1,3.4,1.1,5.3c0,2-0.4,3.9-1.3,5.7c-0.9,1.7-2.3,3.5-4.2,5.3l-3.3,3.1c-1,1-0.4,2.7,1.1,2.7h6.5
					c0.9,0,1.6,0.7,1.6,1.6v5.1C188.4,185.1,187.7,185.8,186.9,185.8z"/>
				<path class="st3" d="M220.3,170.7h1.3c0.9,0,1.6,0.7,1.6,1.6v4.3c0,0.9-0.7,1.6-1.6,1.6h-1.3c-0.9,0-1.6,0.7-1.6,1.6v4.5
					c0,0.9-0.7,1.6-1.6,1.6h-5.8c-0.9,0-1.6-0.7-1.6-1.6v-4.5c0-0.9-0.7-1.6-1.6-1.6h-14.9c-0.9,0-1.6-0.7-1.6-1.6v-4.2
					c0-0.3,0.1-0.6,0.2-0.8l13.6-22.3c0.3-0.5,0.8-0.8,1.3-0.8H217c0.9,0,1.6,0.7,1.6,1.6v19.1C218.7,170,219.4,170.7,220.3,170.7z
					 M209.7,169.1v-7.3c0-1.6-2.1-2.2-2.9-0.8l-4.2,7.3c-0.6,1.1,0.1,2.4,1.4,2.4h4.2C209,170.7,209.7,170,209.7,169.1z"/>
				<path class="st3" d="M225.2,167.1c0-3,0.4-5.7,1.2-8.1c0.8-2.4,1.9-4.5,3.3-6.2c1.4-1.7,3.1-3,5-4c1.9-0.9,4.1-1.4,6.4-1.4
					c2.3,0,4.4,0.5,6.4,1.4c1.9,0.9,3.6,2.3,5,4s2.5,3.8,3.2,6.2c0.8,2.4,1.2,5.1,1.2,8.1s-0.4,5.7-1.2,8.1
					c-0.8,2.4-1.9,4.5-3.2,6.2c-1.4,1.7-3.1,3.1-5,4s-4.1,1.4-6.4,1.4c-2.3,0-4.5-0.5-6.4-1.4s-3.6-2.3-5-4s-2.5-3.8-3.3-6.2
					C225.5,172.8,225.2,170.1,225.2,167.1z M234.8,167.1c0,1.6,0.1,3.2,0.4,4.5c0.3,1.4,0.7,2.5,1.3,3.5c0.5,1,1.2,1.8,2,2.3
					s1.6,0.8,2.6,0.8c0.9,0,1.8-0.3,2.5-0.8c0.8-0.5,1.4-1.3,2-2.3c0.5-1,0.9-2.2,1.2-3.5c0.3-1.4,0.4-2.9,0.4-4.5s-0.1-3.1-0.4-4.5
					c-0.3-1.4-0.7-2.5-1.2-3.5s-1.2-1.7-2-2.3c-0.8-0.5-1.6-0.8-2.5-0.8c-1,0-1.8,0.3-2.6,0.8s-1.4,1.3-2,2.3c-0.5,1-1,2.1-1.3,3.5
					S234.8,165.5,234.8,167.1z"/>
			</g>
			<path class="st5" d="M233.9,204.7h-51.8c-1.1,0-2.1-0.9-2.1-2.1c0-1.1,0.9-2.1,2.1-2.1h51.8c1.1,0,2.1,0.9,2.1,2.1
				C235.9,203.8,235,204.7,233.9,204.7z"/>
			<path class="st5" d="M226.5,214.1h-37c-1.1,0-2.1-0.9-2.1-2.1c0-1.1,0.9-2.1,2.1-2.1h37c1.1,0,2.1,0.9,2.1,2.1
				C228.6,213.2,227.6,214.1,226.5,214.1z"/>
		</g>
	</g>
</g>
<g id="레이어_3" class="st0">
	<g class="st1">
		<g>
			<g>
				<path class="st6" d="M243.2,117.7C66.4,42.1,0,143.3,0,143.3S167.5,150.2,243.2,117.7z"/>
				<path class="st7" d="M243.2,117.7C167.5,150.2,0,143.3,0,143.3s33.8,46.7,112.2,50.5s132.9-75.3,132.9-75.3
					C244.5,118.2,243.8,117.9,243.2,117.7z"/>
			</g>
			<g>
				<g>
					<path class="st7" d="M186.1,45.1C143,24,85.2,44.6,79.2,46.9c11.3,3.3,121.8,36.5,165.3,69.6C241.6,106.7,227,65.2,186.1,45.1z
						"/>
					<path class="st8" d="M79.2,46.9c-0.3,0.1-0.5,0.2-0.5,0.2s42.9,92.4,166.4,71.5c0,0-0.2-0.7-0.6-2.1
						C201,83.3,90.6,50.2,79.2,46.9z"/>
				</g>
				<g>
					<path class="st7" d="M222.8,114.7c0,0,79.6,136.2,193.2,48.6C416,163.3,307.8,157.6,222.8,114.7z"/>
					<path class="st6" d="M222.8,114.7c85,42.9,193.2,48.6,193.2,48.6S389.2,92.8,222.8,114.7z"/>
				</g>
				<g>
					<path class="st7" d="M300,61.1c-62.2,11.6-75.9,50.8-76.7,53.6c73.7-13.5,177.6-29.6,188.3-31.2C405.1,79,359.7,49.9,300,61.1z
						"/>
					<path class="st8" d="M411.5,83.4c-10.7,1.7-114.6,17.7-188.3,31.2c0,0.1,0,0.2,0,0.2C338.4,172.2,412.3,84,412.3,84
						S412,83.7,411.5,83.4z"/>
				</g>
			</g>
		</g>
		<g>
			<path class="st9" d="M248.8,189.9c-19.9-21.9-20.9-57.7-19.9-75.8c0.3-6.1,5.8-11.8,11.5-12c16.9-0.6,50.3,1.3,70.2,23.2
				s20.9,57.7,19.9,75.8c-0.3,6.1-5.8,11.8-11.5,12C302.1,213.7,268.7,211.7,248.8,189.9z"/>
			<path class="st10" d="M277.1,160.4c-11.6-12.7-20.7-25.1-25.6-32.2c-2.6-3.7-1.9-4.4,1.5-1.6c6.5,5.4,17.8,15.4,29.4,28.2
				c11.6,12.7,20.7,25.1,25.6,32.2c2.6,3.7,1.9,4.4-1.5,1.6C300,183.1,288.7,173.1,277.1,160.4z"/>
			<path class="st10" d="M312.4,168.7c-3.6-11.8-14.3-36.6-42.9-47.3c-1-0.4-2,1.2-1.2,1.8c8.5,6.9,26.4,22.7,42.4,46.7
				C311.3,170.7,312.8,169.7,312.4,168.7z"/>
			<path class="st10" d="M289.9,192.2c-10.9-4.1-33.8-16.2-43.1-47.1c-0.3-1.1,1.2-2.1,1.8-1.2c6.2,9.3,20.5,28.8,42.5,46.5
				C291.9,191,290.9,192.5,289.9,192.2z"/>
		</g>
		<g>
			<path class="st11" d="M132.2,140.1c32.6-31.9,79.5-37.7,102.9-38.4c8-0.3,14.3,7,13.4,15.5c-2.6,24.8-11.9,74.1-44.5,106
				s-79.5,37.7-102.9,38.4c-8,0.3-14.3-7-13.4-15.5C90.4,221.4,99.7,172,132.2,140.1z"/>
			<path class="st12" d="M165,178.1c19-18.6,37-33.4,47.2-41.5c5.3-4.2,6.1-3.3,1.8,2c-8.4,10.2-23.7,28.1-42.7,46.7
				s-37,33.4-47.2,41.5c-5.3,4.2-6.1,3.3-1.8-2C130.7,214.5,146,196.7,165,178.1z"/>
			<path class="st12" d="M147,231.1c16.1-6.7,50.7-25.5,70.5-68.8c0.7-1.5-1.2-2.8-2.2-1.5c-10.7,13.4-35,41.6-69.5,67.9
				C144.6,229.6,145.6,231.7,147,231.1z"/>
			<path class="st12" d="M120.9,200.9c7.6-16.5,28.1-51.7,70.2-69.1c1.4-0.6,2.5,1.5,1.3,2.4c-13.4,10.2-41.8,33.7-69.3,68.2
				C122.1,203.6,120.2,202.3,120.9,200.9z"/>
		</g>
	</g>
</g>
<g>
	<path class="st13" d="M386.8,185c-1.4,1.4-3.7,0.4-3.7-1.5v-28.3l11-17.9v16c0,0.6,0.2,1.1,0.6,1.5l4.8,6.4
		c0.7,0.9,0.8,2.2,0.1,3.2L386.8,185z"/>
	<g>
		<path class="st14" d="M274.6,175.9c0.5,0.2,0.9,0.5,1.2,1l16.7,32.3c0.2,0.3,0.3,0.7,0.3,1v26.9c0,0.4-0.1,0.7-0.3,1.1l-6.9,12.1
			h19.6l23.8-53.9c0.7-1.5,2.6-1.7,3.6-0.5l-19.3-27.6L274.6,175.9z"/>
		<path class="st15" d="M275.7,267.8c-0.8,1.4,0.2,3.2,1.9,3.2h17.1c0.9,0,1.6-0.5,2-1.3l8.6-19.4h-19.6L275.7,267.8z"/>
		<path class="st15" d="M269.1,77.9l22.3-18h-63.4l24.5,18.8C257.7,82.1,264.4,81.7,269.1,77.9z"/>
		<path class="st13" d="M18.4,91.7c-3.1,3-3.4,7.9-0.8,11.3l4.9,6.2c2.1,2.7,5.4,4.2,8.8,4.2h30.1L31.5,79.1L18.4,91.7z"/>
		<path class="st15" d="M144,268.1c-0.6,1.4,0.5,3,2,3h19.7c1.1,0,2-0.8,2.1-1.8l3.6-20.1l-18.4-4.5L144,268.1z"/>
		<path class="st15" d="M196.6,268.7c-0.1,1.3,0.9,2.4,2.2,2.4h17.5c1.3,0,2.3-1.1,2.2-2.4l-2.1-25.3l-17.7,2.4L196.6,268.7z"/>
		<path class="st15" d="M357,250.3h16.5v18.6c0,1.2-1,2.2-2.2,2.2h-16.6c-1.6,0-2.7-1.7-2-3.1L357,250.3"/>
		<path class="st15" d="M394.1,75.7c0-8.7-7.1-15.8-15.8-15.8l0,0h-53.9v53.6c0,4.6,2.3,9,6.1,11.6l43,29.2V73.6c0-0.5,0.4-1,1-1
			h1.5c4,0,7.2,3.2,7.2,7.2v75.7l11-18V75.7z"/>
		<path class="st15" d="M171.2,90.4l-10.7-10.7c-5.5-5.5-5.5-14.3,0-19.8l0.6-0.6L113.2,53c-0.5-0.1-0.9-0.3-1.3-0.6
			c-0.9-0.8-0.9-2.2,0-3.1l3-3c0.4-0.4,0.6-1,0.6-1.5V32.5c0-0.6-0.2-1.1-0.6-1.5l-3.6-3.6c-0.8-0.8-2.2-0.9-3.1,0L99.7,36
			c-0.8,0.8-2.2,0.8-3.1,0L83.5,22.9c-0.4-0.4-1-0.6-1.5-0.6H47c-2.2,0-3,2.9-1.1,4L68.2,40c1.2,0.7,1.4,2.4,0.4,3.4L31.5,79.1
			l30.1,34.3h29.2c0.7,0,1.3,0.3,1.8,0.9l31.5,43l47.1-47.1C176.6,104.7,176.6,95.8,171.2,90.4z"/>
		<path class="st15" d="M246.8,105.8l-24.3-18.7c-5.6-3.7-12.9-2.9-17.6,1.8l-1.5,1.5c-2.6,2.6-4.1,6.2-4.1,9.9v31.5
			c0,4.6,2.3,8.9,6,11.5l19.4,13.5c4.7,3.2,6.8,3.3,11.5,0.3l10.5-6.7c4-2.6,6.4-7,6.4-11.8v-21.1
			C253.1,112.8,250.7,108.4,246.8,105.8z"/>
		<path class="st16" d="M246.8,105.8l-24.3-18.7c-5.6-3.7-12.9-2.9-17.6,1.8l-1.5,1.5c-2.6,2.6-4.1,6.2-4.1,9.9v31.5
			c0,4.6,2.3,8.9,6,11.5l19.4,13.5c4.7,3.2,6.8,3.3,11.5,0.3l10.5-6.7c4-2.6,6.4-7,6.4-11.8v-21.1
			C253.1,112.8,250.7,108.4,246.8,105.8z"/>
		<path class="st16" d="M246.8,105.8l-24.3-18.7c-5.6-3.7-12.9-2.9-17.6,1.8l-1.5,1.5c-2.6,2.6-4.1,6.2-4.1,9.9v31.5
			c0,4.6,2.3,8.9,6,11.5l19.4,13.5c4.7,3.2,6.8,3.3,11.5,0.3l10.5-6.7c4-2.6,6.4-7,6.4-11.8v-21.1
			C253.1,112.8,250.7,108.4,246.8,105.8z"/>
		<path class="st13" d="M316.3,172.7l16.5,23.2c0,0.1,0.1,0.1,0.1,0.1l23.8,34.1c0.3,0.4,0.4,0.8,0.4,1.2v18.9h16.5v-96.1l-43-29.2
			c-3.8-2.6-6.1-6.9-6.1-11.6V59.9h-32.9l-22.3,18c-4.7,3.8-11.4,4.1-16.5,0.8l-24.5-18.8h-62.1c-0.1,0-0.2,0-0.3,0l-4.6-0.6
			l-0.6,0.6c-5.5,5.5-5.5,14.3,0,19.8l10.7,10.7c5.5,5.5,5.5,14.3,0,19.8L124,157.3l27.1,37.1c0.1,0.2,0.2,0.3,0.3,0.5l28.8,11.2
			c1-0.5,2.4-0.2,3,1l15.4,34.6c0.1,0.3,0.2,0.7,0.2,1.1l-0.3,3l17.7-2.4l-4.5-52.7c-0.1-1.1,0.7-2.1,1.7-2.3L316.3,172.7z
			 M253.1,138.6c0,4.8-2.4,9.2-6.4,11.8l-10.5,6.7c-4.8,3.1-6.9,3-11.5-0.3l-19.4-13.5c-3.8-2.6-6-6.9-6-11.5v-31.5
			c0-3.7,1.5-7.3,4.1-9.9l1.5-1.5c4.7-4.7,12.1-5.4,17.6-1.8l24.3,18.7c3.9,2.6,6.3,7,6.3,11.7V138.6z"/>
		<path class="st14" d="M180.2,206.1l-28.8-11.2c0.1,0.2,0.1,0.4,0.1,0.7l2,47.5c0,0.3,0,0.6-0.1,0.9l-0.3,0.8l18.4,4.5l7.5-41.6
			C179.2,206.9,179.7,206.4,180.2,206.1z"/>
	</g>
</g>
</svg>
