<?xml version="1.0" encoding="utf-8"?>
<!-- Generator: Adobe Illustrator 22.0.1, SVG Export Plug-In . SVG Version: 6.00 Build 0)  -->
<svg version="1.1" id="레이어_1" xmlns="http://www.w3.org/2000/svg" xmlns:xlink="http://www.w3.org/1999/xlink" x="0px"
	 y="0px" viewBox="0 0 300.4 206.6" style="enable-background:new 0 0 300.4 206.6;" xml:space="preserve">
<style type="text/css">
	.st0{fill:#0A0000;}
</style>
<g transform="translate(0,-952.36218)">
	<path class="st0" d="M37.6,952.4c-8.6,0-16.5,3-22.8,7.9L144.1,1084c2.9,2.8,9.3,2.8,12.2,0l129.3-123.8
		c-6.3-4.9-14.2-7.9-22.8-7.9H37.6z M4.9,971.7c-3.1,5.6-4.9,12-4.9,18.9v130.1c0,7.8,2.3,15,6.2,21l0.4-0.2l94.5-77.7L4.9,971.7
		L4.9,971.7z M295.5,971.7l-96.1,92.1l94.5,77.7l0.4,0.2c3.9-6,6.2-13.3,6.2-21V990.6C300.4,983.7,298.6,977.3,295.5,971.7
		L295.5,971.7z M112.1,1074.3l-95.2,78.3c5.9,4,13,6.3,20.7,6.3h225.3c7.6,0,14.7-2.4,20.7-6.3l-95.2-78.3l-21.7,20.8
		c-9.2,8.8-23.7,8.8-32.9,0L112.1,1074.3L112.1,1074.3z"/>
</g>
</svg>
