<?xml version="1.0" encoding="utf-8"?>
<!-- Generator: Adobe Illustrator 22.0.1, SVG Export Plug-In . SVG Version: 6.00 Build 0)  -->
<svg version="1.1" id="레이어_1" xmlns="http://www.w3.org/2000/svg" xmlns:xlink="http://www.w3.org/1999/xlink" x="0px"
	 y="0px" viewBox="0 0 237.8 238.1" style="enable-background:new 0 0 237.8 238.1;" xml:space="preserve">
<path d="M207.5,230.7l26.1-26.1c5.8-5.8,5.7-15.4-0.5-21.7l-37.8-37.8c-6-6-15.3-7-21.7-0.6l-23.9,23.9
	c-14.5-10-28.9-22.2-43.4-36.7c-14.5-14.5-26.7-28.9-36.7-43.4L93,63.9c6.7-5.6,6.7-15.6,0-21.1L55.2,5c-5.6-6.7-15.6-6.7-21.1,0
	L7.4,30.6c-21.1,23.3,4.4,86.7,58.9,141.2S184.1,251.8,207.5,230.7z"/>
</svg>
