<?xml version="1.0" encoding="utf-8"?>
<!-- Generator: Adobe Illustrator 22.0.1, SVG Export Plug-In . SVG Version: 6.00 Build 0)  -->
<svg version="1.1" id="Layer_1" xmlns="http://www.w3.org/2000/svg" xmlns:xlink="http://www.w3.org/1999/xlink" x="0px" y="0px"
	 viewBox="435.078 587.354 213.812 213.821" enable-background="new 435.078 587.354 213.812 213.821" xml:space="preserve">
<path fill="#666666" d="M506.357,694.264c0-19.681,15.95-35.64,35.631-35.64c19.681,0,35.639,15.959,35.639,35.64
	c0,19.681-15.959,35.64-35.639,35.64C522.307,729.904,506.357,713.945,506.357,694.264 M487.091,694.264
	c0,30.32,24.577,54.897,54.897,54.897c30.32,0,54.897-24.577,54.897-54.897s-24.577-54.898-54.897-54.898
	C511.668,639.367,487.091,663.944,487.091,694.264 M586.229,637.191c0,7.081,5.743,12.833,12.833,12.833
	c7.081,0,12.833-5.751,12.833-12.833c0-7.081-5.743-12.824-12.833-12.824S586.229,630.109,586.229,637.191 M498.792,781.286
	c-10.423-0.475-16.088-2.211-19.854-3.679c-4.991-1.943-8.549-4.257-12.297-7.997c-3.739-3.739-6.062-7.297-7.997-12.289
	c-1.468-3.765-3.204-9.43-3.679-19.854c-0.518-11.269-0.622-14.655-0.622-43.205s0.112-31.926,0.622-43.205
	c0.475-10.423,2.219-16.08,3.679-19.854c1.943-4.991,4.257-8.549,7.997-12.297c3.739-3.739,7.297-6.062,12.297-7.997
	c3.765-1.468,9.43-3.204,19.854-3.679c11.27-0.518,14.655-0.622,43.196-0.622c28.55,0,31.926,0.112,43.205,0.622
	c10.423,0.475,16.079,2.219,19.853,3.679c4.991,1.934,8.549,4.257,12.297,7.997c3.739,3.739,6.054,7.306,7.996,12.297
	c1.468,3.765,3.204,9.43,3.679,19.854c0.518,11.278,0.622,14.655,0.622,43.205c0,28.541-0.103,31.927-0.622,43.205
	c-0.475,10.423-2.22,16.089-3.679,19.854c-1.943,4.991-4.257,8.549-7.996,12.289c-3.739,3.74-7.306,6.054-12.297,7.997
	c-3.765,1.468-9.43,3.204-19.853,3.679c-11.27,0.518-14.655,0.622-43.205,0.622C513.447,781.908,510.062,781.805,498.792,781.286
	 M497.911,588.002c-11.382,0.518-19.154,2.323-25.951,4.966c-7.029,2.729-12.988,6.39-18.938,12.332
	c-5.941,5.941-9.603,11.9-12.332,18.938c-2.642,6.796-4.447,14.568-4.965,25.95c-0.527,11.399-0.648,15.044-0.648,44.077
	c0,29.033,0.121,32.678,0.648,44.077c0.518,11.382,2.323,19.154,4.965,25.95c2.729,7.03,6.382,12.997,12.332,18.938
	c5.941,5.941,11.9,9.594,18.938,12.332c6.805,2.643,14.569,4.447,25.951,4.966c11.408,0.518,15.044,0.648,44.077,0.648
	c29.042,0,32.678-0.121,44.077-0.648c11.382-0.518,19.154-2.323,25.951-4.966c7.03-2.738,12.988-6.391,18.938-12.332
	c5.941-5.941,9.594-11.909,12.332-18.938c2.642-6.796,4.456-14.568,4.966-25.95c0.518-11.408,0.639-15.043,0.639-44.077
	c0-29.033-0.121-32.678-0.639-44.077c-0.518-11.382-2.323-19.154-4.966-25.95c-2.737-7.03-6.391-12.988-12.332-18.938
	c-5.941-5.941-11.909-9.603-18.93-12.332c-6.805-2.643-14.577-4.456-25.951-4.966c-11.399-0.518-15.043-0.648-44.077-0.648
	C512.955,587.354,509.319,587.475,497.911,588.002"/>
</svg>
